Vollkorn-Bold.ufo
<glyph name="numbersign" format="2">
  <advance width="624"/>
  <unicode hex="0023"/>
  <outline>
    <contour>
      <point x="404" y="-9" type="curve"/>
      <point x="532" y="694" type="line"/>
      <point x="523" y="704"/>
      <point x="482" y="717"/>
      <point x="449" y="717" type="curve"/>
      <point x="320" y="14" type="line"/>
      <point x="335" y="0"/>
      <point x="370" y="-9"/>
    </contour>
    <contour>
      <point x="20" y="180" type="curve"/>
      <point x="93" y="184"/>
      <point x="236" y="184"/>
      <point x="461" y="184" type="curve" smooth="yes"/>
      <point x="555" y="184" type="line"/>
      <point x="567" y="215"/>
      <point x="570" y="243"/>
      <point x="570" y="273" type="curve"/>
      <point x="35" y="273" type="line"/>
      <point x="22" y="246"/>
      <point x="20" y="215"/>
    </contour>
    <contour>
      <point x="176" y="-9" type="curve"/>
      <point x="304" y="692" type="line"/>
      <point x="293" y="706"/>
      <point x="255" y="717"/>
      <point x="221" y="717" type="curve"/>
      <point x="93" y="18" type="line"/>
      <point x="110" y="2"/>
      <point x="148" y="-9"/>
    </contour>
    <contour>
      <point x="65" y="429" type="curve"/>
      <point x="152" y="432"/>
      <point x="279" y="432"/>
      <point x="505" y="432" type="curve" smooth="yes"/>
      <point x="590" y="432" type="line"/>
      <point x="600" y="458"/>
      <point x="604" y="487"/>
      <point x="604" y="522" type="curve"/>
      <point x="81" y="522" type="line"/>
      <point x="68" y="489"/>
      <point x="65" y="465"/>
    </contour>
  </outline>
</glyph>
<glyph name="percent" format="2">
  <advance width="863"/>
  <unicode hex="0025"/>
  <outline>
    <contour>
      <point x="201" y="-7" type="curve"/>
      <point x="750" y="657" type="line"/>
      <point x="732" y="677"/>
      <point x="696" y="686"/>
      <point x="668" y="686" type="curve"/>
      <point x="125" y="30" type="line"/>
      <point x="138" y="11"/>
      <point x="163" y="-9"/>
    </contour>
    <component base="_part.percent"/>
    <component base="_part.percent" xOffset="370" yOffset="-367"/>
  </outline>
</glyph>
<glyph name="ampersand" format="2">
  <advance width="804"/>
  <unicode hex="0026"/>
  <outline>
    <contour>
      <point x="511" y="185" type="curve"/>
      <point x="579" y="149" type="line"/>
      <point x="621" y="228"/>
      <point x="633" y="256"/>
      <point x="657" y="320" type="curve" smooth="yes"/>
      <point x="673" y="363"/>
      <point x="680" y="381"/>
      <point x="732" y="395" type="curve"/>
      <point x="739" y="419"/>
      <point x="740" y="438"/>
      <point x="740" y="461" type="curve"/>
      <point x="707" y="458"/>
      <point x="669" y="458"/>
      <point x="636" y="458" type="curve" smooth="yes"/>
      <point x="603" y="458"/>
      <point x="546" y="458"/>
      <point x="514" y="461" type="curve"/>
      <point x="514" y="437"/>
      <point x="516" y="419"/>
      <point x="524" y="395" type="curve"/>
      <point x="573" y="385"/>
      <point x="588" y="370"/>
      <point x="577" y="323" type="curve" smooth="yes"/>
      <point x="568" y="285"/>
      <point x="549" y="248"/>
    </contour>
    <contour>
      <point x="681" y="113"/>
      <point x="637" y="159" type="curve" smooth="yes"/>
      <point x="579" y="220"/>
      <point x="487" y="338"/>
      <point x="447" y="391" type="curve" smooth="yes"/>
      <point x="374" y="488"/>
      <point x="353" y="532"/>
      <point x="353" y="579" type="curve" smooth="yes"/>
      <point x="353" y="624"/>
      <point x="372" y="640"/>
      <point x="404" y="640" type="curve" smooth="yes"/>
      <point x="457" y="640"/>
      <point x="480" y="594"/>
      <point x="486" y="515" type="curve"/>
      <point x="528" y="515"/>
      <point x="566" y="519"/>
      <point x="600" y="527" type="curve"/>
      <point x="596" y="585"/>
      <point x="597" y="642"/>
      <point x="608" y="681" type="curve"/>
      <point x="545" y="707"/>
      <point x="485" y="717"/>
      <point x="410" y="717" type="curve" smooth="yes"/>
      <point x="219" y="717"/>
      <point x="164" y="652"/>
      <point x="164" y="558" type="curve" smooth="yes"/>
      <point x="164" y="494"/>
      <point x="189" y="434"/>
      <point x="287" y="307" type="curve" smooth="yes"/>
      <point x="360" y="212"/>
      <point x="451" y="110"/>
      <point x="540" y="-9" type="curve"/>
      <point x="601" y="2"/>
      <point x="682" y="10"/>
      <point x="736" y="10" type="curve"/>
      <point x="745" y="35"/>
      <point x="750" y="75"/>
      <point x="750" y="103" type="curve"/>
      <point x="704" y="105"/>
    </contour>
    <contour>
      <point x="401" y="71"/>
      <point x="359" y="71" type="curve" smooth="yes"/>
      <point x="298" y="71"/>
      <point x="244" y="115"/>
      <point x="244" y="233" type="curve" smooth="yes"/>
      <point x="244" y="295"/>
      <point x="259" y="325"/>
      <point x="280" y="343" type="curve"/>
      <point x="222" y="413" type="line"/>
      <point x="114" y="368"/>
      <point x="53" y="304"/>
      <point x="53" y="193" type="curve" smooth="yes"/>
      <point x="53" y="65"/>
      <point x="133" y="-10"/>
      <point x="299" y="-10" type="curve" smooth="yes"/>
      <point x="408" y="-10"/>
      <point x="468" y="22"/>
      <point x="530" y="90" type="curve"/>
      <point x="468" y="140" type="line"/>
      <point x="433" y="92"/>
    </contour>
  </outline>
</glyph>
<glyph name="quotesingle" format="2">
  <advance width="253"/>
  <unicode hex="0027"/>
  <outline>
    <contour>
      <point x="181" y="712"/>
      <point x="161" y="717" type="curve"/>
      <point x="140" y="704"/>
      <point x="103" y="691"/>
      <point x="60" y="687" type="curve"/>
      <point x="75" y="611"/>
      <point x="86" y="515"/>
      <point x="89" y="426" type="curve"/>
      <point x="111" y="416"/>
      <point x="139" y="411"/>
      <point x="166" y="411" type="curve"/>
      <point x="173" y="507"/>
      <point x="179" y="588"/>
      <point x="191" y="651" type="curve" smooth="yes"/>
      <point x="192" y="658"/>
      <point x="193" y="663"/>
      <point x="193" y="669" type="curve" smooth="yes"/>
      <point x="193" y="695"/>
    </contour>
  </outline>
</glyph>
<glyph name="parenleft" format="2">
  <advance width="353"/>
  <unicode hex="0028"/>
  <outline>
    <contour>
      <point x="258" y="741"/>
      <point x="235" y="741" type="curve"/>
      <point x="116" y="609"/>
      <point x="35" y="458"/>
      <point x="35" y="240" type="curve" smooth="yes"/>
      <point x="35" y="27"/>
      <point x="136" y="-161"/>
      <point x="240" y="-271" type="curve"/>
      <point x="267" y="-271"/>
      <point x="289" y="-266"/>
      <point x="306" y="-256" type="curve"/>
      <point x="237" y="-139"/>
      <point x="185" y="37"/>
      <point x="185" y="266" type="curve" smooth="yes"/>
      <point x="185" y="478"/>
      <point x="222" y="593"/>
      <point x="300" y="719" type="curve"/>
      <point x="282" y="733"/>
    </contour>
  </outline>
</glyph>
<glyph name="slash" format="2">
  <advance width="401"/>
  <unicode hex="002F"/>
  <outline>
    <contour>
      <point x="116" y="-9" type="curve"/>
      <point x="377" y="695" type="line"/>
      <point x="354" y="708"/>
      <point x="324" y="717"/>
      <point x="294" y="717" type="curve"/>
      <point x="29" y="8" type="line"/>
      <point x="47" y="-3"/>
      <point x="76" y="-9"/>
    </contour>
  </outline>
</glyph>
<glyph name="eight" format="2">
  <advance width="579"/>
  <unicode hex="0038"/>
  <outline>
    <contour>
      <point x="252" y="285" type="curve"/>
      <point x="194" y="342" type="line"/>
      <point x="84" y="302"/>
      <point x="45" y="234"/>
      <point x="45" y="160" type="curve" smooth="yes"/>
      <point x="45" y="50"/>
      <point x="133" y="-9"/>
      <point x="292" y="-9" type="curve" smooth="yes"/>
      <point x="452" y="-9"/>
      <point x="534" y="51"/>
      <point x="534" y="176" type="curve" smooth="yes"/>
      <point x="534" y="297"/>
      <point x="455" y="348"/>
      <point x="335" y="410" type="curve" smooth="yes"/>
      <point x="274" y="442"/>
      <point x="238" y="463"/>
      <point x="238" y="515" type="curve" smooth="yes"/>
      <point x="238" y="550"/>
      <point x="257" y="572"/>
      <point x="288" y="572" type="curve" smooth="yes"/>
      <point x="325" y="572"/>
      <point x="349" y="540"/>
      <point x="349" y="488" type="curve" smooth="yes"/>
      <point x="349" y="454"/>
      <point x="339" y="421"/>
      <point x="320" y="399" type="curve"/>
      <point x="405" y="359" type="line"/>
      <point x="476" y="381"/>
      <point x="519" y="433"/>
      <point x="519" y="498" type="curve" smooth="yes"/>
      <point x="519" y="590"/>
      <point x="428" y="637"/>
      <point x="299" y="637" type="curve" smooth="yes"/>
      <point x="142" y="637"/>
      <point x="60" y="568"/>
      <point x="60" y="466" type="curve" smooth="yes"/>
      <point x="60" y="364"/>
      <point x="146" y="318"/>
      <point x="211" y="286" type="curve" smooth="yes"/>
      <point x="281" y="252"/>
      <point x="354" y="209"/>
      <point x="354" y="131" type="curve" smooth="yes"/>
      <point x="354" y="92"/>
      <point x="336" y="65"/>
      <point x="301" y="65" type="curve" smooth="yes"/>
      <point x="255" y="65"/>
      <point x="225" y="112"/>
      <point x="225" y="192" type="curve" smooth="yes"/>
      <point x="225" y="237"/>
      <point x="233" y="269"/>
    </contour>
  </outline>
</glyph>
<glyph name="B" format="2">
  <advance width="713"/>
  <unicode hex="0042"/>
  <outline>
    <contour>
      <point x="30" y="679" type="curve"/>
      <point x="30" y="657"/>
      <point x="32" y="621"/>
      <point x="37" y="601" type="curve"/>
      <point x="93" y="593"/>
      <point x="104" y="581"/>
      <point x="104" y="491" type="curve" smooth="yes"/>
      <point x="104" y="187" type="line" smooth="yes"/>
      <point x="104" y="95"/>
      <point x="92" y="79"/>
      <point x="38" y="75" type="curve"/>
      <point x="33" y="56"/>
      <point x="30" y="26"/>
      <point x="30" y="-3" type="curve"/>
      <point x="133" y="-1"/>
      <point x="249" y="0"/>
      <point x="367" y="0" type="curve" smooth="yes"/>
      <point x="598" y="0"/>
      <point x="683" y="78"/>
      <point x="683" y="194" type="curve" smooth="yes"/>
      <point x="683" y="296"/>
      <point x="630" y="362"/>
      <point x="488" y="370" type="curve"/>
      <point x="591" y="385"/>
      <point x="647" y="446"/>
      <point x="647" y="523" type="curve" smooth="yes"/>
      <point x="647" y="624"/>
      <point x="582" y="678"/>
      <point x="367" y="678" type="curve" smooth="yes"/>
      <point x="309" y="678"/>
      <point x="191" y="676"/>
      <point x="138" y="676" type="curve" smooth="yes"/>
      <point x="104" y="676"/>
      <point x="55" y="677"/>
    </contour>
    <contour>
      <point x="304" y="638" type="line"/>
      <point x="290" y="585" type="line"/>
      <point x="310" y="595"/>
      <point x="326" y="601"/>
      <point x="351" y="601" type="curve" smooth="yes"/>
      <point x="407" y="601"/>
      <point x="447" y="561"/>
      <point x="447" y="496" type="curve" smooth="yes"/>
      <point x="447" y="422"/>
      <point x="405" y="384"/>
      <point x="340" y="384" type="curve" smooth="yes"/>
      <point x="264" y="384" type="line"/>
      <point x="264" y="309" type="line"/>
      <point x="329" y="309" type="line" smooth="yes"/>
      <point x="417" y="309"/>
      <point x="463" y="278"/>
      <point x="463" y="183" type="curve" smooth="yes"/>
      <point x="463" y="113"/>
      <point x="422" y="74"/>
      <point x="373" y="74" type="curve" smooth="yes"/>
      <point x="336" y="74"/>
      <point x="304" y="89"/>
      <point x="304" y="178" type="curve" smooth="yes"/>
    </contour>
  </outline>
</glyph>
<glyph name="C" format="2">
  <advance width="634"/>
  <unicode hex="0043"/>
  <anchor x="380" y="0" name="bottom"/>
  <anchor x="138" y="350" name="center"/>
  <anchor x="377" y="676" name="top"/>
  <outline>
    <contour>
      <point x="379" y="-9" type="curve" smooth="yes"/>
      <point x="487" y="-9"/>
      <point x="566" y="30"/>
      <point x="614" y="72" type="curve"/>
      <point x="610" y="93"/>
      <point x="601" y="114"/>
      <point x="586" y="127" type="curve"/>
      <point x="534" y="98"/>
      <point x="483" y="85"/>
      <point x="438" y="85" type="curve" smooth="yes"/>
      <point x="298" y="85"/>
      <point x="240" y="207"/>
      <point x="240" y="367" type="curve" smooth="yes"/>
      <point x="240" y="492"/>
      <point x="275" y="608"/>
      <point x="383" y="608" type="curve" smooth="yes"/>
      <point x="447" y="608"/>
      <point x="488" y="568"/>
      <point x="489" y="464" type="curve"/>
      <point x="520" y="464"/>
      <point x="570" y="468"/>
      <point x="588" y="478" type="curve"/>
      <point x="588" y="533"/>
      <point x="591" y="587"/>
      <point x="599" y="633" type="curve"/>
      <point x="530" y="666"/>
      <point x="451" y="685"/>
      <point x="379" y="685" type="curve" smooth="yes"/>
      <point x="199" y="685"/>
      <point x="35" y="568"/>
      <point x="35" y="341" type="curve" smooth="yes"/>
      <point x="35" y="134"/>
      <point x="172" y="-9"/>
    </contour>
  </outline>
</glyph>
<glyph name="H" format="2">
  <advance width="802"/>
  <unicode hex="0048"/>
  <anchor x="401" y="0" name="bottom"/>
  <anchor x="764" y="75" name="bottomright"/>
  <anchor x="401" y="480" name="center"/>
  <anchor x="401" y="676" name="top"/>
  <outline>
    <contour>
      <point x="424" y="-3" type="curve"/>
      <point x="471" y="-1"/>
      <point x="544" y="0"/>
      <point x="613" y="0" type="curve" smooth="yes"/>
      <point x="682" y="0"/>
      <point x="742" y="-1"/>
      <point x="772" y="-3" type="curve"/>
      <point x="772" y="23"/>
      <point x="769" y="57"/>
      <point x="764" y="75" type="curve"/>
      <point x="710" y="79"/>
      <point x="698" y="95"/>
      <point x="698" y="187" type="curve" smooth="yes"/>
      <point x="698" y="491" type="line" smooth="yes"/>
      <point x="698" y="581"/>
      <point x="708" y="595"/>
      <point x="763" y="601" type="curve"/>
      <point x="772" y="627"/>
      <point x="772" y="652"/>
      <point x="772" y="679" type="curve"/>
      <point x="732" y="677"/>
      <point x="651" y="676"/>
      <point x="603" y="676" type="curve" smooth="yes"/>
      <point x="555" y="676"/>
      <point x="457" y="677"/>
      <point x="424" y="679" type="curve"/>
      <point x="424" y="653"/>
      <point x="428" y="621"/>
      <point x="433" y="601" type="curve"/>
      <point x="489" y="593"/>
      <point x="498" y="581"/>
      <point x="498" y="491" type="curve" smooth="yes"/>
      <point x="498" y="187" type="line" smooth="yes"/>
      <point x="498" y="95"/>
      <point x="488" y="79"/>
      <point x="434" y="75" type="curve"/>
      <point x="429" y="56"/>
      <point x="424" y="21"/>
    </contour>
    <contour>
      <point x="30" y="-3" type="curve"/>
      <point x="77" y="-1"/>
      <point x="150" y="0"/>
      <point x="219" y="0" type="curve" smooth="yes"/>
      <point x="288" y="0"/>
      <point x="348" y="-1"/>
      <point x="378" y="-3" type="curve"/>
      <point x="378" y="23"/>
      <point x="375" y="57"/>
      <point x="370" y="75" type="curve"/>
      <point x="316" y="79"/>
      <point x="304" y="95"/>
      <point x="304" y="187" type="curve" smooth="yes"/>
      <point x="304" y="491" type="line" smooth="yes"/>
      <point x="304" y="581"/>
      <point x="314" y="595"/>
      <point x="369" y="601" type="curve"/>
      <point x="378" y="627"/>
      <point x="378" y="652"/>
      <point x="378" y="679" type="curve"/>
      <point x="338" y="677"/>
      <point x="257" y="676"/>
      <point x="209" y="676" type="curve" smooth="yes"/>
      <point x="161" y="676"/>
      <point x="63" y="677"/>
      <point x="30" y="679" type="curve"/>
      <point x="30" y="653"/>
      <point x="34" y="621"/>
      <point x="39" y="601" type="curve"/>
      <point x="95" y="593"/>
      <point x="104" y="581"/>
      <point x="104" y="491" type="curve" smooth="yes"/>
      <point x="104" y="187" type="line" smooth="yes"/>
      <point x="104" y="95"/>
      <point x="94" y="79"/>
      <point x="40" y="75" type="curve"/>
      <point x="35" y="56"/>
      <point x="30" y="21"/>
    </contour>
    <contour>
      <point x="300" y="300" type="line"/>
      <point x="356" y="309"/>
      <point x="437" y="310"/>
      <point x="504" y="310" type="curve"/>
      <point x="504" y="389" type="line"/>
      <point x="300" y="389" type="line"/>
    </contour>
  </outline>
</glyph>
<glyph name="J" format="2">
  <advance width="393"/>
  <unicode hex="004A"/>
  <anchor x="189" y="676" name="top"/>
  <outline>
    <contour>
      <point x="289" y="135" type="curve" smooth="yes"/>
      <point x="289" y="488" type="line" smooth="yes"/>
      <point x="289" y="571"/>
      <point x="293" y="596"/>
      <point x="354" y="601" type="curve"/>
      <point x="361" y="623"/>
      <point x="363" y="648"/>
      <point x="363" y="679" type="curve"/>
      <point x="318" y="676"/>
      <point x="244" y="676"/>
      <point x="189" y="676" type="curve" smooth="yes"/>
      <point x="134" y="676"/>
      <point x="57" y="676"/>
      <point x="15" y="679" type="curve"/>
      <point x="15" y="655"/>
      <point x="18" y="621"/>
      <point x="24" y="601" type="curve"/>
      <point x="79" y="595"/>
      <point x="89" y="582"/>
      <point x="89" y="488" type="curve" smooth="yes"/>
      <point x="89" y="62" type="line" smooth="yes"/>
      <point x="89" y="-78"/>
      <point x="58" y="-126"/>
      <point x="-15" y="-175" type="curve"/>
      <point x="-12" y="-204"/>
      <point x="-2" y="-231"/>
      <point x="22" y="-249" type="curve"/>
      <point x="248" y="-167"/>
      <point x="289" y="-50"/>
    </contour>
  </outline>
</glyph>
<glyph name="O" format="2">
  <advance width="761"/>
  <unicode hex="004F"/>
  <anchor x="381" y="0" name="bottom"/>
  <anchor x="386" y="350" name="center"/>
  <anchor x="529" y="20" name="ogonek"/>
  <anchor x="381" y="676" name="top"/>
  <anchor x="637" y="676" name="topright"/>
  <outline>
    <contour>
      <point x="380" y="-9" type="curve" smooth="yes"/>
      <point x="591" y="-9"/>
      <point x="726" y="139"/>
      <point x="726" y="354" type="curve" smooth="yes"/>
      <point x="726" y="555"/>
      <point x="589" y="685"/>
      <point x="380" y="685" type="curve" smooth="yes"/>
      <point x="178" y="685"/>
      <point x="35" y="554"/>
      <point x="35" y="341" type="curve" smooth="yes"/>
      <point x="35" y="132"/>
      <point x="164" y="-9"/>
    </contour>
    <contour>
      <point x="392" y="69" type="curve" smooth="yes"/>
      <point x="286" y="69"/>
      <point x="240" y="205"/>
      <point x="240" y="365" type="curve" smooth="yes"/>
      <point x="240" y="522"/>
      <point x="286" y="610"/>
      <point x="367" y="610" type="curve" smooth="yes"/>
      <point x="463" y="610"/>
      <point x="521" y="486"/>
      <point x="521" y="333" type="curve" smooth="yes"/>
      <point x="521" y="172"/>
      <point x="475" y="69"/>
    </contour>
  </outline>
</glyph>
<glyph name="T" format="2">
  <advance width="719"/>
  <unicode hex="0054"/>
  <anchor x="352" y="0" name="bottom"/>
  <anchor x="555" y="75" name="bottomright"/>
  <anchor x="360" y="350" name="center"/>
  <anchor x="360" y="676" name="top"/>
  <outline>
    <contour>
      <point x="255" y="601" type="curve" smooth="yes"/>
      <point x="477" y="601" type="line" smooth="yes"/>
      <point x="545" y="601"/>
      <point x="572" y="563"/>
      <point x="590" y="473" type="curve"/>
      <point x="631" y="473"/>
      <point x="667" y="478"/>
      <point x="694" y="489" type="curve"/>
      <point x="679" y="549"/>
      <point x="670" y="623"/>
      <point x="670" y="679" type="curve"/>
      <point x="587" y="677"/>
      <point x="506" y="676"/>
      <point x="363" y="676" type="curve" smooth="yes"/>
      <point x="201" y="676"/>
      <point x="134" y="676"/>
      <point x="50" y="679" type="curve"/>
      <point x="50" y="623"/>
      <point x="39" y="542"/>
      <point x="25" y="488" type="curve"/>
      <point x="53" y="475"/>
      <point x="91" y="473"/>
      <point x="128" y="473" type="curve"/>
      <point x="150" y="560"/>
      <point x="182" y="601"/>
    </contour>
    <contour>
      <point x="257" y="641" type="line"/>
      <point x="257" y="187" type="line" smooth="yes"/>
      <point x="257" y="95"/>
      <point x="234" y="79"/>
      <point x="151" y="75" type="curve"/>
      <point x="145" y="56"/>
      <point x="139" y="21"/>
      <point x="139" y="-3" type="curve"/>
      <point x="183" y="-1"/>
      <point x="285" y="0"/>
      <point x="370" y="0" type="curve" smooth="yes"/>
      <point x="455" y="0"/>
      <point x="528" y="-1"/>
      <point x="565" y="-3" type="curve"/>
      <point x="565" y="23"/>
      <point x="562" y="57"/>
      <point x="555" y="75" type="curve"/>
      <point x="473" y="79"/>
      <point x="457" y="95"/>
      <point x="457" y="187" type="curve" smooth="yes"/>
      <point x="457" y="641" type="line"/>
    </contour>
  </outline>
</glyph>
<glyph name="W" format="2">
  <advance width="985"/>
  <unicode hex="0057"/>
  <anchor x="494" y="0" name="bottom"/>
  <anchor x="494" y="281" name="center"/>
  <anchor x="548" y="676" name="top"/>
  <outline>
    <contour>
      <point x="42" y="677"/>
      <point x="10" y="679" type="curve"/>
      <point x="10" y="650"/>
      <point x="10" y="622"/>
      <point x="17" y="598" type="curve"/>
      <point x="50" y="595"/>
      <point x="56" y="584"/>
      <point x="96" y="467" type="curve" smooth="yes"/>
      <point x="137" y="341"/>
      <point x="190" y="170"/>
      <point x="243" y="-9" type="curve"/>
      <point x="268" y="-9"/>
      <point x="321" y="-8"/>
      <point x="347" y="-2" type="curve"/>
      <point x="507" y="449" type="line"/>
      <point x="463" y="449" type="line"/>
      <point x="532" y="280"/>
      <point x="580" y="157"/>
      <point x="640" y="-9" type="curve"/>
      <point x="674" y="-9"/>
      <point x="727" y="-6"/>
      <point x="748" y="0" type="curve"/>
      <point x="883" y="458" type="line" smooth="yes"/>
      <point x="914" y="562"/>
      <point x="930" y="588"/>
      <point x="966" y="601" type="curve"/>
      <point x="975" y="626"/>
      <point x="975" y="652"/>
      <point x="975" y="679" type="curve"/>
      <point x="948" y="677"/>
      <point x="897" y="676"/>
      <point x="866" y="676" type="curve" smooth="yes"/>
      <point x="830" y="676"/>
      <point x="774" y="677"/>
      <point x="746" y="679" type="curve"/>
      <point x="746" y="654"/>
      <point x="747" y="624"/>
      <point x="756" y="601" type="curve"/>
      <point x="820" y="590"/>
      <point x="837" y="558"/>
      <point x="807" y="458" type="curve" smooth="yes"/>
      <point x="732" y="208" type="line"/>
      <point x="772" y="208" type="line"/>
      <point x="709" y="379"/>
      <point x="658" y="512"/>
      <point x="589" y="684" type="curve"/>
      <point x="563" y="684"/>
      <point x="530" y="683"/>
      <point x="505" y="676" type="curve"/>
      <point x="339" y="208" type="line"/>
      <point x="386" y="208" type="line"/>
      <point x="354" y="324"/>
      <point x="329" y="408"/>
      <point x="304" y="484" type="curve" smooth="yes"/>
      <point x="272" y="573"/>
      <point x="281" y="592"/>
      <point x="342" y="601" type="curve"/>
      <point x="348" y="625"/>
      <point x="350" y="651"/>
      <point x="350" y="679" type="curve"/>
      <point x="303" y="676"/>
      <point x="209" y="676"/>
      <point x="178" y="676" type="curve" smooth="yes"/>
      <point x="147" y="676"/>
    </contour>
  </outline>
</glyph>
<glyph name="X" format="2">
  <advance width="730"/>
  <unicode hex="0058"/>
  <anchor x="701" y="75" name="bottomright"/>
  <anchor x="371" y="330" name="center"/>
  <anchor x="421" y="676" name="top"/>
  <outline>
    <contour>
      <point x="710" y="-3" type="curve"/>
      <point x="710" y="27"/>
      <point x="709" y="52"/>
      <point x="701" y="75" type="curve"/>
      <point x="650" y="83"/>
      <point x="633" y="94"/>
      <point x="544" y="241" type="curve" smooth="yes"/>
      <point x="521" y="281"/>
      <point x="444" y="405"/>
      <point x="377" y="506" type="curve" smooth="yes"/>
      <point x="327" y="582"/>
      <point x="337" y="594"/>
      <point x="378" y="601" type="curve"/>
      <point x="383" y="627"/>
      <point x="385" y="653"/>
      <point x="385" y="678" type="curve"/>
      <point x="354" y="677"/>
      <point x="299" y="676"/>
      <point x="238" y="676" type="curve" smooth="yes"/>
      <point x="177" y="676"/>
      <point x="66" y="677"/>
      <point x="31" y="679" type="curve"/>
      <point x="31" y="650"/>
      <point x="32" y="626"/>
      <point x="40" y="600" type="curve"/>
      <point x="77" y="593"/>
      <point x="92" y="583"/>
      <point x="153" y="491" type="curve" smooth="yes"/>
      <point x="218" y="392"/>
      <point x="296" y="268"/>
      <point x="326" y="217" type="curve" smooth="yes"/>
      <point x="401" y="90"/>
      <point x="398" y="79"/>
      <point x="353" y="75" type="curve"/>
      <point x="347" y="48"/>
      <point x="346" y="26"/>
      <point x="346" y="-2" type="curve"/>
      <point x="376" y="-1"/>
      <point x="460" y="0"/>
      <point x="523" y="0" type="curve" smooth="yes"/>
      <point x="586" y="0"/>
      <point x="681" y="-1"/>
    </contour>
    <contour>
      <point x="20" y="-3" type="curve"/>
      <point x="47" y="-1"/>
      <point x="107" y="0"/>
      <point x="144" y="0" type="curve" smooth="yes"/>
      <point x="181" y="0"/>
      <point x="237" y="-1"/>
      <point x="271" y="-3" type="curve"/>
      <point x="271" y="25"/>
      <point x="270" y="50"/>
      <point x="263" y="75" type="curve"/>
      <point x="213" y="84"/>
      <point x="211" y="103"/>
      <point x="274" y="197" type="curve" smooth="yes"/>
      <point x="341" y="295" type="line"/>
      <point x="278" y="334" type="line"/>
      <point x="183" y="199" type="line" smooth="yes"/>
      <point x="128" y="121"/>
      <point x="88" y="92"/>
      <point x="29" y="77" type="curve"/>
      <point x="22" y="59"/>
      <point x="20" y="27"/>
    </contour>
    <contour>
      <point x="448" y="328" type="line"/>
      <point x="556" y="492" type="line" smooth="yes"/>
      <point x="608" y="571"/>
      <point x="625" y="585"/>
      <point x="687" y="601" type="curve"/>
      <point x="693" y="625"/>
      <point x="694" y="650"/>
      <point x="694" y="679" type="curve"/>
      <point x="669" y="677"/>
      <point x="611" y="676"/>
      <point x="581" y="676" type="curve" smooth="yes"/>
      <point x="551" y="676"/>
      <point x="490" y="677"/>
      <point x="457" y="679" type="curve"/>
      <point x="457" y="653"/>
      <point x="458" y="623"/>
      <point x="464" y="601" type="curve"/>
      <point x="508" y="595"/>
      <point x="510" y="567"/>
      <point x="461" y="490" type="curve" smooth="yes"/>
      <point x="384" y="369" type="line"/>
    </contour>
  </outline>
</glyph>
<glyph name="Z" format="2">
  <advance width="586"/>
  <unicode hex="005A"/>
  <anchor x="293" y="0" name="bottom"/>
  <anchor x="300" y="676" name="top"/>
  <outline>
    <contour>
      <point x="118" y="676"/>
      <point x="68" y="678" type="curve"/>
      <point x="68" y="618"/>
      <point x="61" y="534"/>
      <point x="43" y="470" type="curve"/>
      <point x="68" y="459"/>
      <point x="107" y="456"/>
      <point x="149" y="456" type="curve"/>
      <point x="176" y="574"/>
      <point x="202" y="601"/>
      <point x="264" y="601" type="curve" smooth="yes"/>
      <point x="393" y="601" type="line"/>
      <point x="330" y="627" type="line"/>
      <point x="231" y="425"/>
      <point x="149" y="278"/>
      <point x="30" y="68" type="curve"/>
      <point x="30" y="40"/>
      <point x="38" y="14"/>
      <point x="50" y="-3" type="curve"/>
      <point x="111" y="-1"/>
      <point x="191" y="0"/>
      <point x="270" y="0" type="curve" smooth="yes"/>
      <point x="345" y="0"/>
      <point x="450" y="0"/>
      <point x="528" y="-3" type="curve"/>
      <point x="529" y="50"/>
      <point x="545" y="139"/>
      <point x="556" y="183" type="curve"/>
      <point x="528" y="199"/>
      <point x="491" y="209"/>
      <point x="448" y="212" type="curve"/>
      <point x="419" y="100"/>
      <point x="387" y="75"/>
      <point x="300" y="75" type="curve" smooth="yes"/>
      <point x="203" y="75" type="line"/>
      <point x="245" y="42" type="line"/>
      <point x="364" y="246"/>
      <point x="445" y="400"/>
      <point x="545" y="608" type="curve"/>
      <point x="543" y="637"/>
      <point x="536" y="658"/>
      <point x="524" y="678" type="curve"/>
      <point x="463" y="676"/>
      <point x="368" y="676"/>
      <point x="302" y="676" type="curve" smooth="yes"/>
      <point x="236" y="676"/>
    </contour>
  </outline>
</glyph>
<glyph name="bracketright" format="2">
  <advance width="311"/>
  <unicode hex="005D"/>
  <outline>
    <contour>
      <point x="276" y="-269" type="curve"/>
      <point x="276" y="742" type="line"/>
      <point x="240" y="741"/>
      <point x="209" y="741"/>
      <point x="180" y="741" type="curve" smooth="yes"/>
      <point x="140" y="741"/>
      <point x="104" y="741"/>
      <point x="59" y="742" type="curve"/>
      <point x="47" y="717"/>
      <point x="47" y="690"/>
      <point x="47" y="659" type="curve"/>
      <point x="134" y="652"/>
      <point x="149" y="640"/>
      <point x="149" y="575" type="curve" smooth="yes"/>
      <point x="149" y="-96" type="line" smooth="yes"/>
      <point x="149" y="-165"/>
      <point x="136" y="-180"/>
      <point x="58" y="-184" type="curve"/>
      <point x="47" y="-215"/>
      <point x="47" y="-237"/>
      <point x="47" y="-269" type="curve"/>
      <point x="91" y="-268"/>
      <point x="125" y="-267"/>
      <point x="156" y="-267" type="curve" smooth="yes"/>
      <point x="193" y="-267"/>
      <point x="228" y="-268"/>
    </contour>
  </outline>
</glyph>
<glyph name="asciicircum" format="2">
  <advance width="550"/>
  <unicode hex="005E"/>
  <outline>
    <contour>
      <point x="276" y="608" type="curve"/>
      <point x="434" y="384" type="line"/>
      <point x="463" y="382"/>
      <point x="494" y="388"/>
      <point x="515" y="405" type="curve"/>
      <point x="456" y="487"/>
      <point x="366" y="619"/>
      <point x="310" y="708" type="curve"/>
      <point x="276" y="708"/>
      <point x="255" y="705"/>
      <point x="238" y="698" type="curve"/>
      <point x="35" y="438" type="line"/>
      <point x="37" y="415"/>
      <point x="61" y="384"/>
      <point x="86" y="368" type="curve"/>
      <point x="144" y="451"/>
      <point x="203" y="524"/>
    </contour>
  </outline>
</glyph>
<glyph name="b" format="2">
  <advance width="648"/>
  <unicode hex="0062"/>
  <anchor x="324" y="0" name="bottom"/>
  <anchor x="164" y="507" name="center"/>
  <anchor x="206" y="708" name="top"/>
  <outline>
    <contour>
      <point x="251" y="108" type="curve"/>
      <point x="259" y="79" type="line"/>
      <point x="259" y="217" type="line" smooth="yes"/>
      <point x="259" y="330"/>
      <point x="305" y="369"/>
      <point x="349" y="369" type="curve" smooth="yes"/>
      <point x="412" y="369"/>
      <point x="427" y="299"/>
      <point x="427" y="236" type="curve" smooth="yes"/>
      <point x="427" y="90"/>
      <point x="368" y="62"/>
      <point x="322" y="62" type="curve" smooth="yes"/>
      <point x="291" y="62"/>
      <point x="271" y="77"/>
    </contour>
    <contour>
      <point x="212" y="-9"/>
      <point x="325" y="-9" type="curve" smooth="yes"/>
      <point x="502" y="-9"/>
      <point x="618" y="99"/>
      <point x="618" y="265" type="curve" smooth="yes"/>
      <point x="618" y="407"/>
      <point x="528" y="467"/>
      <point x="413" y="467" type="curve" smooth="yes"/>
      <point x="358" y="467"/>
      <point x="310" y="447"/>
      <point x="285" y="428" type="curve" smooth="yes"/>
      <point x="260" y="409"/>
      <point x="236" y="378"/>
      <point x="211" y="318" type="curve"/>
      <point x="236" y="322" type="line"/>
      <point x="250" y="384" type="line"/>
      <point x="256" y="416"/>
      <point x="259" y="434"/>
      <point x="259" y="480" type="curve" smooth="yes"/>
      <point x="259" y="653" type="line" smooth="yes"/>
      <point x="259" y="688"/>
      <point x="246" y="707"/>
      <point x="224" y="717" type="curve"/>
      <point x="192" y="701"/>
      <point x="107" y="684"/>
      <point x="8" y="684" type="curve"/>
      <point x="-3" y="663"/>
      <point x="-5" y="634"/>
      <point x="-5" y="609" type="curve"/>
      <point x="55" y="603"/>
      <point x="69" y="585"/>
      <point x="69" y="539" type="curve" smooth="yes"/>
      <point x="69" y="161" type="line" smooth="yes"/>
      <point x="69" y="116"/>
      <point x="62" y="85"/>
      <point x="45" y="65" type="curve"/>
      <point x="88" y="20"/>
    </contour>
  </outline>
</glyph>
<glyph name="e" format="2">
  <advance width="545"/>
  <unicode hex="0065"/>
  <anchor x="303" y="0" name="bottom"/>
  <anchor x="30" y="224" name="left"/>
  <anchor x="436" y="14" name="ogonek"/>
  <anchor x="286" y="458" name="top"/>
  <outline>
    <contour>
      <point x="297" y="-9" type="curve" smooth="yes"/>
      <point x="389" y="-9"/>
      <point x="454" y="14"/>
      <point x="509" y="52" type="curve"/>
      <point x="509" y="81"/>
      <point x="497" y="112"/>
      <point x="482" y="121" type="curve"/>
      <point x="453" y="99"/>
      <point x="400" y="83"/>
      <point x="352" y="83" type="curve" smooth="yes"/>
      <point x="256" y="83"/>
      <point x="218" y="148"/>
      <point x="218" y="255" type="curve" smooth="yes"/>
      <point x="218" y="339"/>
      <point x="241" y="393"/>
      <point x="287" y="393" type="curve" smooth="yes"/>
      <point x="328" y="393"/>
      <point x="349" y="349"/>
      <point x="349" y="259" type="curve"/>
      <point x="175" y="259" type="line"/>
      <point x="175" y="180" type="line"/>
      <point x="273" y="188"/>
      <point x="393" y="189"/>
      <point x="481" y="189" type="curve"/>
      <point x="496" y="203"/>
      <point x="508" y="224"/>
      <point x="514" y="248" type="curve"/>
      <point x="511" y="380"/>
      <point x="440" y="467"/>
      <point x="284" y="467" type="curve" smooth="yes"/>
      <point x="129" y="467"/>
      <point x="30" y="377"/>
      <point x="30" y="224" type="curve" smooth="yes"/>
      <point x="30" y="90"/>
      <point x="105" y="-9"/>
    </contour>
  </outline>
</glyph>
<glyph name="m" format="2">
  <advance width="1042"/>
  <unicode hex="006D"/>
  <anchor x="521" y="0" name="bottom"/>
  <anchor x="521" y="229" name="center"/>
  <anchor x="521" y="458" name="top"/>
  <outline>
    <contour>
      <point x="32" y="-3" type="curve"/>
      <point x="60" y="0"/>
      <point x="139" y="0"/>
      <point x="189" y="0" type="curve" smooth="yes"/>
      <point x="239" y="0"/>
      <point x="323" y="0"/>
      <point x="354" y="-3" type="curve"/>
      <point x="354" y="25"/>
      <point x="352" y="54"/>
      <point x="344" y="75" type="curve"/>
      <point x="304" y="78"/>
      <point x="296" y="95"/>
      <point x="296" y="168" type="curve" smooth="yes"/>
      <point x="296" y="190" type="line" smooth="yes"/>
      <point x="296" y="274"/>
      <point x="329" y="345"/>
      <point x="380" y="345" type="curve" smooth="yes"/>
      <point x="421" y="345"/>
      <point x="439" y="322"/>
      <point x="439" y="256" type="curve" smooth="yes"/>
      <point x="439" y="210" type="line" smooth="yes"/>
      <point x="439" y="91"/>
      <point x="429" y="78"/>
      <point x="388" y="75" type="curve"/>
      <point x="381" y="55"/>
      <point x="378" y="25"/>
      <point x="378" y="-3" type="curve"/>
      <point x="414" y="0"/>
      <point x="478" y="0"/>
      <point x="535" y="0" type="curve" smooth="yes"/>
      <point x="592" y="0"/>
      <point x="656" y="0"/>
      <point x="687" y="-3" type="curve"/>
      <point x="687" y="25"/>
      <point x="684" y="56"/>
      <point x="677" y="75" type="curve"/>
      <point x="636" y="78"/>
      <point x="627" y="100"/>
      <point x="627" y="168" type="curve" smooth="yes"/>
      <point x="627" y="190" type="line" smooth="yes"/>
      <point x="627" y="284"/>
      <point x="657" y="345"/>
      <point x="716" y="345" type="curve" smooth="yes"/>
      <point x="748" y="345"/>
      <point x="768" y="324"/>
      <point x="768" y="245" type="curve" smooth="yes"/>
      <point x="768" y="200" type="line" smooth="yes"/>
      <point x="768" y="97"/>
      <point x="753" y="77"/>
      <point x="719" y="75" type="curve"/>
      <point x="713" y="50"/>
      <point x="711" y="30"/>
      <point x="711" y="-3" type="curve"/>
      <point x="747" y="-1"/>
      <point x="820" y="0"/>
      <point x="872" y="0" type="curve" smooth="yes"/>
      <point x="924" y="0"/>
      <point x="976" y="0"/>
      <point x="1012" y="-3" type="curve"/>
      <point x="1012" y="25"/>
      <point x="1010" y="52"/>
      <point x="1002" y="75" type="curve"/>
      <point x="960" y="78"/>
      <point x="958" y="90"/>
      <point x="958" y="210" type="curve" smooth="yes"/>
      <point x="958" y="283" type="line" smooth="yes"/>
      <point x="958" y="408"/>
      <point x="900" y="459"/>
      <point x="785" y="459" type="curve" smooth="yes"/>
      <point x="736" y="459"/>
      <point x="694" y="442"/>
      <point x="664" y="413" type="curve" smooth="yes"/>
      <point x="648" y="399"/>
      <point x="631" y="372"/>
      <point x="617" y="337" type="curve"/>
      <point x="623" y="337" type="line"/>
      <point x="623" y="355"/>
      <point x="618" y="370"/>
      <point x="606" y="389" type="curve" smooth="yes"/>
      <point x="578" y="436"/>
      <point x="526" y="465"/>
      <point x="458" y="465" type="curve" smooth="yes"/>
      <point x="404" y="465"/>
      <point x="356" y="442"/>
      <point x="323" y="409" type="curve" smooth="yes"/>
      <point x="307" y="393"/>
      <point x="293" y="366"/>
      <point x="265" y="296" type="curve"/>
      <point x="270" y="296" type="line"/>
      <point x="289" y="359"/>
      <point x="296" y="378"/>
      <point x="296" y="403" type="curve" smooth="yes"/>
      <point x="296" y="440"/>
      <point x="281" y="461"/>
      <point x="262" y="467" type="curve"/>
      <point x="221" y="447"/>
      <point x="131" y="434"/>
      <point x="48" y="434" type="curve"/>
      <point x="37" y="409"/>
      <point x="34" y="383"/>
      <point x="34" y="359" type="curve"/>
      <point x="101" y="352"/>
      <point x="106" y="337"/>
      <point x="106" y="255" type="curve" smooth="yes"/>
      <point x="106" y="162" type="line" smooth="yes"/>
      <point x="106" y="95"/>
      <point x="96" y="78"/>
      <point x="42" y="74" type="curve"/>
      <point x="34" y="52"/>
      <point x="32" y="25"/>
    </contour>
  </outline>
</glyph>
<glyph name="p" format="2">
  <advance width="685"/>
  <unicode hex="0070"/>
  <anchor x="234" y="-242" name="bottom"/>
  <anchor x="201" y="-66" name="center"/>
  <anchor x="345" y="458" name="top"/>
  <outline>
    <contour>
      <point x="32" y="-245" type="curve"/>
      <point x="78" y="-243"/>
      <point x="162" y="-242"/>
      <point x="234" y="-242" type="curve" smooth="yes"/>
      <point x="297" y="-242"/>
      <point x="376" y="-243"/>
      <point x="414" y="-245" type="curve"/>
      <point x="414" y="-220"/>
      <point x="413" y="-189"/>
      <point x="405" y="-167" type="curve"/>
      <point x="321" y="-161"/>
      <point x="296" y="-131"/>
      <point x="296" y="-45" type="curve" smooth="yes"/>
      <point x="296" y="326" type="line"/>
      <point x="278" y="348" type="line"/>
      <point x="290" y="372"/>
      <point x="296" y="395"/>
      <point x="296" y="403" type="curve" smooth="yes"/>
      <point x="296" y="438"/>
      <point x="284" y="457"/>
      <point x="262" y="467" type="curve"/>
      <point x="230" y="451"/>
      <point x="147" y="434"/>
      <point x="48" y="434" type="curve"/>
      <point x="37" y="413"/>
      <point x="35" y="384"/>
      <point x="35" y="359" type="curve"/>
      <point x="100" y="353"/>
      <point x="106" y="335"/>
      <point x="106" y="270" type="curve" smooth="yes"/>
      <point x="106" y="-55" type="line" smooth="yes"/>
      <point x="106" y="-147"/>
      <point x="93" y="-163"/>
      <point x="39" y="-167" type="curve"/>
      <point x="34" y="-186"/>
      <point x="32" y="-209"/>
    </contour>
    <contour>
      <point x="360" y="-9" type="curve" smooth="yes"/>
      <point x="537" y="-9"/>
      <point x="655" y="99"/>
      <point x="655" y="265" type="curve" smooth="yes"/>
      <point x="655" y="407"/>
      <point x="565" y="467"/>
      <point x="450" y="467" type="curve" smooth="yes"/>
      <point x="395" y="467"/>
      <point x="347" y="447"/>
      <point x="322" y="428" type="curve" smooth="yes"/>
      <point x="297" y="409"/>
      <point x="273" y="378"/>
      <point x="248" y="318" type="curve"/>
      <point x="296" y="218" type="line"/>
      <point x="296" y="330"/>
      <point x="342" y="369"/>
      <point x="386" y="369" type="curve" smooth="yes"/>
      <point x="449" y="369"/>
      <point x="464" y="300"/>
      <point x="464" y="236" type="curve" smooth="yes"/>
      <point x="464" y="89"/>
      <point x="405" y="62"/>
      <point x="359" y="62" type="curve" smooth="yes"/>
      <point x="328" y="62"/>
      <point x="308" y="77"/>
      <point x="288" y="108" type="curve"/>
      <point x="288" y="0" type="line"/>
      <point x="314" y="-7"/>
      <point x="336" y="-9"/>
    </contour>
  </outline>
</glyph>
<glyph name="s" format="2">
  <advance width="493"/>
  <unicode hex="0073"/>
  <anchor x="242" y="0" name="bottom"/>
  <anchor x="235" y="241" name="center"/>
  <anchor x="245" y="458" name="top"/>
  <outline>
    <contour>
      <point x="419" y="402"/>
      <point x="421" y="438" type="curve"/>
      <point x="374" y="458"/>
      <point x="325" y="467"/>
      <point x="245" y="467" type="curve" smooth="yes"/>
      <point x="119" y="467"/>
      <point x="40" y="425"/>
      <point x="40" y="334" type="curve" smooth="yes"/>
      <point x="40" y="243"/>
      <point x="100" y="208"/>
      <point x="181" y="178" type="curve" smooth="yes"/>
      <point x="251" y="151"/>
      <point x="267" y="135"/>
      <point x="267" y="107" type="curve" smooth="yes"/>
      <point x="267" y="83"/>
      <point x="246" y="71"/>
      <point x="219" y="71" type="curve" smooth="yes"/>
      <point x="178" y="71"/>
      <point x="145" y="104"/>
      <point x="139" y="170" type="curve"/>
      <point x="106" y="170"/>
      <point x="62" y="162"/>
      <point x="38" y="148" type="curve"/>
      <point x="41" y="116"/>
      <point x="42" y="66"/>
      <point x="36" y="24" type="curve"/>
      <point x="92" y="2"/>
      <point x="144" y="-9"/>
      <point x="230" y="-9" type="curve" smooth="yes"/>
      <point x="379" y="-9"/>
      <point x="463" y="39"/>
      <point x="463" y="134" type="curve" smooth="yes"/>
      <point x="463" y="197"/>
      <point x="427" y="233"/>
      <point x="310" y="281" type="curve" smooth="yes"/>
      <point x="219" y="319"/>
      <point x="210" y="335"/>
      <point x="210" y="358" type="curve" smooth="yes"/>
      <point x="210" y="377"/>
      <point x="223" y="390"/>
      <point x="245" y="390" type="curve" smooth="yes"/>
      <point x="299" y="390"/>
      <point x="320" y="354"/>
      <point x="327" y="307" type="curve"/>
      <point x="364" y="307"/>
      <point x="403" y="316"/>
      <point x="426" y="330" type="curve"/>
      <point x="421" y="365"/>
    </contour>
  </outline>
</glyph>
<glyph name="u" format="2">
  <advance width="653"/>
  <unicode hex="0075"/>
  <anchor x="328" y="0" name="bottom"/>
  <anchor x="638" y="104" name="bottomright"/>
  <anchor x="328" y="248" name="center"/>
  <anchor x="627" y="25" name="ogonek"/>
  <anchor x="332" y="458" name="top"/>
  <anchor x="548" y="467" name="topright"/>
  <outline>
    <contour>
      <point x="235" y="-7" type="curve" smooth="yes"/>
      <point x="301" y="-7"/>
      <point x="352" y="13"/>
      <point x="378" y="36" type="curve" smooth="yes"/>
      <point x="394" y="50"/>
      <point x="406" y="70"/>
      <point x="416" y="99" type="curve"/>
      <point x="582" y="134" type="line"/>
      <point x="582" y="403" type="line" smooth="yes"/>
      <point x="582" y="438"/>
      <point x="570" y="457"/>
      <point x="548" y="467" type="curve"/>
      <point x="516" y="451"/>
      <point x="433" y="439"/>
      <point x="334" y="439" type="curve"/>
      <point x="323" y="418"/>
      <point x="321" y="389"/>
      <point x="321" y="364" type="curve"/>
      <point x="381" y="359"/>
      <point x="392" y="340"/>
      <point x="392" y="275" type="curve" smooth="yes"/>
      <point x="392" y="246" type="line" smooth="yes"/>
      <point x="392" y="143"/>
      <point x="352" y="96"/>
      <point x="310" y="96" type="curve" smooth="yes"/>
      <point x="282" y="96"/>
      <point x="267" y="117"/>
      <point x="267" y="207" type="curve" smooth="yes"/>
      <point x="267" y="403" type="line" smooth="yes"/>
      <point x="267" y="438"/>
      <point x="255" y="457"/>
      <point x="233" y="467" type="curve"/>
      <point x="201" y="451"/>
      <point x="127" y="434"/>
      <point x="28" y="434" type="curve"/>
      <point x="17" y="413"/>
      <point x="15" y="384"/>
      <point x="15" y="359" type="curve"/>
      <point x="70" y="353"/>
      <point x="77" y="335"/>
      <point x="77" y="270" type="curve" smooth="yes"/>
      <point x="77" y="181" type="line" smooth="yes"/>
      <point x="77" y="41"/>
      <point x="133" y="-7"/>
    </contour>
    <contour>
      <point x="447" y="-9" type="curve"/>
      <point x="503" y="13"/>
      <point x="565" y="24"/>
      <point x="627" y="25" type="curve"/>
      <point x="640" y="48"/>
      <point x="643" y="75"/>
      <point x="638" y="104" type="curve"/>
      <point x="590" y="106"/>
      <point x="582" y="117"/>
      <point x="582" y="196" type="curve"/>
      <point x="424" y="124" type="line"/>
      <point x="417" y="109"/>
      <point x="409" y="74"/>
      <point x="409" y="48" type="curve" smooth="yes"/>
      <point x="409" y="21"/>
      <point x="418" y="2"/>
    </contour>
  </outline>
</glyph>
<glyph name="x" format="2">
  <advance width="607"/>
  <unicode hex="0078"/>
  <anchor x="571" y="77" name="bottomright"/>
  <anchor x="308" y="233" name="center"/>
  <anchor x="301" y="458" name="top"/>
  <outline>
    <contour>
      <point x="288" y="237" type="line"/>
      <point x="208" y="281" type="line"/>
      <point x="140" y="179" type="line" smooth="yes"/>
      <point x="79" y="87"/>
      <point x="66" y="77"/>
      <point x="37" y="75" type="curve"/>
      <point x="29" y="55"/>
      <point x="25" y="28"/>
      <point x="25" y="-2" type="curve"/>
      <point x="46" y="0"/>
      <point x="85" y="0"/>
      <point x="118" y="0" type="curve" smooth="yes"/>
      <point x="151" y="0"/>
      <point x="193" y="0"/>
      <point x="220" y="-2" type="curve"/>
      <point x="220" y="31"/>
      <point x="220" y="52"/>
      <point x="212" y="75" type="curve"/>
      <point x="193" y="80"/>
      <point x="196" y="96"/>
      <point x="236" y="158" type="curve" smooth="yes"/>
    </contour>
    <contour>
      <point x="246" y="171"/>
      <point x="259" y="149" type="curve" smooth="yes"/>
      <point x="292" y="94"/>
      <point x="287" y="80"/>
      <point x="265" y="75" type="curve"/>
      <point x="259" y="56"/>
      <point x="256" y="33"/>
      <point x="256" y="-2" type="curve"/>
      <point x="292" y="0"/>
      <point x="419" y="0"/>
      <point x="474" y="0" type="curve" smooth="yes"/>
      <point x="529" y="0"/>
      <point x="551" y="2"/>
      <point x="582" y="0" type="curve"/>
      <point x="582" y="30"/>
      <point x="579" y="55"/>
      <point x="571" y="77" type="curve"/>
      <point x="534" y="80"/>
      <point x="518" y="97"/>
      <point x="475" y="167" type="curve" smooth="yes"/>
      <point x="459" y="193"/>
      <point x="442" y="219"/>
      <point x="422" y="248" type="curve"/>
      <point x="382" y="259" type="line"/>
      <point x="368" y="284"/>
      <point x="359" y="298"/>
      <point x="344" y="321" type="curve" smooth="yes"/>
      <point x="313" y="369"/>
      <point x="315" y="381"/>
      <point x="343" y="383" type="curve"/>
      <point x="348" y="399"/>
      <point x="351" y="434"/>
      <point x="351" y="460" type="curve"/>
      <point x="307" y="458"/>
      <point x="242" y="458"/>
      <point x="184" y="458" type="curve" smooth="yes"/>
      <point x="126" y="458"/>
      <point x="68" y="458"/>
      <point x="27" y="460" type="curve"/>
      <point x="27" y="435"/>
      <point x="31" y="405"/>
      <point x="38" y="383" type="curve"/>
      <point x="69" y="380"/>
      <point x="85" y="372"/>
      <point x="101" y="350" type="curve" smooth="yes"/>
      <point x="131" y="311"/>
      <point x="167" y="258"/>
      <point x="195" y="206" type="curve"/>
      <point x="226" y="200" type="line"/>
      <point x="244" y="176"/>
    </contour>
    <contour>
      <point x="341" y="249" type="line"/>
      <point x="412" y="203" type="line"/>
      <point x="495" y="327" type="line" smooth="yes"/>
      <point x="525" y="372"/>
      <point x="534" y="380"/>
      <point x="564" y="383" type="curve"/>
      <point x="572" y="406"/>
      <point x="575" y="431"/>
      <point x="575" y="460" type="curve"/>
      <point x="544" y="458"/>
      <point x="527" y="458"/>
      <point x="487" y="458" type="curve" smooth="yes"/>
      <point x="447" y="458"/>
      <point x="420" y="458"/>
      <point x="385" y="460" type="curve"/>
      <point x="385" y="431"/>
      <point x="389" y="401"/>
      <point x="396" y="383" type="curve"/>
      <point x="420" y="378"/>
      <point x="419" y="367"/>
      <point x="390" y="323" type="curve" smooth="yes"/>
    </contour>
  </outline>
</glyph>
<glyph name="y" format="2">
  <advance width="579"/>
  <unicode hex="0079"/>
  <anchor x="447" y="0" name="bottom"/>
  <anchor x="344" y="458" name="top"/>
  <outline>
    <contour>
      <point x="404" y="298" type="curve" smooth="yes"/>
      <point x="335" y="124" type="line" smooth="yes"/>
      <point x="293" y="17"/>
      <point x="260" y="-51"/>
      <point x="252" y="-63" type="curve" smooth="yes"/>
      <point x="230" y="-97"/>
      <point x="210" y="-106"/>
      <point x="163" y="-106" type="curve" smooth="yes"/>
      <point x="113" y="-106"/>
      <point x="70" y="-96"/>
      <point x="47" y="-87" type="curve"/>
      <point x="34" y="-121"/>
      <point x="30" y="-169"/>
      <point x="34" y="-195" type="curve"/>
      <point x="55" y="-226"/>
      <point x="104" y="-249"/>
      <point x="148" y="-249" type="curve" smooth="yes"/>
      <point x="218" y="-249"/>
      <point x="267" y="-219"/>
      <point x="343" y="-37" type="curve" smooth="yes"/>
      <point x="490" y="313" type="line" smooth="yes"/>
      <point x="511" y="361"/>
      <point x="525" y="375"/>
      <point x="556" y="383" type="curve"/>
      <point x="565" y="405"/>
      <point x="569" y="438"/>
      <point x="569" y="462" type="curve"/>
      <point x="539" y="459"/>
      <point x="507" y="458"/>
      <point x="474" y="458" type="curve" smooth="yes"/>
      <point x="443" y="458"/>
      <point x="404" y="459"/>
      <point x="373" y="461" type="curve"/>
      <point x="373" y="433"/>
      <point x="377" y="401"/>
      <point x="384" y="383" type="curve"/>
      <point x="421" y="377"/>
      <point x="430" y="361"/>
    </contour>
    <contour>
      <point x="259" y="-59" type="curve"/>
      <point x="377" y="108" type="line"/>
      <point x="355" y="187"/>
      <point x="328" y="251"/>
      <point x="299" y="307" type="curve" smooth="yes"/>
      <point x="270" y="363"/>
      <point x="273" y="375"/>
      <point x="322" y="383" type="curve"/>
      <point x="329" y="399"/>
      <point x="334" y="435"/>
      <point x="334" y="461" type="curve"/>
      <point x="293" y="459"/>
      <point x="222" y="458"/>
      <point x="163" y="458" type="curve" smooth="yes"/>
      <point x="107" y="458"/>
      <point x="48" y="459"/>
      <point x="10" y="461" type="curve"/>
      <point x="10" y="437"/>
      <point x="13" y="403"/>
      <point x="20" y="383" type="curve"/>
      <point x="45" y="378"/>
      <point x="62" y="370"/>
      <point x="87" y="319" type="curve" smooth="yes"/>
      <point x="141" y="210"/>
      <point x="208" y="63"/>
    </contour>
  </outline>
</glyph>
<glyph name="braceright" format="2">
  <advance width="423"/>
  <unicode hex="007D"/>
  <outline>
    <contour>
      <point x="65" y="-283" type="curve"/>
      <point x="252" y="-255"/>
      <point x="290" y="-160"/>
      <point x="292" y="-69" type="curve" smooth="yes"/>
      <point x="293" y="-21"/>
      <point x="286" y="28"/>
      <point x="287" y="73" type="curve" smooth="yes"/>
      <point x="289" y="136"/>
      <point x="307" y="188"/>
      <point x="388" y="213" type="curve"/>
      <point x="388" y="225"/>
      <point x="388" y="263"/>
      <point x="383" y="275" type="curve"/>
      <point x="306" y="300"/>
      <point x="287" y="348"/>
      <point x="285" y="405" type="curve" smooth="yes"/>
      <point x="284" y="452"/>
      <point x="294" y="504"/>
      <point x="293" y="555" type="curve" smooth="yes"/>
      <point x="291" y="641"/>
      <point x="262" y="716"/>
      <point x="78" y="754" type="curve"/>
      <point x="61" y="740"/>
      <point x="57" y="709"/>
      <point x="57" y="685" type="curve"/>
      <point x="125" y="663"/>
      <point x="142" y="617"/>
      <point x="141" y="564" type="curve" smooth="yes"/>
      <point x="140" y="505"/>
      <point x="118" y="437"/>
      <point x="118" y="378" type="curve" smooth="yes"/>
      <point x="118" y="313"/>
      <point x="145" y="261"/>
      <point x="257" y="246" type="curve"/>
      <point x="146" y="230"/>
      <point x="118" y="175"/>
      <point x="117" y="109" type="curve" smooth="yes"/>
      <point x="116" y="49"/>
      <point x="136" y="-21"/>
      <point x="137" y="-80" type="curve" smooth="yes"/>
      <point x="138" y="-136"/>
      <point x="121" y="-183"/>
      <point x="51" y="-203" type="curve"/>
      <point x="43" y="-228"/>
      <point x="46" y="-258"/>
    </contour>
  </outline>
</glyph>
<glyph name="sterling" format="2">
  <advance width="598"/>
  <unicode hex="00A3"/>
  <outline>
    <contour>
      <point x="533" y="226"/>
      <point x="500" y="231" type="curve"/>
      <point x="486" y="205"/>
      <point x="477" y="198"/>
      <point x="458" y="198" type="curve" smooth="yes"/>
      <point x="437" y="198"/>
      <point x="433" y="214"/>
      <point x="389" y="214" type="curve" smooth="yes"/>
      <point x="324" y="214"/>
      <point x="227" y="148"/>
      <point x="125" y="68" type="curve"/>
      <point x="132" y="62" type="line"/>
      <point x="233" y="129"/>
      <point x="344" y="256"/>
      <point x="344" y="333" type="curve" smooth="yes"/>
      <point x="344" y="436"/>
      <point x="268" y="458"/>
      <point x="268" y="540" type="curve" smooth="yes"/>
      <point x="268" y="581"/>
      <point x="288" y="606"/>
      <point x="323" y="606" type="curve" smooth="yes"/>
      <point x="374" y="606"/>
      <point x="392" y="575"/>
      <point x="402" y="488" type="curve"/>
      <point x="447" y="488"/>
      <point x="492" y="490"/>
      <point x="529" y="507" type="curve"/>
      <point x="526" y="558"/>
      <point x="530" y="612"/>
      <point x="535" y="653" type="curve"/>
      <point x="491" y="677"/>
      <point x="395" y="685"/>
      <point x="339" y="685" type="curve" smooth="yes"/>
      <point x="158" y="685"/>
      <point x="63" y="614"/>
      <point x="63" y="507" type="curve" smooth="yes"/>
      <point x="63" y="377"/>
      <point x="132" y="360"/>
      <point x="132" y="238" type="curve" smooth="yes"/>
      <point x="132" y="166"/>
      <point x="109" y="108"/>
      <point x="30" y="57" type="curve"/>
      <point x="37" y="31"/>
      <point x="54" y="6"/>
      <point x="75" y="-8" type="curve"/>
      <point x="119" y="30"/>
      <point x="169" y="43"/>
      <point x="221" y="43" type="curve" smooth="yes"/>
      <point x="260" y="43"/>
      <point x="307" y="34"/>
      <point x="369" y="11" type="curve" smooth="yes"/>
      <point x="407" y="-3"/>
      <point x="443" y="-9"/>
      <point x="495" y="-9" type="curve"/>
      <point x="510" y="52"/>
      <point x="535" y="117"/>
      <point x="583" y="185" type="curve"/>
      <point x="570" y="204"/>
    </contour>
    <contour>
      <point x="176" y="292"/>
      <point x="258" y="292" type="curve" smooth="yes"/>
      <point x="314" y="292"/>
      <point x="389" y="290"/>
      <point x="433" y="289" type="curve"/>
      <point x="446" y="315"/>
      <point x="448" y="342"/>
      <point x="448" y="373" type="curve"/>
      <point x="55" y="373" type="line"/>
      <point x="43" y="349"/>
      <point x="39" y="317"/>
      <point x="39" y="288" type="curve"/>
      <point x="78" y="289"/>
    </contour>
  </outline>
</glyph>
<glyph name="brokenbar" format="2">
  <advance width="207"/>
  <unicode hex="00A6"/>
  <outline>
    <contour>
      <point x="60" y="-249" type="line"/>
      <point x="85" y="-249"/>
      <point x="130" y="-244"/>
      <point x="147" y="-233" type="curve"/>
      <point x="145" y="-163"/>
      <point x="145" y="-92"/>
      <point x="145" y="-22" type="curve" smooth="yes"/>
      <point x="145" y="46"/>
      <point x="145" y="114"/>
      <point x="147" y="183" type="curve"/>
      <point x="111" y="183"/>
      <point x="88" y="180"/>
      <point x="60" y="167" type="curve"/>
    </contour>
    <contour>
      <point x="60" y="304" type="line"/>
      <point x="88" y="304"/>
      <point x="121" y="308"/>
      <point x="147" y="320" type="curve"/>
      <point x="145" y="384"/>
      <point x="145" y="449"/>
      <point x="145" y="514" type="curve" smooth="yes"/>
      <point x="145" y="582"/>
      <point x="145" y="649"/>
      <point x="147" y="717" type="curve"/>
      <point x="118" y="717"/>
      <point x="87" y="713"/>
      <point x="60" y="701" type="curve"/>
    </contour>
  </outline>
</glyph>
<glyph name="copyright" format="2">
  <advance width="814"/>
  <unicode hex="00A9"/>
  <outline>
    <contour>
      <point x="407" y="577" type="curve" smooth="yes"/>
      <point x="212" y="577"/>
      <point x="60" y="425"/>
      <point x="60" y="230" type="curve" smooth="yes"/>
      <point x="60" y="34"/>
      <point x="210" y="-117"/>
      <point x="407" y="-117" type="curve" smooth="yes"/>
      <point x="600" y="-117"/>
      <point x="754" y="36"/>
      <point x="754" y="230" type="curve" smooth="yes"/>
      <point x="754" y="425"/>
      <point x="600" y="577"/>
    </contour>
    <contour>
      <point x="422" y="453" type="curve" smooth="yes"/>
      <point x="284" y="453"/>
      <point x="203" y="363"/>
      <point x="203" y="228" type="curve" smooth="yes"/>
      <point x="203" y="83"/>
      <point x="294" y="5"/>
      <point x="399" y="5" type="curve" smooth="yes"/>
      <point x="476" y="5"/>
      <point x="527" y="33"/>
      <point x="562" y="65" type="curve"/>
      <point x="562" y="89"/>
      <point x="549" y="111"/>
      <point x="534" y="121" type="curve"/>
      <point x="507" y="96"/>
      <point x="476" y="84"/>
      <point x="447" y="84" type="curve" smooth="yes"/>
      <point x="379" y="84"/>
      <point x="357" y="161"/>
      <point x="357" y="250" type="curve" smooth="yes"/>
      <point x="357" y="342"/>
      <point x="373" y="384"/>
      <point x="413" y="384" type="curve" smooth="yes"/>
      <point x="456" y="384"/>
      <point x="478" y="348"/>
      <point x="484" y="282" type="curve"/>
      <point x="507" y="282"/>
      <point x="532" y="286"/>
      <point x="553" y="297" type="curve"/>
      <point x="553" y="333"/>
      <point x="554" y="381"/>
      <point x="560" y="417" type="curve"/>
      <point x="518" y="440"/>
      <point x="476" y="453"/>
    </contour>
    <contour>
      <point x="407" y="510" type="curve" smooth="yes"/>
      <point x="565" y="510"/>
      <point x="687" y="388"/>
      <point x="687" y="230" type="curve" smooth="yes"/>
      <point x="687" y="73"/>
      <point x="565" y="-49"/>
      <point x="407" y="-49" type="curve" smooth="yes"/>
      <point x="249" y="-49"/>
      <point x="127" y="72"/>
      <point x="127" y="230" type="curve" smooth="yes"/>
      <point x="127" y="388"/>
      <point x="250" y="510"/>
    </contour>
  </outline>
</glyph>
<glyph name="registered" format="2">
  <advance width="571"/>
  <unicode hex="00AE"/>
  <outline>
    <contour>
      <point x="287" y="359" type="curve" smooth="yes"/>
      <point x="413" y="359"/>
      <point x="511" y="456"/>
      <point x="511" y="584" type="curve" smooth="yes"/>
      <point x="511" y="712"/>
      <point x="413" y="810"/>
      <point x="286" y="810" type="curve" smooth="yes"/>
      <point x="159" y="810"/>
      <point x="60" y="711"/>
      <point x="60" y="584" type="curve" smooth="yes"/>
      <point x="60" y="456"/>
      <point x="160" y="359"/>
    </contour>
    <contour>
      <point x="286" y="417" type="curve" smooth="yes"/>
      <point x="190" y="417"/>
      <point x="118" y="490"/>
      <point x="118" y="584" type="curve" smooth="yes"/>
      <point x="118" y="679"/>
      <point x="191" y="752"/>
      <point x="286" y="752" type="curve" smooth="yes"/>
      <point x="381" y="752"/>
      <point x="453" y="679"/>
      <point x="453" y="584" type="curve" smooth="yes"/>
      <point x="453" y="490"/>
      <point x="382" y="417"/>
    </contour>
    <contour>
      <point x="320" y="483" type="curve"/>
      <point x="344" y="481"/>
      <point x="365" y="483"/>
      <point x="385" y="489" type="curve"/>
      <point x="370" y="521"/>
      <point x="351" y="550"/>
      <point x="327" y="563" type="curve"/>
      <point x="299" y="550" type="line"/>
      <point x="348" y="556"/>
      <point x="374" y="580"/>
      <point x="374" y="624" type="curve" smooth="yes"/>
      <point x="374" y="670"/>
      <point x="346" y="692"/>
      <point x="286" y="692" type="curve" smooth="yes"/>
      <point x="268" y="692"/>
      <point x="238" y="690"/>
      <point x="210" y="682" type="curve"/>
      <point x="210" y="484" type="line"/>
      <point x="228" y="480"/>
      <point x="246" y="480"/>
      <point x="266" y="484" type="curve"/>
      <point x="266" y="543" type="line"/>
      <point x="292" y="543" type="line"/>
      <point x="305" y="526"/>
      <point x="314" y="506"/>
    </contour>
    <contour>
      <point x="289" y="578" type="curve" smooth="yes"/>
      <point x="282" y="578"/>
      <point x="275" y="580"/>
      <point x="266" y="583" type="curve"/>
      <point x="266" y="651" type="line"/>
      <point x="274" y="654"/>
      <point x="281" y="655"/>
      <point x="287" y="655" type="curve" smooth="yes"/>
      <point x="305" y="655"/>
      <point x="314" y="643"/>
      <point x="314" y="616" type="curve" smooth="yes"/>
      <point x="314" y="590"/>
      <point x="306" y="578"/>
    </contour>
  </outline>
</glyph>
<glyph name="degree" format="2">
  <advance width="436"/>
  <unicode hex="00B0"/>
  <outline>
    <contour>
      <point x="319" y="699"/>
      <point x="216" y="699" type="curve" smooth="yes"/>
      <point x="124" y="699"/>
      <point x="60" y="638"/>
      <point x="60" y="558" type="curve" smooth="yes"/>
      <point x="60" y="475"/>
      <point x="117" y="415"/>
      <point x="216" y="415" type="curve" smooth="yes"/>
      <point x="313" y="415"/>
      <point x="376" y="478"/>
      <point x="376" y="559" type="curve" smooth="yes"/>
      <point x="376" y="639"/>
    </contour>
    <contour>
      <point x="187" y="641"/>
      <point x="211" y="641" type="curve" smooth="yes"/>
      <point x="245" y="641"/>
      <point x="266" y="606"/>
      <point x="266" y="548" type="curve" smooth="yes"/>
      <point x="266" y="498"/>
      <point x="249" y="475"/>
      <point x="228" y="475" type="curve" smooth="yes"/>
      <point x="197" y="475"/>
      <point x="170" y="515"/>
      <point x="170" y="577" type="curve" smooth="yes"/>
      <point x="170" y="610"/>
    </contour>
  </outline>
</glyph>
<glyph name="ordmasculine" format="2">
  <advance width="453"/>
  <unicode hex="00BA"/>
  <outline>
    <contour>
      <point x="174" y="484"/>
      <point x="174" y="559" type="curve" smooth="yes"/>
      <point x="174" y="614"/>
      <point x="188" y="660"/>
      <point x="216" y="660" type="curve" smooth="yes"/>
      <point x="244" y="660"/>
      <point x="274" y="616"/>
      <point x="274" y="516" type="curve" smooth="yes"/>
      <point x="274" y="462"/>
      <point x="259" y="417"/>
      <point x="234" y="417" type="curve" smooth="yes"/>
      <point x="192" y="417"/>
    </contour>
    <contour>
      <point x="30" y="659"/>
      <point x="30" y="529" type="curve" smooth="yes"/>
      <point x="30" y="423"/>
      <point x="91" y="357"/>
      <point x="220" y="357" type="curve" smooth="yes"/>
      <point x="345" y="357"/>
      <point x="419" y="423"/>
      <point x="419" y="543" type="curve" smooth="yes"/>
      <point x="419" y="644"/>
      <point x="358" y="717"/>
      <point x="227" y="717" type="curve" smooth="yes"/>
      <point x="118" y="717"/>
    </contour>
  </outline>
</glyph>
<glyph name="AE" format="2">
  <advance width="1001"/>
  <unicode hex="00C6"/>
  <anchor x="564" y="676" name="top"/>
  <outline>
    <contour>
      <point x="286" y="352" type="line"/>
      <point x="260" y="266" type="line"/>
      <point x="325" y="278"/>
      <point x="483" y="286"/>
      <point x="670" y="286" type="curve" smooth="yes"/>
      <point x="728" y="286"/>
      <point x="739" y="276"/>
      <point x="743" y="211" type="curve"/>
      <point x="763" y="202"/>
      <point x="802" y="202"/>
      <point x="829" y="202" type="curve"/>
      <point x="827" y="231"/>
      <point x="826" y="277"/>
      <point x="826" y="322" type="curve" smooth="yes"/>
      <point x="826" y="383"/>
      <point x="827" y="409"/>
      <point x="829" y="441" type="curve"/>
      <point x="802" y="441"/>
      <point x="764" y="436"/>
      <point x="742" y="428" type="curve"/>
      <point x="741" y="360"/>
      <point x="727" y="352"/>
      <point x="670" y="352" type="curve" smooth="yes"/>
    </contour>
    <contour>
      <point x="459" y="579"/>
      <point x="459" y="540" type="curve" smooth="yes"/>
      <point x="459" y="187" type="line" smooth="yes"/>
      <point x="459" y="95"/>
      <point x="447" y="79"/>
      <point x="393" y="75" type="curve"/>
      <point x="387" y="53"/>
      <point x="385" y="27"/>
      <point x="385" y="-3" type="curve"/>
      <point x="431" y="-1"/>
      <point x="633" y="0"/>
      <point x="728" y="0" type="curve"/>
      <point x="737" y="75" type="line"/>
      <point x="678" y="75"/>
      <point x="659" y="97"/>
      <point x="659" y="192" type="curve" smooth="yes"/>
      <point x="659" y="676" type="line"/>
      <point x="476" y="676" type="line"/>
      <point x="467" y="654"/>
    </contour>
    <contour>
      <point x="633" y="676" type="curve"/>
      <point x="605" y="601" type="line"/>
      <point x="708" y="601" type="line" smooth="yes"/>
      <point x="807" y="601"/>
      <point x="833" y="555"/>
      <point x="846" y="483" type="curve"/>
      <point x="873" y="483"/>
      <point x="932" y="489"/>
      <point x="947" y="501" type="curve"/>
      <point x="937" y="544"/>
      <point x="926" y="614"/>
      <point x="926" y="679" type="curve"/>
      <point x="863" y="677"/>
      <point x="783" y="676"/>
    </contour>
    <contour>
      <point x="478" y="625"/>
      <point x="497" y="676" type="curve"/>
      <point x="426" y="676"/>
      <point x="341" y="677"/>
      <point x="289" y="678" type="curve"/>
      <point x="289" y="656"/>
      <point x="297" y="613"/>
      <point x="302" y="601" type="curve"/>
      <point x="352" y="596"/>
      <point x="362" y="573"/>
      <point x="331" y="519" type="curve" smooth="yes"/>
      <point x="118" y="152" type="line" smooth="yes"/>
      <point x="85" y="95"/>
      <point x="67" y="81"/>
      <point x="20" y="75" type="curve"/>
      <point x="13" y="58"/>
      <point x="10" y="23"/>
      <point x="10" y="-3" type="curve"/>
      <point x="30" y="-1"/>
      <point x="109" y="0"/>
      <point x="142" y="0" type="curve" smooth="yes"/>
      <point x="175" y="0"/>
      <point x="229" y="-1"/>
      <point x="260" y="-3" type="curve"/>
      <point x="260" y="27"/>
      <point x="258" y="56"/>
      <point x="250" y="75" type="curve"/>
      <point x="203" y="83"/>
      <point x="190" y="112"/>
      <point x="221" y="170" type="curve" smooth="yes"/>
      <point x="252" y="228"/>
      <point x="362" y="417"/>
      <point x="436" y="546" type="curve" smooth="yes"/>
      <point x="468" y="603"/>
    </contour>
    <contour>
      <point x="620" y="75" type="line"/>
      <point x="620" y="0" type="line"/>
      <point x="703" y="0"/>
      <point x="896" y="-1"/>
      <point x="955" y="-2" type="curve"/>
      <point x="959" y="62"/>
      <point x="971" y="131"/>
      <point x="986" y="177" type="curve"/>
      <point x="969" y="193"/>
      <point x="922" y="205"/>
      <point x="886" y="211" type="curve"/>
      <point x="846" y="103"/>
      <point x="820" y="75"/>
      <point x="754" y="75" type="curve" smooth="yes"/>
    </contour>
  </outline>
</glyph>
<glyph name="ae" format="2">
  <advance width="752"/>
  <unicode hex="00E6"/>
  <anchor x="381" y="458" name="top"/>
  <outline>
    <contour>
      <point x="466" y="215" type="curve" smooth="yes"/>
      <point x="466" y="276" type="line" smooth="yes"/>
      <point x="466" y="347"/>
      <point x="481" y="391"/>
      <point x="516" y="391" type="curve" smooth="yes"/>
      <point x="555" y="391"/>
      <point x="568" y="343"/>
      <point x="568" y="266" type="curve"/>
      <point x="525" y="266"/>
      <point x="472" y="265"/>
      <point x="424" y="262" type="curve"/>
      <point x="420" y="191" type="line"/>
      <point x="504" y="197"/>
      <point x="606" y="198"/>
      <point x="683" y="198" type="curve"/>
      <point x="700" y="214"/>
      <point x="714" y="238"/>
      <point x="721" y="256" type="curve"/>
      <point x="721" y="330"/>
      <point x="687" y="467"/>
      <point x="525" y="467" type="curve" smooth="yes"/>
      <point x="466" y="467"/>
      <point x="384" y="444"/>
      <point x="353" y="380" type="curve"/>
      <point x="410" y="380" type="line"/>
      <point x="378" y="443"/>
      <point x="330" y="467"/>
      <point x="246" y="467" type="curve" smooth="yes"/>
      <point x="176" y="467"/>
      <point x="122" y="458"/>
      <point x="59" y="436" type="curve"/>
      <point x="66" y="393"/>
      <point x="67" y="339"/>
      <point x="64" y="306" type="curve"/>
      <point x="93" y="292"/>
      <point x="143" y="288"/>
      <point x="176" y="288" type="curve"/>
      <point x="184" y="361"/>
      <point x="197" y="391"/>
      <point x="232" y="391" type="curve" smooth="yes"/>
      <point x="265" y="391"/>
      <point x="283" y="364"/>
      <point x="283" y="300" type="curve" smooth="yes"/>
      <point x="283" y="207" type="line" smooth="yes"/>
      <point x="283" y="115"/>
      <point x="346" y="-6"/>
      <point x="516" y="-6" type="curve" smooth="yes"/>
      <point x="604" y="-6"/>
      <point x="672" y="15"/>
      <point x="710" y="46" type="curve"/>
      <point x="711" y="74"/>
      <point x="697" y="105"/>
      <point x="683" y="118" type="curve"/>
      <point x="655" y="100"/>
      <point x="619" y="87"/>
      <point x="573" y="87" type="curve" smooth="yes"/>
      <point x="498" y="87"/>
      <point x="466" y="144"/>
    </contour>
    <contour>
      <point x="294" y="207" type="curve"/>
      <point x="294" y="276" type="line"/>
      <point x="147" y="266"/>
      <point x="25" y="230"/>
      <point x="25" y="110" type="curve" smooth="yes"/>
      <point x="25" y="36"/>
      <point x="70" y="-6"/>
      <point x="156" y="-6" type="curve" smooth="yes"/>
      <point x="262" y="-6"/>
      <point x="340" y="51"/>
      <point x="340" y="116" type="curve"/>
      <point x="284" y="207" type="line"/>
      <point x="285" y="119"/>
      <point x="246" y="91"/>
      <point x="220" y="91" type="curve" smooth="yes"/>
      <point x="198" y="91"/>
      <point x="182" y="106"/>
      <point x="182" y="138" type="curve" smooth="yes"/>
      <point x="182" y="181"/>
      <point x="210" y="200"/>
    </contour>
  </outline>
</glyph>
<glyph name="dcaron" format="2">
  <advance width="826"/>
  <unicode hex="010F"/>
  <outline>
    <contour>
      <point x="492" y="272" type="move"/>
    </contour>
    <component base="d"/>
    <component base="quoteright" xOffset="550"/>
  </outline>
</glyph>
<glyph name="idotless" format="2">
  <advance width="400"/>
  <unicode hex="0131"/>
  <anchor x="201" y="0" name="bottom"/>
  <anchor x="201" y="233" name="center"/>
  <anchor x="310" y="0" name="ogonek"/>
  <anchor x="192" y="458" name="top"/>
  <outline>
    <contour>
      <point x="32" y="-3" type="curve"/>
      <point x="56" y="-1"/>
      <point x="132" y="0"/>
      <point x="201" y="0" type="curve" smooth="yes"/>
      <point x="270" y="0"/>
      <point x="345" y="-1"/>
      <point x="370" y="-3" type="curve"/>
      <point x="370" y="30"/>
      <point x="368" y="56"/>
      <point x="362" y="75" type="curve"/>
      <point x="309" y="78"/>
      <point x="296" y="95"/>
      <point x="296" y="162" type="curve" smooth="yes"/>
      <point x="296" y="403" type="line" smooth="yes"/>
      <point x="296" y="438"/>
      <point x="283" y="457"/>
      <point x="261" y="467" type="curve"/>
      <point x="229" y="451"/>
      <point x="144" y="434"/>
      <point x="45" y="434" type="curve"/>
      <point x="34" y="413"/>
      <point x="32" y="384"/>
      <point x="32" y="359" type="curve"/>
      <point x="92" y="353"/>
      <point x="106" y="335"/>
      <point x="106" y="289" type="curve" smooth="yes"/>
      <point x="106" y="162" type="line" smooth="yes"/>
      <point x="106" y="95"/>
      <point x="94" y="78"/>
      <point x="41" y="75" type="curve"/>
      <point x="34" y="56"/>
      <point x="32" y="30"/>
    </contour>
  </outline>
</glyph>
<glyph name="Eng" format="2">
  <advance width="718"/>
  <unicode hex="014A"/>
  <outline>
    <contour>
      <point x="416" y="-249" type="curve" smooth="yes"/>
      <point x="548" y="-249"/>
      <point x="688" y="-90"/>
      <point x="688" y="133" type="curve" smooth="yes"/>
      <point x="688" y="487" type="line" smooth="yes"/>
      <point x="688" y="632"/>
      <point x="612" y="682"/>
      <point x="498" y="682" type="curve" smooth="yes"/>
      <point x="394" y="682"/>
      <point x="327" y="641"/>
      <point x="293" y="560" type="curve"/>
      <point x="292" y="560" type="line"/>
      <point x="299" y="583"/>
      <point x="304" y="604"/>
      <point x="304" y="624" type="curve" smooth="yes"/>
      <point x="304" y="655"/>
      <point x="292" y="675"/>
      <point x="270" y="685" type="curve"/>
      <point x="238" y="669"/>
      <point x="155" y="652"/>
      <point x="46" y="652" type="curve"/>
      <point x="35" y="631"/>
      <point x="33" y="602"/>
      <point x="33" y="577" type="curve"/>
      <point x="98" y="571"/>
      <point x="104" y="553"/>
      <point x="104" y="488" type="curve" smooth="yes"/>
      <point x="104" y="187" type="line" smooth="yes"/>
      <point x="104" y="95"/>
      <point x="94" y="79"/>
      <point x="40" y="75" type="curve"/>
      <point x="35" y="56"/>
      <point x="30" y="21"/>
      <point x="30" y="-3" type="curve"/>
      <point x="77" y="-1"/>
      <point x="150" y="0"/>
      <point x="219" y="0" type="curve" smooth="yes"/>
      <point x="288" y="0"/>
      <point x="348" y="-1"/>
      <point x="378" y="-3" type="curve"/>
      <point x="378" y="23"/>
      <point x="375" y="57"/>
      <point x="370" y="75" type="curve"/>
      <point x="316" y="79"/>
      <point x="304" y="95"/>
      <point x="304" y="187" type="curve" smooth="yes"/>
      <point x="304" y="368" type="line" smooth="yes"/>
      <point x="304" y="500"/>
      <point x="344" y="563"/>
      <point x="415" y="563" type="curve" smooth="yes"/>
      <point x="464" y="563"/>
      <point x="488" y="532"/>
      <point x="488" y="420" type="curve" smooth="yes"/>
      <point x="488" y="37" type="line" smooth="yes"/>
      <point x="488" y="-70"/>
      <point x="483" y="-106"/>
      <point x="420" y="-106" type="curve" smooth="yes"/>
      <point x="388" y="-106"/>
      <point x="336" y="-97"/>
      <point x="312" y="-87" type="curve"/>
      <point x="299" y="-121"/>
      <point x="295" y="-169"/>
      <point x="299" y="-195" type="curve"/>
      <point x="318" y="-223"/>
      <point x="363" y="-249"/>
    </contour>
  </outline>
</glyph>
<glyph name="longs" format="2">
  <advance width="420"/>
  <unicode hex="017F"/>
  <outline>
    <contour>
      <point x="102" y="477" type="curve" smooth="yes"/>
      <point x="102" y="132" type="line"/>
      <point x="292" y="132" type="line"/>
      <point x="292" y="511" type="line" smooth="yes"/>
      <point x="292" y="620"/>
      <point x="303" y="641"/>
      <point x="332" y="641" type="curve" smooth="yes"/>
      <point x="360" y="641"/>
      <point x="380" y="601"/>
      <point x="380" y="533" type="curve"/>
      <point x="417" y="531"/>
      <point x="474" y="535"/>
      <point x="499" y="546" type="curve"/>
      <point x="496" y="583"/>
      <point x="497" y="645"/>
      <point x="504" y="684" type="curve"/>
      <point x="475" y="702"/>
      <point x="409" y="717"/>
      <point x="353" y="717" type="curve" smooth="yes"/>
      <point x="207" y="717"/>
      <point x="102" y="640"/>
    </contour>
    <contour>
      <point x="128" y="448" type="line"/>
      <point x="41" y="448" type="line"/>
      <point x="30" y="429"/>
      <point x="27" y="397"/>
      <point x="27" y="369" type="curve"/>
      <point x="51" y="369"/>
      <point x="86" y="364"/>
      <point x="128" y="348" type="curve"/>
    </contour>
    <contour>
      <point x="292" y="197" type="curve" smooth="yes"/>
      <point x="292" y="227" type="line"/>
      <point x="102" y="227" type="line"/>
      <point x="102" y="187" type="line" smooth="yes"/>
      <point x="102" y="95"/>
      <point x="89" y="79"/>
      <point x="35" y="75" type="curve"/>
      <point x="30" y="56"/>
      <point x="28" y="33"/>
      <point x="28" y="-3" type="curve"/>
      <point x="74" y="-1"/>
      <point x="158" y="0"/>
      <point x="230" y="0" type="curve" smooth="yes"/>
      <point x="293" y="0"/>
      <point x="372" y="-1"/>
      <point x="410" y="-3" type="curve"/>
      <point x="410" y="22"/>
      <point x="409" y="53"/>
      <point x="401" y="75" type="curve"/>
      <point x="317" y="81"/>
      <point x="292" y="111"/>
    </contour>
  </outline>
</glyph>
<glyph name="Yogh" format="2">
  <advance width="571"/>
  <unicode hex="021C"/>
  <outline>
    <contour>
      <point x="203" y="-171" type="curve" smooth="yes"/>
      <point x="394" y="-171"/>
      <point x="541" y="-55"/>
      <point x="541" y="105" type="curve" smooth="yes"/>
      <point x="541" y="241"/>
      <point x="436" y="323"/>
      <point x="254" y="302" type="curve"/>
      <point x="243" y="285" type="line"/>
      <point x="398" y="333"/>
      <point x="512" y="404"/>
      <point x="512" y="524" type="curve" smooth="yes"/>
      <point x="512" y="627"/>
      <point x="427" y="685"/>
      <point x="240" y="685" type="curve" smooth="yes"/>
      <point x="151" y="685"/>
      <point x="83" y="672"/>
      <point x="37" y="648" type="curve"/>
      <point x="41" y="591"/>
      <point x="39" y="529"/>
      <point x="33" y="496" type="curve"/>
      <point x="61" y="480"/>
      <point x="108" y="475"/>
      <point x="140" y="475" type="curve"/>
      <point x="154" y="569"/>
      <point x="166" y="610"/>
      <point x="225" y="610" type="curve" smooth="yes"/>
      <point x="281" y="610"/>
      <point x="307" y="574"/>
      <point x="307" y="507" type="curve" smooth="yes"/>
      <point x="307" y="388"/>
      <point x="225" y="338"/>
      <point x="118" y="304" type="curve"/>
      <point x="114" y="277"/>
      <point x="119" y="245"/>
      <point x="134" y="223" type="curve"/>
      <point x="155" y="231"/>
      <point x="186" y="236"/>
      <point x="213" y="236" type="curve" smooth="yes"/>
      <point x="292" y="236"/>
      <point x="336" y="193"/>
      <point x="336" y="105" type="curve" smooth="yes"/>
      <point x="336" y="-1"/>
      <point x="271" y="-89"/>
      <point x="167" y="-89" type="curve" smooth="yes"/>
      <point x="125" y="-89"/>
      <point x="87" y="-75"/>
      <point x="61" y="-53" type="curve"/>
      <point x="41" y="-72"/>
      <point x="30" y="-98"/>
      <point x="28" y="-123" type="curve"/>
      <point x="65" y="-155"/>
      <point x="132" y="-171"/>
    </contour>
  </outline>
</glyph>
<glyph name="nhookleft" format="2">
  <advance width="711"/>
  <unicode hex="0272"/>
  <outline>
    <contour>
      <point x="62" y="-249" type="curve"/>
      <point x="154" y="-204"/>
      <point x="291" y="-92"/>
      <point x="291" y="83" type="curve" smooth="yes"/>
      <point x="291" y="190" type="line" smooth="yes"/>
      <point x="291" y="281"/>
      <point x="326" y="345"/>
      <point x="375" y="345" type="curve" smooth="yes"/>
      <point x="418" y="345"/>
      <point x="437" y="318"/>
      <point x="437" y="242" type="curve" smooth="yes"/>
      <point x="437" y="173" type="line" smooth="yes"/>
      <point x="437" y="98"/>
      <point x="417" y="75"/>
      <point x="389" y="75" type="curve"/>
      <point x="380" y="51"/>
      <point x="379" y="25"/>
      <point x="379" y="-3" type="curve"/>
      <point x="409" y="-1"/>
      <point x="495" y="0"/>
      <point x="542" y="0" type="curve" smooth="yes"/>
      <point x="589" y="0"/>
      <point x="651" y="-2"/>
      <point x="681" y="-3" type="curve"/>
      <point x="681" y="30"/>
      <point x="679" y="53"/>
      <point x="670" y="75" type="curve"/>
      <point x="637" y="75"/>
      <point x="627" y="96"/>
      <point x="627" y="162" type="curve" smooth="yes"/>
      <point x="627" y="299" type="line" smooth="yes"/>
      <point x="627" y="415"/>
      <point x="543" y="462"/>
      <point x="453" y="462" type="curve" smooth="yes"/>
      <point x="397" y="462"/>
      <point x="350" y="441"/>
      <point x="318" y="409" type="curve" smooth="yes"/>
      <point x="300" y="391"/>
      <point x="290" y="368"/>
      <point x="279" y="342" type="curve"/>
      <point x="286" y="365"/>
      <point x="291" y="387"/>
      <point x="291" y="403" type="curve" smooth="yes"/>
      <point x="291" y="438"/>
      <point x="279" y="457"/>
      <point x="257" y="467" type="curve"/>
      <point x="225" y="451"/>
      <point x="142" y="434"/>
      <point x="43" y="434" type="curve"/>
      <point x="32" y="413"/>
      <point x="30" y="384"/>
      <point x="30" y="359" type="curve"/>
      <point x="95" y="353"/>
      <point x="101" y="335"/>
      <point x="101" y="270" type="curve" smooth="yes"/>
      <point x="101" y="37" type="line" smooth="yes"/>
      <point x="101" y="-58"/>
      <point x="80" y="-110"/>
      <point x="15" y="-175" type="curve"/>
      <point x="19" y="-207"/>
      <point x="37" y="-236"/>
    </contour>
  </outline>
</glyph>
<glyph name="ezh" format="2">
  <advance width="527"/>
  <unicode hex="0292"/>
  <anchor x="220" y="-242" name="bottom"/>
  <anchor x="305" y="243" name="center"/>
  <anchor x="262" y="458" name="top"/>
  <outline>
    <contour>
      <point x="220" y="-248" type="curve" smooth="yes"/>
      <point x="415" y="-248"/>
      <point x="507" y="-158"/>
      <point x="507" y="-23" type="curve" smooth="yes"/>
      <point x="507" y="97"/>
      <point x="434" y="148"/>
      <point x="317" y="152" type="curve"/>
      <point x="320" y="113" type="line"/>
      <point x="387" y="208"/>
      <point x="444" y="302"/>
      <point x="490" y="395" type="curve"/>
      <point x="490" y="420"/>
      <point x="484" y="445"/>
      <point x="474" y="461" type="curve"/>
      <point x="430" y="459"/>
      <point x="382" y="458"/>
      <point x="278" y="458" type="curve" smooth="yes"/>
      <point x="173" y="458"/>
      <point x="98" y="459"/>
      <point x="55" y="461" type="curve"/>
      <point x="55" y="410"/>
      <point x="52" y="348"/>
      <point x="43" y="302" type="curve"/>
      <point x="69" y="288"/>
      <point x="112" y="284"/>
      <point x="150" y="286" type="curve"/>
      <point x="164" y="364"/>
      <point x="180" y="383"/>
      <point x="235" y="383" type="curve" smooth="yes"/>
      <point x="394" y="383" type="line"/>
      <point x="293" y="405" type="line"/>
      <point x="261" y="328"/>
      <point x="194" y="217"/>
      <point x="127" y="127" type="curve"/>
      <point x="128" y="102"/>
      <point x="139" y="73"/>
      <point x="152" y="55" type="curve"/>
      <point x="174" y="64"/>
      <point x="195" y="67"/>
      <point x="214" y="67" type="curve" smooth="yes"/>
      <point x="287" y="67"/>
      <point x="319" y="24"/>
      <point x="319" y="-45" type="curve" smooth="yes"/>
      <point x="319" y="-119"/>
      <point x="282" y="-167"/>
      <point x="225" y="-167" type="curve" smooth="yes"/>
      <point x="178" y="-167"/>
      <point x="150" y="-135"/>
      <point x="143" y="-68" type="curve"/>
      <point x="110" y="-68"/>
      <point x="66" y="-76"/>
      <point x="42" y="-90" type="curve"/>
      <point x="45" y="-122"/>
      <point x="46" y="-172"/>
      <point x="40" y="-214" type="curve"/>
      <point x="89" y="-235"/>
      <point x="146" y="-248"/>
    </contour>
  </outline>
</glyph>
<glyph name="ringhalfleft" format="2">
  <advance width="290"/>
  <unicode hex="02BF"/>
  <outline>
    <contour>
      <point x="244" y="413" type="curve"/>
      <point x="252" y="440"/>
      <point x="252" y="465"/>
      <point x="244" y="492" type="curve"/>
      <point x="200" y="492"/>
      <point x="175" y="525"/>
      <point x="175" y="576" type="curve" smooth="yes"/>
      <point x="175" y="625"/>
      <point x="199" y="657"/>
      <point x="244" y="657" type="curve"/>
      <point x="252" y="681"/>
      <point x="252" y="706"/>
      <point x="244" y="729" type="curve"/>
      <point x="115" y="729"/>
      <point x="40" y="667"/>
      <point x="40" y="567" type="curve" smooth="yes"/>
      <point x="40" y="468"/>
      <point x="115" y="413"/>
    </contour>
  </outline>
</glyph>
<glyph name="verticallinemod" format="2">
  <advance width="243"/>
  <unicode hex="02C8"/>
  <outline>
    <contour>
      <point x="68" y="423" type="curve"/>
      <point x="103" y="418"/>
      <point x="140" y="418"/>
      <point x="174" y="427" type="curve"/>
      <point x="175" y="532"/>
      <point x="176" y="607"/>
      <point x="181" y="696" type="curve"/>
      <point x="139" y="703"/>
      <point x="103" y="700"/>
      <point x="63" y="687" type="curve"/>
      <point x="68" y="610"/>
      <point x="70" y="512"/>
    </contour>
  </outline>
</glyph>
<glyph name="gravecomb" format="2">
  <unicode hex="0300"/>
  <anchor x="210" y="458" name="_top"/>
  <anchor x="210" y="717" name="top"/>
  <outline>
    <contour>
      <point x="181" y="533" type="curve"/>
      <point x="227" y="533"/>
      <point x="258" y="539"/>
      <point x="283" y="551" type="curve"/>
      <point x="256" y="602"/>
      <point x="229" y="668"/>
      <point x="214" y="717" type="curve"/>
      <point x="156" y="717"/>
      <point x="98" y="705"/>
      <point x="50" y="685" type="curve"/>
      <point x="110" y="631"/>
      <point x="144" y="585"/>
    </contour>
  </outline>
</glyph>
<glyph name="commaturnedabovecomb" format="2">
  <unicode hex="0312"/>
  <anchor x="150" y="458" name="_top"/>
  <outline>
    <contour>
      <point x="104" y="500" type="curve"/>
      <point x="134" y="517"/>
      <point x="177" y="527"/>
      <point x="230" y="528" type="curve"/>
      <point x="244" y="560"/>
      <point x="249" y="584"/>
      <point x="246" y="622" type="curve"/>
      <point x="202" y="626"/>
      <point x="180" y="630"/>
      <point x="180" y="648" type="curve" smooth="yes"/>
      <point x="180" y="666"/>
      <point x="200" y="688"/>
      <point x="219" y="704" type="curve"/>
      <point x="204" y="720"/>
      <point x="175" y="732"/>
      <point x="139" y="730" type="curve"/>
      <point x="89" y="692"/>
      <point x="50" y="641"/>
      <point x="50" y="577" type="curve" smooth="yes"/>
      <point x="50" y="538"/>
      <point x="65" y="509"/>
    </contour>
  </outline>
</glyph>
<glyph name="commaaccentcomb" format="2">
  <unicode hex="0326"/>
  <anchor x="151" y="0" name="_bottom"/>
  <outline>
    <contour>
      <point x="193" y="-37" type="curve"/>
      <point x="163" y="-57"/>
      <point x="120" y="-67"/>
      <point x="67" y="-68" type="curve"/>
      <point x="53" y="-99"/>
      <point x="48" y="-130"/>
      <point x="51" y="-164" type="curve"/>
      <point x="96" y="-169"/>
      <point x="117" y="-181"/>
      <point x="117" y="-207" type="curve" smooth="yes"/>
      <point x="117" y="-231"/>
      <point x="99" y="-261"/>
      <point x="58" y="-289" type="curve"/>
      <point x="75" y="-307"/>
      <point x="104" y="-317"/>
      <point x="134" y="-315" type="curve"/>
      <point x="203" y="-269"/>
      <point x="247" y="-206"/>
      <point x="247" y="-121" type="curve" smooth="yes"/>
      <point x="247" y="-70"/>
      <point x="232" y="-48"/>
    </contour>
  </outline>
</glyph>
<glyph name="ogonekcomb" format="2">
  <unicode hex="0328"/>
  <anchor x="301" y="20" name="_ogonek"/>
  <outline>
    <contour>
      <point x="173" y="-252" type="curve" smooth="yes"/>
      <point x="182" y="-252"/>
      <point x="186" y="-252"/>
      <point x="196" y="-251" type="curve"/>
      <point x="230" y="-234"/>
      <point x="282" y="-220"/>
      <point x="330" y="-213" type="curve"/>
      <point x="334" y="-188"/>
      <point x="324" y="-141"/>
      <point x="313" y="-127" type="curve"/>
      <point x="303" y="-129"/>
      <point x="292" y="-130"/>
      <point x="279" y="-130" type="curve" smooth="yes"/>
      <point x="229" y="-130"/>
      <point x="203" y="-114"/>
      <point x="203" y="-80" type="curve" smooth="yes"/>
      <point x="203" y="-43"/>
      <point x="235" y="-1"/>
      <point x="301" y="20" type="curve"/>
      <point x="204" y="32" type="line"/>
      <point x="72" y="-28"/>
      <point x="50" y="-85"/>
      <point x="50" y="-132" type="curve" smooth="yes"/>
      <point x="50" y="-216"/>
      <point x="122" y="-252"/>
    </contour>
  </outline>
</glyph>
<glyph name="slashshortcomb" format="2">
  <unicode hex="0337"/>
  <anchor x="283" y="334" name="_center"/>
  <outline>
    <contour>
      <point x="89" y="187" type="line"/>
      <point x="516" y="399" type="line"/>
      <point x="477" y="480" type="line"/>
      <point x="50" y="268" type="line"/>
    </contour>
  </outline>
</glyph>
<glyph name="slashlongcomb" format="2">
  <unicode hex="0338"/>
  <anchor x="283" y="334" name="_center"/>
  <outline>
    <contour>
      <point x="89" y="187" type="line"/>
      <point x="516" y="399" type="line"/>
      <point x="477" y="480" type="line"/>
      <point x="50" y="268" type="line"/>
    </contour>
  </outline>
</glyph>
<glyph name="Sigma" format="2">
  <advance width="621"/>
  <unicode hex="03A3"/>
  <anchor x="307" y="676" name="top"/>
  <outline>
    <contour>
      <point x="50" y="-3" type="curve"/>
      <point x="111" y="-1"/>
      <point x="191" y="0"/>
      <point x="290" y="0" type="curve" smooth="yes"/>
      <point x="374" y="0"/>
      <point x="491" y="0"/>
      <point x="578" y="-3" type="curve"/>
      <point x="579" y="50"/>
      <point x="595" y="139"/>
      <point x="606" y="183" type="curve"/>
      <point x="578" y="199"/>
      <point x="541" y="209"/>
      <point x="498" y="212" type="curve"/>
      <point x="469" y="100"/>
      <point x="437" y="75"/>
      <point x="350" y="75" type="curve" smooth="yes"/>
      <point x="203" y="75" type="line"/>
      <point x="235" y="42" type="line"/>
      <point x="304" y="153"/>
      <point x="410" y="281"/>
      <point x="440" y="300" type="curve"/>
      <point x="448" y="325"/>
      <point x="446" y="351"/>
      <point x="439" y="377" type="curve"/>
      <point x="403" y="410"/>
      <point x="297" y="548"/>
      <point x="256" y="614" type="curve"/>
      <point x="195" y="601" type="line"/>
      <point x="354" y="601" type="line" smooth="yes"/>
      <point x="416" y="601"/>
      <point x="442" y="574"/>
      <point x="469" y="456" type="curve"/>
      <point x="511" y="456"/>
      <point x="550" y="459"/>
      <point x="575" y="470" type="curve"/>
      <point x="557" y="534"/>
      <point x="550" y="618"/>
      <point x="550" y="678" type="curve"/>
      <point x="494" y="676"/>
      <point x="360" y="676"/>
      <point x="286" y="676" type="curve" smooth="yes"/>
      <point x="220" y="676"/>
      <point x="125" y="676"/>
      <point x="64" y="678" type="curve"/>
      <point x="52" y="658"/>
      <point x="44" y="637"/>
      <point x="43" y="608" type="curve"/>
      <point x="79" y="553"/>
      <point x="189" y="380"/>
      <point x="244" y="309" type="curve"/>
      <point x="244" y="354" type="line"/>
      <point x="165" y="265"/>
      <point x="93" y="173"/>
      <point x="30" y="68" type="curve"/>
      <point x="30" y="40"/>
      <point x="38" y="14"/>
    </contour>
  </outline>
</glyph>
<glyph name="Psi" format="2">
  <advance width="901"/>
  <unicode hex="03A8"/>
  <anchor x="456" y="676" name="top"/>
  <outline>
    <contour>
      <point x="238" y="-3" type="curve"/>
      <point x="282" y="-1"/>
      <point x="384" y="0"/>
      <point x="469" y="0" type="curve" smooth="yes"/>
      <point x="554" y="0"/>
      <point x="627" y="-1"/>
      <point x="664" y="-3" type="curve"/>
      <point x="664" y="23"/>
      <point x="661" y="57"/>
      <point x="654" y="75" type="curve"/>
      <point x="572" y="79"/>
      <point x="556" y="95"/>
      <point x="556" y="187" type="curve" smooth="yes"/>
      <point x="556" y="491" type="line" smooth="yes"/>
      <point x="556" y="581"/>
      <point x="564" y="595"/>
      <point x="611" y="601" type="curve"/>
      <point x="620" y="627"/>
      <point x="620" y="652"/>
      <point x="620" y="679" type="curve"/>
      <point x="582" y="677"/>
      <point x="506" y="676"/>
      <point x="461" y="676" type="curve" smooth="yes"/>
      <point x="416" y="676"/>
      <point x="323" y="677"/>
      <point x="292" y="679" type="curve"/>
      <point x="292" y="653"/>
      <point x="296" y="621"/>
      <point x="301" y="601" type="curve"/>
      <point x="348" y="593"/>
      <point x="356" y="581"/>
      <point x="356" y="491" type="curve" smooth="yes"/>
      <point x="356" y="187" type="line" smooth="yes"/>
      <point x="356" y="95"/>
      <point x="333" y="79"/>
      <point x="250" y="75" type="curve"/>
      <point x="244" y="56"/>
      <point x="238" y="21"/>
    </contour>
    <contour>
      <point x="374" y="232" type="curve"/>
      <point x="374" y="309" type="line"/>
      <point x="293" y="309"/>
      <point x="251" y="339"/>
      <point x="251" y="465" type="curve" smooth="yes"/>
      <point x="251" y="621" type="line" smooth="yes"/>
      <point x="251" y="656"/>
      <point x="239" y="675"/>
      <point x="217" y="685" type="curve"/>
      <point x="186" y="672"/>
      <point x="116" y="659"/>
      <point x="23" y="659" type="curve"/>
      <point x="12" y="638"/>
      <point x="10" y="609"/>
      <point x="10" y="584" type="curve"/>
      <point x="58" y="577"/>
      <point x="59" y="559"/>
      <point x="61" y="488" type="curve" smooth="yes"/>
      <point x="66" y="290"/>
      <point x="103" y="232"/>
    </contour>
    <contour>
      <point x="537" y="232" type="line"/>
      <point x="811" y="232"/>
      <point x="823" y="297"/>
      <point x="842" y="558" type="curve" smooth="yes"/>
      <point x="844" y="585"/>
      <point x="846" y="602"/>
      <point x="868" y="602" type="curve" smooth="yes"/>
      <point x="873" y="602"/>
      <point x="877" y="601"/>
      <point x="882" y="600" type="curve"/>
      <point x="890" y="623"/>
      <point x="893" y="653"/>
      <point x="889" y="676" type="curve"/>
      <point x="856" y="684"/>
      <point x="813" y="685"/>
      <point x="796" y="685" type="curve" smooth="yes"/>
      <point x="676" y="685"/>
      <point x="651" y="633"/>
      <point x="651" y="515" type="curve" smooth="yes"/>
      <point x="651" y="368"/>
      <point x="639" y="309"/>
      <point x="537" y="309" type="curve"/>
    </contour>
  </outline>
</glyph>
<glyph name="beta" format="2">
  <advance width="624"/>
  <unicode hex="03B2"/>
  <anchor x="303" y="708" name="top"/>
  <outline>
    <contour>
      <point x="68" y="-250" type="curve"/>
      <point x="126" y="-218"/>
      <point x="181" y="-201"/>
      <point x="247" y="-192" type="curve"/>
      <point x="238" y="-158"/>
      <point x="231" y="-99"/>
      <point x="231" y="-40" type="curve" smooth="yes"/>
      <point x="231" y="519" type="line" smooth="yes"/>
      <point x="231" y="626"/>
      <point x="252" y="644"/>
      <point x="294" y="644" type="curve" smooth="yes"/>
      <point x="353" y="644"/>
      <point x="375" y="609"/>
      <point x="375" y="539" type="curve" smooth="yes"/>
      <point x="375" y="458"/>
      <point x="346" y="407"/>
      <point x="281" y="403" type="curve"/>
      <point x="269" y="379"/>
      <point x="266" y="348"/>
      <point x="275" y="325" type="curve"/>
      <point x="357" y="325"/>
      <point x="400" y="279"/>
      <point x="400" y="189" type="curve" smooth="yes"/>
      <point x="400" y="110"/>
      <point x="367" y="67"/>
      <point x="302" y="67" type="curve" smooth="yes"/>
      <point x="265" y="67"/>
      <point x="244" y="81"/>
      <point x="220" y="119" type="curve"/>
      <point x="196" y="37" type="line"/>
      <point x="235" y="1"/>
      <point x="276" y="-9"/>
      <point x="332" y="-9" type="curve" smooth="yes"/>
      <point x="487" y="-9"/>
      <point x="594" y="66"/>
      <point x="594" y="199" type="curve" smooth="yes"/>
      <point x="594" y="320"/>
      <point x="505" y="383"/>
      <point x="356" y="383" type="curve"/>
      <point x="356" y="376" type="line"/>
      <point x="489" y="376"/>
      <point x="560" y="440"/>
      <point x="560" y="548" type="curve" smooth="yes"/>
      <point x="560" y="653"/>
      <point x="493" y="717"/>
      <point x="331" y="717" type="curve" smooth="yes"/>
      <point x="152" y="717"/>
      <point x="41" y="639"/>
      <point x="41" y="477" type="curve" smooth="yes"/>
      <point x="41" y="-55" type="line" smooth="yes"/>
      <point x="41" y="-160"/>
      <point x="41" y="-176"/>
      <point x="30" y="-204" type="curve"/>
      <point x="37" y="-225"/>
      <point x="46" y="-241"/>
    </contour>
  </outline>
</glyph>
<glyph name="theta" format="2">
  <advance width="600"/>
  <unicode hex="03B8"/>
  <anchor x="300" y="708" name="top"/>
  <outline>
    <contour>
      <point x="300" y="-9" type="curve" smooth="yes"/>
      <point x="477" y="-9"/>
      <point x="570" y="117"/>
      <point x="570" y="361" type="curve" smooth="yes"/>
      <point x="570" y="595"/>
      <point x="477" y="717"/>
      <point x="300" y="717" type="curve" smooth="yes"/>
      <point x="123" y="717"/>
      <point x="30" y="594"/>
      <point x="30" y="358" type="curve" smooth="yes"/>
      <point x="30" y="116"/>
      <point x="123" y="-9"/>
    </contour>
    <contour>
      <point x="310" y="65" type="curve" smooth="yes"/>
      <point x="257" y="65"/>
      <point x="230" y="176"/>
      <point x="230" y="388" type="curve" smooth="yes"/>
      <point x="230" y="555"/>
      <point x="251" y="642"/>
      <point x="290" y="642" type="curve" smooth="yes"/>
      <point x="343" y="642"/>
      <point x="370" y="535"/>
      <point x="370" y="330" type="curve" smooth="yes"/>
      <point x="370" y="156"/>
      <point x="349" y="65"/>
    </contour>
    <contour>
      <point x="190" y="312" type="line"/>
      <point x="287" y="318"/>
      <point x="336" y="318"/>
      <point x="415" y="318" type="curve"/>
      <point x="415" y="404" type="line"/>
      <point x="190" y="404" type="line"/>
    </contour>
  </outline>
</glyph>
<glyph name="iota" format="2">
  <advance width="387"/>
  <unicode hex="03B9"/>
  <anchor x="215" y="458" name="top"/>
  <anchor x="25" y="458" name="topleft"/>
  <outline>
    <contour>
      <point x="254" y="-9" type="curve" smooth="yes"/>
      <point x="309" y="-9"/>
      <point x="360" y="4"/>
      <point x="385" y="22" type="curve"/>
      <point x="385" y="49"/>
      <point x="379" y="73"/>
      <point x="370" y="86" type="curve"/>
      <point x="359" y="81"/>
      <point x="344" y="78"/>
      <point x="331" y="78" type="curve" smooth="yes"/>
      <point x="305" y="78"/>
      <point x="296" y="89"/>
      <point x="296" y="136" type="curve" smooth="yes"/>
      <point x="296" y="403" type="line" smooth="yes"/>
      <point x="296" y="438"/>
      <point x="283" y="457"/>
      <point x="261" y="467" type="curve"/>
      <point x="229" y="451"/>
      <point x="144" y="434"/>
      <point x="45" y="434" type="curve"/>
      <point x="34" y="413"/>
      <point x="32" y="384"/>
      <point x="32" y="359" type="curve"/>
      <point x="92" y="353"/>
      <point x="106" y="335"/>
      <point x="106" y="289" type="curve" smooth="yes"/>
      <point x="106" y="134" type="line" smooth="yes"/>
      <point x="106" y="30"/>
      <point x="158" y="-9"/>
    </contour>
  </outline>
</glyph>
<glyph name="tau" format="2">
  <advance width="395"/>
  <unicode hex="03C4"/>
  <anchor x="197" y="458" name="top"/>
  <outline>
    <contour>
      <point x="58" y="271" type="curve"/>
      <point x="84" y="304"/>
      <point x="88" y="307"/>
      <point x="128" y="307" type="curve" smooth="yes"/>
      <point x="167" y="307"/>
      <point x="246" y="304"/>
      <point x="294" y="304" type="curve" smooth="yes"/>
      <point x="350" y="304"/>
      <point x="367" y="308"/>
      <point x="380" y="344" type="curve"/>
      <point x="377" y="381"/>
      <point x="378" y="433"/>
      <point x="385" y="491" type="curve"/>
      <point x="367" y="501"/>
      <point x="328" y="509"/>
      <point x="300" y="511" type="curve"/>
      <point x="288" y="466"/>
      <point x="284" y="458"/>
      <point x="250" y="458" type="curve" smooth="yes"/>
      <point x="229" y="458"/>
      <point x="188" y="461"/>
      <point x="158" y="461" type="curve" smooth="yes"/>
      <point x="79" y="461"/>
      <point x="51" y="440"/>
      <point x="10" y="344" type="curve"/>
      <point x="11" y="316"/>
      <point x="30" y="288"/>
    </contour>
    <contour>
      <point x="259" y="-9" type="curve" smooth="yes"/>
      <point x="308" y="-9"/>
      <point x="355" y="5"/>
      <point x="378" y="25" type="curve"/>
      <point x="378" y="52"/>
      <point x="372" y="76"/>
      <point x="363" y="89" type="curve"/>
      <point x="351" y="83"/>
      <point x="336" y="79"/>
      <point x="322" y="79" type="curve" smooth="yes"/>
      <point x="299" y="79"/>
      <point x="291" y="91"/>
      <point x="291" y="156" type="curve" smooth="yes"/>
      <point x="291" y="324" type="line"/>
      <point x="129" y="324" type="line"/>
      <point x="129" y="144" type="line" smooth="yes"/>
      <point x="129" y="32"/>
      <point x="174" y="-9"/>
    </contour>
  </outline>
</glyph>
<glyph name="phi" format="2">
  <advance width="869"/>
  <unicode hex="03C6"/>
  <anchor x="438" y="458" name="top"/>
  <outline>
    <contour>
      <point x="370" y="-250" type="curve"/>
      <point x="428" y="-218"/>
      <point x="483" y="-201"/>
      <point x="549" y="-192" type="curve"/>
      <point x="540" y="-158"/>
      <point x="533" y="-99"/>
      <point x="533" y="-40" type="curve" smooth="yes"/>
      <point x="533" y="275" type="line" smooth="yes"/>
      <point x="533" y="350"/>
      <point x="553" y="392"/>
      <point x="587" y="392" type="curve" smooth="yes"/>
      <point x="626" y="392"/>
      <point x="649" y="337"/>
      <point x="649" y="242" type="curve" smooth="yes"/>
      <point x="649" y="130"/>
      <point x="617" y="63"/>
      <point x="532" y="63" type="curve"/>
      <point x="532" y="-9" type="line"/>
      <point x="725" y="-9"/>
      <point x="839" y="89"/>
      <point x="839" y="248" type="curve" smooth="yes"/>
      <point x="839" y="391"/>
      <point x="747" y="464"/>
      <point x="592" y="464" type="curve" smooth="yes"/>
      <point x="434" y="464"/>
      <point x="343" y="388"/>
      <point x="343" y="259" type="curve" smooth="yes"/>
      <point x="343" y="-55" type="line" smooth="yes"/>
      <point x="343" y="-160"/>
      <point x="343" y="-176"/>
      <point x="332" y="-204" type="curve"/>
      <point x="339" y="-225"/>
      <point x="348" y="-241"/>
    </contour>
    <contour>
      <point x="346" y="-9" type="curve"/>
      <point x="346" y="63" type="line"/>
      <point x="258" y="63"/>
      <point x="220" y="149"/>
      <point x="220" y="228" type="curve" smooth="yes"/>
      <point x="220" y="290"/>
      <point x="244" y="350"/>
      <point x="306" y="393" type="curve"/>
      <point x="302" y="425"/>
      <point x="284" y="454"/>
      <point x="259" y="467" type="curve"/>
      <point x="102" y="412"/>
      <point x="30" y="335"/>
      <point x="30" y="217" type="curve" smooth="yes"/>
      <point x="30" y="75"/>
      <point x="133" y="-9"/>
    </contour>
  </outline>
</glyph>
<glyph name="UpsilonhookSymbol" format="2">
  <advance width="723"/>
  <unicode hex="03D2"/>
  <anchor x="360" y="676" name="top"/>
  <outline>
    <contour>
      <point x="142" y="-3" type="curve"/>
      <point x="204" y="-2"/>
      <point x="280" y="0"/>
      <point x="355" y="0" type="curve" smooth="yes"/>
      <point x="430" y="0"/>
      <point x="511" y="0"/>
      <point x="569" y="-3" type="curve"/>
      <point x="569" y="29"/>
      <point x="568" y="47"/>
      <point x="559" y="75" type="curve"/>
      <point x="474" y="81"/>
      <point x="460" y="99"/>
      <point x="460" y="198" type="curve" smooth="yes"/>
      <point x="460" y="268" type="line" smooth="yes"/>
      <point x="460" y="397"/>
      <point x="497" y="540"/>
      <point x="560" y="540" type="curve" smooth="yes"/>
      <point x="584" y="540"/>
      <point x="596" y="520"/>
      <point x="597" y="476" type="curve"/>
      <point x="625" y="476"/>
      <point x="676" y="478"/>
      <point x="703" y="490" type="curve"/>
      <point x="699" y="539"/>
      <point x="705" y="614"/>
      <point x="713" y="660" type="curve"/>
      <point x="689" y="677"/>
      <point x="668" y="684"/>
      <point x="638" y="684" type="curve" smooth="yes"/>
      <point x="483" y="684"/>
      <point x="398" y="501"/>
      <point x="398" y="266" type="curve"/>
      <point x="410" y="266" type="line"/>
      <point x="410" y="418"/>
      <point x="375" y="529"/>
      <point x="326" y="596" type="curve" smooth="yes"/>
      <point x="281" y="657"/>
      <point x="222" y="684"/>
      <point x="155" y="684" type="curve" smooth="yes"/>
      <point x="88" y="684"/>
      <point x="44" y="657"/>
      <point x="10" y="608" type="curve"/>
      <point x="25" y="579"/>
      <point x="38" y="561"/>
      <point x="54" y="545" type="curve"/>
      <point x="63" y="554"/>
      <point x="76" y="566"/>
      <point x="95" y="566" type="curve" smooth="yes"/>
      <point x="169" y="566"/>
      <point x="260" y="379"/>
      <point x="260" y="271" type="curve" smooth="yes"/>
      <point x="260" y="199" type="line" smooth="yes"/>
      <point x="260" y="93"/>
      <point x="250" y="82"/>
      <point x="154" y="75" type="curve"/>
      <point x="145" y="53"/>
      <point x="143" y="26"/>
    </contour>
  </outline>
</glyph>
<glyph name="phiSymbol" format="2">
  <advance width="862"/>
  <unicode hex="03D5"/>
  <anchor x="431" y="708" name="top"/>
  <outline>
    <contour>
      <point x="363" y="-250" type="curve"/>
      <point x="421" y="-218"/>
      <point x="476" y="-201"/>
      <point x="542" y="-192" type="curve"/>
      <point x="533" y="-158"/>
      <point x="526" y="-99"/>
      <point x="526" y="-40" type="curve" smooth="yes"/>
      <point x="526" y="653" type="line" smooth="yes"/>
      <point x="526" y="688"/>
      <point x="513" y="707"/>
      <point x="491" y="717" type="curve"/>
      <point x="459" y="701"/>
      <point x="374" y="684"/>
      <point x="275" y="684" type="curve"/>
      <point x="264" y="663"/>
      <point x="262" y="634"/>
      <point x="262" y="609" type="curve"/>
      <point x="317" y="603"/>
      <point x="336" y="587"/>
      <point x="336" y="549" type="curve" smooth="yes"/>
      <point x="336" y="-55" type="line" smooth="yes"/>
      <point x="336" y="-160"/>
      <point x="336" y="-176"/>
      <point x="325" y="-204" type="curve"/>
      <point x="332" y="-225"/>
      <point x="341" y="-241"/>
    </contour>
    <contour>
      <point x="339" y="-9" type="curve"/>
      <point x="339" y="63" type="line"/>
      <point x="257" y="63"/>
      <point x="220" y="148"/>
      <point x="220" y="238" type="curve" smooth="yes"/>
      <point x="220" y="340"/>
      <point x="248" y="394"/>
      <point x="339" y="394" type="curve"/>
      <point x="339" y="466" type="line"/>
      <point x="163" y="466"/>
      <point x="30" y="395"/>
      <point x="30" y="220" type="curve" smooth="yes"/>
      <point x="30" y="73"/>
      <point x="126" y="-9"/>
    </contour>
    <contour>
      <point x="525" y="-9" type="line"/>
      <point x="718" y="-9"/>
      <point x="832" y="74"/>
      <point x="832" y="237" type="curve" smooth="yes"/>
      <point x="832" y="375"/>
      <point x="738" y="466"/>
      <point x="525" y="466" type="curve"/>
      <point x="525" y="394" type="line"/>
      <point x="568" y="394"/>
      <point x="642" y="343"/>
      <point x="642" y="224" type="curve" smooth="yes"/>
      <point x="642" y="121"/>
      <point x="611" y="63"/>
      <point x="525" y="63" type="curve"/>
    </contour>
  </outline>
</glyph>
<glyph name="rhoSymbol" format="2">
  <advance width="608"/>
  <unicode hex="03F1"/>
  <anchor x="304" y="458" name="top"/>
  <outline>
    <contour>
      <point x="464" y="-249" type="curve"/>
      <point x="496" y="-245"/>
      <point x="525" y="-227"/>
      <point x="538" y="-202" type="curve"/>
      <point x="527" y="-98"/>
      <point x="466" y="-19"/>
      <point x="356" y="-19" type="curve" smooth="yes"/>
      <point x="286" y="-19" type="line" smooth="yes"/>
      <point x="220" y="-19"/>
      <point x="121" y="-19"/>
      <point x="121" y="88" type="curve"/>
      <point x="95" y="89" type="line"/>
      <point x="140" y="52"/>
      <point x="208" y="31"/>
      <point x="296" y="31" type="curve" smooth="yes"/>
      <point x="472" y="31"/>
      <point x="578" y="114"/>
      <point x="578" y="254" type="curve" smooth="yes"/>
      <point x="578" y="380"/>
      <point x="491" y="467"/>
      <point x="295" y="467" type="curve" smooth="yes"/>
      <point x="127" y="467"/>
      <point x="30" y="403"/>
      <point x="30" y="122" type="curve" smooth="yes"/>
      <point x="30" y="-137"/>
      <point x="113" y="-209"/>
      <point x="251" y="-209" type="curve" smooth="yes"/>
      <point x="372" y="-209" type="line" smooth="yes"/>
      <point x="413" y="-209"/>
      <point x="436" y="-219"/>
    </contour>
    <contour>
      <point x="315" y="108" type="curve" smooth="yes"/>
      <point x="252" y="108"/>
      <point x="220" y="190"/>
      <point x="220" y="273" type="curve" smooth="yes"/>
      <point x="220" y="343"/>
      <point x="243" y="395"/>
      <point x="291" y="395" type="curve" smooth="yes"/>
      <point x="343" y="395"/>
      <point x="388" y="334"/>
      <point x="388" y="232" type="curve" smooth="yes"/>
      <point x="388" y="154"/>
      <point x="362" y="108"/>
    </contour>
  </outline>
</glyph>
<glyph name="Tshe-cy" format="2">
  <advance width="945"/>
  <unicode hex="040B"/>
  <outline>
    <contour>
      <point x="183" y="-3" type="curve"/>
      <point x="223" y="-1"/>
      <point x="304" y="0"/>
      <point x="352" y="0" type="curve" smooth="yes"/>
      <point x="400" y="0"/>
      <point x="498" y="-1"/>
      <point x="531" y="-3" type="curve"/>
      <point x="531" y="23"/>
      <point x="527" y="55"/>
      <point x="522" y="75" type="curve"/>
      <point x="466" y="83"/>
      <point x="457" y="95"/>
      <point x="457" y="185" type="curve" smooth="yes"/>
      <point x="457" y="619" type="line"/>
      <point x="257" y="619" type="line"/>
      <point x="257" y="185" type="line" smooth="yes"/>
      <point x="257" y="95"/>
      <point x="247" y="81"/>
      <point x="192" y="75" type="curve"/>
      <point x="183" y="49"/>
      <point x="183" y="24"/>
    </contour>
    <contour>
      <point x="567" y="-3" type="curve"/>
      <point x="607" y="-1"/>
      <point x="688" y="0"/>
      <point x="736" y="0" type="curve" smooth="yes"/>
      <point x="784" y="0"/>
      <point x="882" y="-1"/>
      <point x="915" y="-3" type="curve"/>
      <point x="915" y="23"/>
      <point x="911" y="55"/>
      <point x="906" y="75" type="curve"/>
      <point x="845" y="85"/>
      <point x="844" y="90"/>
      <point x="841" y="185" type="curve" smooth="yes"/>
      <point x="836" y="337"/>
      <point x="772" y="398"/>
      <point x="604" y="398" type="curve" smooth="yes"/>
      <point x="530" y="398"/>
      <point x="490" y="386"/>
      <point x="453" y="372" type="curve"/>
      <point x="453" y="301" type="line"/>
      <point x="473" y="307"/>
      <point x="506" y="311"/>
      <point x="532" y="311" type="curve" smooth="yes"/>
      <point x="612" y="311"/>
      <point x="641" y="274"/>
      <point x="641" y="172" type="curve" smooth="yes"/>
      <point x="641" y="91"/>
      <point x="623" y="80"/>
      <point x="576" y="75" type="curve"/>
      <point x="567" y="49"/>
      <point x="567" y="24"/>
    </contour>
    <contour>
      <point x="128" y="473" type="curve"/>
      <point x="150" y="560"/>
      <point x="182" y="601"/>
      <point x="255" y="601" type="curve" smooth="yes"/>
      <point x="477" y="601" type="line" smooth="yes"/>
      <point x="545" y="601"/>
      <point x="572" y="563"/>
      <point x="590" y="473" type="curve"/>
      <point x="631" y="473"/>
      <point x="667" y="478"/>
      <point x="694" y="489" type="curve"/>
      <point x="679" y="549"/>
      <point x="670" y="623"/>
      <point x="670" y="679" type="curve"/>
      <point x="587" y="677"/>
      <point x="506" y="676"/>
      <point x="363" y="676" type="curve" smooth="yes"/>
      <point x="201" y="676"/>
      <point x="134" y="676"/>
      <point x="50" y="679" type="curve"/>
      <point x="50" y="623"/>
      <point x="39" y="542"/>
      <point x="25" y="488" type="curve"/>
      <point x="53" y="475"/>
      <point x="91" y="473"/>
    </contour>
  </outline>
</glyph>
<glyph name="Ii-cy" format="2">
  <advance width="802"/>
  <unicode hex="0418"/>
  <anchor x="401" y="0" name="bottom"/>
  <anchor x="763" y="75" name="bottomright"/>
  <anchor x="401" y="480" name="center"/>
  <anchor x="401" y="676" name="top"/>
  <outline>
    <contour>
      <point x="222" y="27" type="line"/>
      <point x="653" y="623" type="line"/>
      <point x="580" y="650" type="line"/>
      <point x="154" y="62" type="line"/>
    </contour>
    <contour>
      <point x="30" y="-3" type="curve"/>
      <point x="77" y="-1"/>
      <point x="150" y="0"/>
      <point x="219" y="0" type="curve" smooth="yes"/>
      <point x="288" y="0"/>
      <point x="348" y="-1"/>
      <point x="378" y="-3" type="curve"/>
      <point x="378" y="23"/>
      <point x="375" y="57"/>
      <point x="370" y="75" type="curve"/>
      <point x="316" y="79"/>
      <point x="304" y="95"/>
      <point x="304" y="187" type="curve" smooth="yes"/>
      <point x="304" y="491" type="line" smooth="yes"/>
      <point x="304" y="581"/>
      <point x="314" y="595"/>
      <point x="369" y="601" type="curve"/>
      <point x="378" y="627"/>
      <point x="378" y="652"/>
      <point x="378" y="679" type="curve"/>
      <point x="338" y="677"/>
      <point x="257" y="676"/>
      <point x="209" y="676" type="curve" smooth="yes"/>
      <point x="161" y="676"/>
      <point x="63" y="677"/>
      <point x="30" y="679" type="curve"/>
      <point x="30" y="653"/>
      <point x="34" y="621"/>
      <point x="39" y="601" type="curve"/>
      <point x="95" y="593"/>
      <point x="104" y="581"/>
      <point x="104" y="491" type="curve" smooth="yes"/>
      <point x="104" y="187" type="line" smooth="yes"/>
      <point x="104" y="95"/>
      <point x="94" y="79"/>
      <point x="40" y="75" type="curve"/>
      <point x="35" y="56"/>
      <point x="30" y="21"/>
    </contour>
    <contour>
      <point x="424" y="-3" type="curve"/>
      <point x="471" y="-1"/>
      <point x="544" y="0"/>
      <point x="613" y="0" type="curve" smooth="yes"/>
      <point x="682" y="0"/>
      <point x="742" y="-1"/>
      <point x="772" y="-3" type="curve"/>
      <point x="772" y="23"/>
      <point x="769" y="57"/>
      <point x="764" y="75" type="curve"/>
      <point x="710" y="79"/>
      <point x="698" y="95"/>
      <point x="698" y="187" type="curve" smooth="yes"/>
      <point x="698" y="491" type="line" smooth="yes"/>
      <point x="698" y="581"/>
      <point x="708" y="595"/>
      <point x="763" y="601" type="curve"/>
      <point x="772" y="627"/>
      <point x="772" y="652"/>
      <point x="772" y="679" type="curve"/>
      <point x="732" y="677"/>
      <point x="651" y="676"/>
      <point x="603" y="676" type="curve" smooth="yes"/>
      <point x="555" y="676"/>
      <point x="457" y="677"/>
      <point x="424" y="679" type="curve"/>
      <point x="424" y="653"/>
      <point x="428" y="621"/>
      <point x="433" y="601" type="curve"/>
      <point x="489" y="593"/>
      <point x="498" y="581"/>
      <point x="498" y="491" type="curve" smooth="yes"/>
      <point x="498" y="187" type="line" smooth="yes"/>
      <point x="498" y="95"/>
      <point x="488" y="79"/>
      <point x="434" y="75" type="curve"/>
      <point x="429" y="56"/>
      <point x="424" y="21"/>
    </contour>
  </outline>
</glyph>
<glyph name="El-cy" format="2">
  <advance width="732"/>
  <unicode hex="041B"/>
  <anchor x="694" y="75" name="bottomright"/>
  <outline>
    <contour>
      <point x="100" y="-9" type="curve" smooth="yes"/>
      <point x="250" y="-9"/>
      <point x="266" y="190"/>
      <point x="290" y="491" type="curve" smooth="yes"/>
      <point x="296" y="571"/>
      <point x="298" y="585"/>
      <point x="317" y="595" type="curve" smooth="yes"/>
      <point x="325" y="599"/>
      <point x="339" y="604"/>
      <point x="360" y="604" type="curve" smooth="yes"/>
      <point x="376" y="604"/>
      <point x="391" y="601"/>
      <point x="403" y="594" type="curve" smooth="yes"/>
      <point x="426" y="581"/>
      <point x="428" y="558"/>
      <point x="428" y="491" type="curve" smooth="yes"/>
      <point x="428" y="187" type="line" smooth="yes"/>
      <point x="428" y="95"/>
      <point x="418" y="79"/>
      <point x="364" y="75" type="curve"/>
      <point x="359" y="56"/>
      <point x="354" y="21"/>
      <point x="354" y="-3" type="curve"/>
      <point x="401" y="-1"/>
      <point x="474" y="0"/>
      <point x="543" y="0" type="curve" smooth="yes"/>
      <point x="612" y="0"/>
      <point x="672" y="-1"/>
      <point x="702" y="-3" type="curve"/>
      <point x="702" y="23"/>
      <point x="699" y="57"/>
      <point x="694" y="75" type="curve"/>
      <point x="640" y="79"/>
      <point x="628" y="95"/>
      <point x="628" y="187" type="curve" smooth="yes"/>
      <point x="628" y="491" type="line" smooth="yes"/>
      <point x="628" y="581"/>
      <point x="638" y="595"/>
      <point x="693" y="601" type="curve"/>
      <point x="702" y="627"/>
      <point x="702" y="652"/>
      <point x="702" y="679" type="curve"/>
      <point x="662" y="677"/>
      <point x="581" y="676"/>
      <point x="393" y="676" type="curve" smooth="yes"/>
      <point x="259" y="676"/>
      <point x="171" y="676"/>
      <point x="118" y="679" type="curve"/>
      <point x="118" y="653"/>
      <point x="122" y="621"/>
      <point x="127" y="601" type="curve"/>
      <point x="208" y="592"/>
      <point x="214" y="581"/>
      <point x="211" y="491" type="curve" smooth="yes"/>
      <point x="206" y="346"/>
      <point x="189" y="274"/>
      <point x="180" y="241" type="curve" smooth="yes"/>
      <point x="161" y="171"/>
      <point x="139" y="160"/>
      <point x="98" y="160" type="curve" smooth="yes"/>
      <point x="73" y="160"/>
      <point x="40" y="164"/>
      <point x="23" y="168" type="curve"/>
      <point x="7" y="127"/>
      <point x="5" y="59"/>
      <point x="19" y="14" type="curve"/>
      <point x="36" y="2"/>
      <point x="65" y="-9"/>
    </contour>
  </outline>
</glyph>
<glyph name="Che-cy" format="2">
  <advance width="772"/>
  <unicode hex="0427"/>
  <anchor x="734" y="75" name="bottomright_1"/>
  <anchor x="361" y="75" name="bottomright_2"/>
  <anchor x="381" y="676" name="top"/>
  <anchor x="29" y="601" name="topleft"/>
  <outline>
    <contour>
      <point x="352" y="-3" type="curve"/>
      <point x="390" y="-1"/>
      <point x="484" y="0"/>
      <point x="572" y="0" type="curve" smooth="yes"/>
      <point x="659" y="0"/>
      <point x="712" y="-1"/>
      <point x="742" y="-3" type="curve"/>
      <point x="742" y="23"/>
      <point x="739" y="57"/>
      <point x="734" y="75" type="curve"/>
      <point x="681" y="79"/>
      <point x="670" y="95"/>
      <point x="670" y="187" type="curve" smooth="yes"/>
      <point x="670" y="491" type="line" smooth="yes"/>
      <point x="670" y="581"/>
      <point x="679" y="595"/>
      <point x="733" y="601" type="curve"/>
      <point x="742" y="627"/>
      <point x="742" y="652"/>
      <point x="742" y="679" type="curve"/>
      <point x="703" y="677"/>
      <point x="621" y="676"/>
      <point x="575" y="676" type="curve" smooth="yes"/>
      <point x="529" y="676"/>
      <point x="437" y="677"/>
      <point x="407" y="679" type="curve"/>
      <point x="407" y="653"/>
      <point x="411" y="621"/>
      <point x="416" y="601" type="curve"/>
      <point x="462" y="593"/>
      <point x="469" y="581"/>
      <point x="469" y="491" type="curve" smooth="yes"/>
      <point x="469" y="187" type="line" smooth="yes"/>
      <point x="469" y="111"/>
      <point x="445" y="81"/>
      <point x="361" y="75" type="curve"/>
      <point x="353" y="53"/>
      <point x="352" y="22"/>
    </contour>
    <contour>
      <point x="327" y="248" type="curve" smooth="yes"/>
      <point x="396" y="248"/>
      <point x="434" y="260"/>
      <point x="469" y="274" type="curve"/>
      <point x="469" y="345" type="line"/>
      <point x="451" y="339"/>
      <point x="422" y="335"/>
      <point x="399" y="335" type="curve" smooth="yes"/>
      <point x="322" y="335"/>
      <point x="293" y="379"/>
      <point x="293" y="501" type="curve" smooth="yes"/>
      <point x="293" y="583"/>
      <point x="306" y="596"/>
      <point x="346" y="601" type="curve"/>
      <point x="355" y="627"/>
      <point x="355" y="652"/>
      <point x="355" y="679" type="curve"/>
      <point x="319" y="677"/>
      <point x="242" y="676"/>
      <point x="197" y="676" type="curve" smooth="yes"/>
      <point x="151" y="676"/>
      <point x="52" y="677"/>
      <point x="20" y="679" type="curve"/>
      <point x="20" y="653"/>
      <point x="24" y="621"/>
      <point x="29" y="601" type="curve"/>
      <point x="89" y="591"/>
      <point x="89" y="586"/>
      <point x="92" y="491" type="curve" smooth="yes"/>
      <point x="98" y="318"/>
      <point x="162" y="248"/>
    </contour>
  </outline>
</glyph>
<glyph name="Sha-cy" format="2">
  <advance width="1100"/>
  <unicode hex="0428"/>
  <anchor x="1061" y="75" name="bottomright"/>
  <outline>
    <contour>
      <point x="30" y="-3" type="curve"/>
      <point x="70" y="-1"/>
      <point x="151" y="0"/>
      <point x="299" y="0" type="curve" smooth="yes"/>
      <point x="791" y="0" type="line" smooth="yes"/>
      <point x="939" y="0"/>
      <point x="1037" y="-1"/>
      <point x="1070" y="-3" type="curve"/>
      <point x="1070" y="23"/>
      <point x="1066" y="55"/>
      <point x="1061" y="75" type="curve"/>
      <point x="1005" y="83"/>
      <point x="996" y="95"/>
      <point x="996" y="185" type="curve" smooth="yes"/>
      <point x="996" y="489" type="line" smooth="yes"/>
      <point x="996" y="581"/>
      <point x="1006" y="597"/>
      <point x="1060" y="601" type="curve"/>
      <point x="1065" y="620"/>
      <point x="1070" y="655"/>
      <point x="1070" y="679" type="curve"/>
      <point x="1023" y="677"/>
      <point x="950" y="676"/>
      <point x="881" y="676" type="curve" smooth="yes"/>
      <point x="817" y="676"/>
      <point x="770" y="677"/>
      <point x="742" y="679" type="curve"/>
      <point x="742" y="653"/>
      <point x="745" y="619"/>
      <point x="750" y="601" type="curve"/>
      <point x="786" y="597"/>
      <point x="796" y="581"/>
      <point x="796" y="489" type="curve" smooth="yes"/>
      <point x="796" y="185" type="line" smooth="yes"/>
      <point x="796" y="122"/>
      <point x="791" y="96"/>
      <point x="769" y="84" type="curve" smooth="yes"/>
      <point x="760" y="79"/>
      <point x="747" y="75"/>
      <point x="723" y="75" type="curve" smooth="yes"/>
      <point x="699" y="75"/>
      <point x="686" y="79"/>
      <point x="677" y="84" type="curve" smooth="yes"/>
      <point x="655" y="96"/>
      <point x="650" y="122"/>
      <point x="650" y="185" type="curve" smooth="yes"/>
      <point x="650" y="489" type="line" smooth="yes"/>
      <point x="650" y="581"/>
      <point x="658" y="597"/>
      <point x="694" y="601" type="curve"/>
      <point x="699" y="620"/>
      <point x="704" y="655"/>
      <point x="704" y="679" type="curve"/>
      <point x="660" y="677"/>
      <point x="600" y="676"/>
      <point x="535" y="676" type="curve" smooth="yes"/>
      <point x="471" y="676"/>
      <point x="424" y="677"/>
      <point x="396" y="679" type="curve"/>
      <point x="396" y="653"/>
      <point x="399" y="619"/>
      <point x="404" y="601" type="curve"/>
      <point x="440" y="597"/>
      <point x="450" y="581"/>
      <point x="450" y="489" type="curve" smooth="yes"/>
      <point x="450" y="185" type="line" smooth="yes"/>
      <point x="450" y="122"/>
      <point x="445" y="96"/>
      <point x="423" y="84" type="curve" smooth="yes"/>
      <point x="414" y="79"/>
      <point x="401" y="75"/>
      <point x="377" y="75" type="curve" smooth="yes"/>
      <point x="353" y="75"/>
      <point x="340" y="79"/>
      <point x="331" y="84" type="curve" smooth="yes"/>
      <point x="309" y="96"/>
      <point x="304" y="122"/>
      <point x="304" y="185" type="curve" smooth="yes"/>
      <point x="304" y="489" type="line" smooth="yes"/>
      <point x="304" y="581"/>
      <point x="312" y="597"/>
      <point x="348" y="601" type="curve"/>
      <point x="353" y="620"/>
      <point x="358" y="655"/>
      <point x="358" y="679" type="curve"/>
      <point x="314" y="677"/>
      <point x="254" y="676"/>
      <point x="189" y="676" type="curve" smooth="yes"/>
      <point x="120" y="676"/>
      <point x="60" y="677"/>
      <point x="30" y="679" type="curve"/>
      <point x="30" y="653"/>
      <point x="33" y="619"/>
      <point x="38" y="601" type="curve"/>
      <point x="92" y="597"/>
      <point x="104" y="581"/>
      <point x="104" y="489" type="curve" smooth="yes"/>
      <point x="104" y="185" type="line" smooth="yes"/>
      <point x="104" y="95"/>
      <point x="94" y="81"/>
      <point x="39" y="75" type="curve"/>
      <point x="30" y="49"/>
      <point x="30" y="24"/>
    </contour>
  </outline>
</glyph>
<glyph name="Yeru-cy" format="2">
  <advance width="1029"/>
  <unicode hex="042B"/>
  <anchor x="544" y="676" name="top"/>
  <outline>
    <contour>
      <point x="30" y="-3" type="curve"/>
      <point x="128" y="-1"/>
      <point x="240" y="0"/>
      <point x="353" y="0" type="curve" smooth="yes"/>
      <point x="565" y="0"/>
      <point x="644" y="78"/>
      <point x="644" y="194" type="curve" smooth="yes"/>
      <point x="644" y="333"/>
      <point x="555" y="396"/>
      <point x="370" y="396" type="curve" smooth="yes"/>
      <point x="333" y="396"/>
      <point x="315" y="394"/>
      <point x="294" y="391" type="curve"/>
      <point x="294" y="308" type="line"/>
      <point x="312" y="312"/>
      <point x="332" y="313"/>
      <point x="343" y="313" type="curve" smooth="yes"/>
      <point x="402" y="313"/>
      <point x="439" y="276"/>
      <point x="439" y="183" type="curve" smooth="yes"/>
      <point x="439" y="113"/>
      <point x="409" y="74"/>
      <point x="369" y="74" type="curve" smooth="yes"/>
      <point x="334" y="74"/>
      <point x="304" y="89"/>
      <point x="304" y="178" type="curve" smooth="yes"/>
      <point x="304" y="479" type="line" smooth="yes"/>
      <point x="304" y="565"/>
      <point x="329" y="595"/>
      <point x="413" y="601" type="curve"/>
      <point x="421" y="623"/>
      <point x="422" y="654"/>
      <point x="422" y="679" type="curve"/>
      <point x="384" y="677"/>
      <point x="295" y="676"/>
      <point x="232" y="676" type="curve" smooth="yes"/>
      <point x="163" y="676"/>
      <point x="93" y="677"/>
      <point x="30" y="679" type="curve"/>
      <point x="30" y="647"/>
      <point x="34" y="621"/>
      <point x="39" y="601" type="curve"/>
      <point x="95" y="593"/>
      <point x="104" y="581"/>
      <point x="104" y="491" type="curve" smooth="yes"/>
      <point x="104" y="187" type="line" smooth="yes"/>
      <point x="104" y="95"/>
      <point x="92" y="79"/>
      <point x="38" y="75" type="curve"/>
      <point x="33" y="56"/>
      <point x="30" y="26"/>
    </contour>
    <component base="I" xOffset="621"/>
  </outline>
</glyph>
<glyph name="Iu-cy" format="2">
  <advance width="1093"/>
  <unicode hex="042E"/>
  <outline>
    <contour>
      <point x="717" y="685" type="curve" smooth="yes"/>
      <point x="512" y="685"/>
      <point x="377" y="554"/>
      <point x="377" y="339" type="curve" smooth="yes"/>
      <point x="377" y="132"/>
      <point x="503" y="-9"/>
      <point x="710" y="-9" type="curve" smooth="yes"/>
      <point x="923" y="-9"/>
      <point x="1058" y="141"/>
      <point x="1058" y="348" type="curve" smooth="yes"/>
      <point x="1058" y="556"/>
      <point x="921" y="685"/>
    </contour>
    <contour>
      <point x="378" y="679" type="curve"/>
      <point x="338" y="677"/>
      <point x="257" y="676"/>
      <point x="209" y="676" type="curve" smooth="yes"/>
      <point x="161" y="676"/>
      <point x="63" y="677"/>
      <point x="30" y="679" type="curve"/>
      <point x="30" y="653"/>
      <point x="34" y="621"/>
      <point x="39" y="601" type="curve"/>
      <point x="95" y="593"/>
      <point x="104" y="581"/>
      <point x="104" y="491" type="curve" smooth="yes"/>
      <point x="104" y="187" type="line" smooth="yes"/>
      <point x="104" y="95"/>
      <point x="94" y="79"/>
      <point x="40" y="75" type="curve"/>
      <point x="35" y="56"/>
      <point x="30" y="21"/>
      <point x="30" y="-3" type="curve"/>
      <point x="77" y="-1"/>
      <point x="150" y="0"/>
      <point x="219" y="0" type="curve" smooth="yes"/>
      <point x="288" y="0"/>
      <point x="348" y="-1"/>
      <point x="378" y="-3" type="curve"/>
      <point x="378" y="23"/>
      <point x="375" y="57"/>
      <point x="370" y="75" type="curve"/>
      <point x="316" y="79"/>
      <point x="304" y="95"/>
      <point x="304" y="187" type="curve" smooth="yes"/>
      <point x="304" y="491" type="line" smooth="yes"/>
      <point x="304" y="581"/>
      <point x="314" y="595"/>
      <point x="369" y="601" type="curve"/>
      <point x="378" y="627"/>
      <point x="378" y="652"/>
    </contour>
    <contour>
      <point x="399" y="387" type="line"/>
      <point x="287" y="387" type="line"/>
      <point x="287" y="304" type="line"/>
      <point x="317" y="313"/>
      <point x="362" y="314"/>
      <point x="399" y="314" type="curve"/>
    </contour>
    <contour>
      <point x="702" y="610" type="curve" smooth="yes"/>
      <point x="795" y="610"/>
      <point x="853" y="489"/>
      <point x="853" y="322" type="curve" smooth="yes"/>
      <point x="853" y="174"/>
      <point x="807" y="69"/>
      <point x="722" y="69" type="curve" smooth="yes"/>
      <point x="624" y="69"/>
      <point x="580" y="206"/>
      <point x="580" y="366" type="curve" smooth="yes"/>
      <point x="580" y="522"/>
      <point x="622" y="610"/>
    </contour>
  </outline>
</glyph>
<glyph name="ge-cy" format="2">
  <advance width="524"/>
  <unicode hex="0433"/>
  <anchor x="369" y="75" name="bottomright"/>
  <anchor x="181" y="234" name="center"/>
  <anchor x="265" y="458" name="top"/>
  <outline>
    <contour>
      <point x="32" y="-3" type="curve"/>
      <point x="62" y="-1"/>
      <point x="124" y="0"/>
      <point x="181" y="0" type="curve" smooth="yes"/>
      <point x="238" y="0"/>
      <point x="328" y="-1"/>
      <point x="378" y="-3" type="curve"/>
      <point x="378" y="19"/>
      <point x="377" y="52"/>
      <point x="369" y="75" type="curve"/>
      <point x="296" y="80"/>
      <point x="276" y="107"/>
      <point x="276" y="165" type="curve" smooth="yes"/>
      <point x="276" y="458" type="line"/>
      <point x="134" y="458"/>
      <point x="72" y="459"/>
      <point x="32" y="461" type="curve"/>
      <point x="32" y="428"/>
      <point x="34" y="405"/>
      <point x="43" y="383" type="curve"/>
      <point x="76" y="383"/>
      <point x="86" y="362"/>
      <point x="86" y="296" type="curve" smooth="yes"/>
      <point x="86" y="162" type="line" smooth="yes"/>
      <point x="86" y="96"/>
      <point x="76" y="75"/>
      <point x="43" y="75" type="curve"/>
      <point x="34" y="53"/>
      <point x="32" y="30"/>
    </contour>
    <contour>
      <point x="414" y="277" type="curve"/>
      <point x="453" y="277"/>
      <point x="489" y="286"/>
      <point x="514" y="300" type="curve"/>
      <point x="502" y="333"/>
      <point x="497" y="423"/>
      <point x="497" y="460" type="curve"/>
      <point x="444" y="458"/>
      <point x="394" y="458"/>
      <point x="266" y="458" type="curve"/>
      <point x="236" y="385" type="line"/>
      <point x="307" y="385" type="line" smooth="yes"/>
      <point x="387" y="385"/>
      <point x="403" y="336"/>
    </contour>
  </outline>
</glyph>
<glyph name="el-cy" format="2">
  <advance width="622"/>
  <unicode hex="043B"/>
  <anchor x="581" y="75" name="bottomright"/>
  <outline>
    <contour>
      <point x="83" y="-6" type="curve" smooth="yes"/>
      <point x="193" y="-6"/>
      <point x="229" y="139"/>
      <point x="247" y="295" type="curve" smooth="yes"/>
      <point x="255" y="364"/>
      <point x="253" y="383"/>
      <point x="300" y="383" type="curve" smooth="yes"/>
      <point x="349" y="383"/>
      <point x="348" y="362"/>
      <point x="348" y="296" type="curve" smooth="yes"/>
      <point x="348" y="162" type="line" smooth="yes"/>
      <point x="348" y="96"/>
      <point x="338" y="75"/>
      <point x="305" y="75" type="curve"/>
      <point x="296" y="53"/>
      <point x="294" y="30"/>
      <point x="294" y="-3" type="curve"/>
      <point x="324" y="-2"/>
      <point x="386" y="0"/>
      <point x="443" y="0" type="curve" smooth="yes"/>
      <point x="500" y="0"/>
      <point x="562" y="-2"/>
      <point x="592" y="-3" type="curve"/>
      <point x="592" y="30"/>
      <point x="590" y="53"/>
      <point x="581" y="75" type="curve"/>
      <point x="548" y="75"/>
      <point x="538" y="96"/>
      <point x="538" y="162" type="curve" smooth="yes"/>
      <point x="538" y="296" type="line" smooth="yes"/>
      <point x="538" y="362"/>
      <point x="548" y="383"/>
      <point x="581" y="383" type="curve"/>
      <point x="590" y="405"/>
      <point x="592" y="428"/>
      <point x="592" y="461" type="curve"/>
      <point x="560" y="459"/>
      <point x="491" y="458"/>
      <point x="325" y="458" type="curve" smooth="yes"/>
      <point x="217" y="458"/>
      <point x="143" y="458"/>
      <point x="97" y="461" type="curve"/>
      <point x="97" y="430"/>
      <point x="100" y="410"/>
      <point x="108" y="383" type="curve"/>
      <point x="178" y="377"/>
      <point x="186" y="372"/>
      <point x="179" y="301" type="curve" smooth="yes"/>
      <point x="168" y="185"/>
      <point x="142" y="130"/>
      <point x="85" y="130" type="curve" smooth="yes"/>
      <point x="68" y="130"/>
      <point x="41" y="135"/>
      <point x="28" y="139" type="curve"/>
      <point x="13" y="105"/>
      <point x="7" y="53"/>
      <point x="12" y="19" type="curve"/>
      <point x="25" y="5"/>
      <point x="53" y="-6"/>
    </contour>
  </outline>
</glyph>
<glyph name="yeru-cy" format="2">
  <advance width="951"/>
  <unicode hex="044B"/>
  <anchor x="471" y="458" name="top"/>
  <outline>
    <contour>
      <point x="32" y="-3" type="curve"/>
      <point x="101" y="0"/>
      <point x="214" y="0"/>
      <point x="323" y="0" type="curve" smooth="yes"/>
      <point x="523" y="0"/>
      <point x="595" y="50"/>
      <point x="595" y="134" type="curve" smooth="yes"/>
      <point x="595" y="233"/>
      <point x="512" y="287"/>
      <point x="333" y="287" type="curve" smooth="yes"/>
      <point x="300" y="287"/>
      <point x="285" y="286"/>
      <point x="268" y="284" type="curve"/>
      <point x="268" y="208" type="line"/>
      <point x="284" y="211"/>
      <point x="298" y="212"/>
      <point x="308" y="212" type="curve" smooth="yes"/>
      <point x="361" y="212"/>
      <point x="384" y="178"/>
      <point x="384" y="131" type="curve" smooth="yes"/>
      <point x="384" y="92"/>
      <point x="364" y="74"/>
      <point x="330" y="74" type="curve" smooth="yes"/>
      <point x="306" y="74"/>
      <point x="276" y="85"/>
      <point x="276" y="149" type="curve" smooth="yes"/>
      <point x="276" y="299" type="line" smooth="yes"/>
      <point x="276" y="357"/>
      <point x="295" y="378"/>
      <point x="370" y="384" type="curve"/>
      <point x="379" y="407"/>
      <point x="381" y="433"/>
      <point x="381" y="461" type="curve"/>
      <point x="348" y="459"/>
      <point x="264" y="458"/>
      <point x="193" y="458" type="curve" smooth="yes"/>
      <point x="124" y="458"/>
      <point x="62" y="460"/>
      <point x="32" y="461" type="curve"/>
      <point x="32" y="428"/>
      <point x="34" y="405"/>
      <point x="43" y="383" type="curve"/>
      <point x="76" y="383"/>
      <point x="86" y="362"/>
      <point x="86" y="296" type="curve" smooth="yes"/>
      <point x="86" y="162" type="line" smooth="yes"/>
      <point x="86" y="96"/>
      <point x="76" y="75"/>
      <point x="43" y="75" type="curve"/>
      <point x="34" y="53"/>
      <point x="32" y="30"/>
    </contour>
    <contour>
      <point x="623" y="-3" type="curve"/>
      <point x="653" y="-2"/>
      <point x="715" y="0"/>
      <point x="772" y="0" type="curve" smooth="yes"/>
      <point x="829" y="0"/>
      <point x="891" y="-2"/>
      <point x="921" y="-3" type="curve"/>
      <point x="921" y="30"/>
      <point x="919" y="53"/>
      <point x="910" y="75" type="curve"/>
      <point x="877" y="75"/>
      <point x="867" y="96"/>
      <point x="867" y="162" type="curve" smooth="yes"/>
      <point x="867" y="296" type="line" smooth="yes"/>
      <point x="867" y="362"/>
      <point x="877" y="383"/>
      <point x="910" y="383" type="curve"/>
      <point x="919" y="405"/>
      <point x="921" y="428"/>
      <point x="921" y="461" type="curve"/>
      <point x="891" y="460"/>
      <point x="829" y="458"/>
      <point x="772" y="458" type="curve" smooth="yes"/>
      <point x="715" y="458"/>
      <point x="653" y="460"/>
      <point x="623" y="461" type="curve"/>
      <point x="623" y="428"/>
      <point x="625" y="405"/>
      <point x="634" y="383" type="curve"/>
      <point x="667" y="383"/>
      <point x="677" y="362"/>
      <point x="677" y="296" type="curve" smooth="yes"/>
      <point x="677" y="162" type="line" smooth="yes"/>
      <point x="677" y="96"/>
      <point x="667" y="75"/>
      <point x="634" y="75" type="curve"/>
      <point x="625" y="53"/>
      <point x="623" y="30"/>
    </contour>
  </outline>
</glyph>
<glyph name="softsign-cy" format="2">
  <advance width="635"/>
  <unicode hex="044C"/>
  <anchor x="181" y="324" name="center"/>
  <outline>
    <contour>
      <point x="32" y="-3" type="curve"/>
      <point x="101" y="0"/>
      <point x="214" y="0"/>
      <point x="323" y="0" type="curve" smooth="yes"/>
      <point x="530" y="0"/>
      <point x="605" y="50"/>
      <point x="605" y="134" type="curve" smooth="yes"/>
      <point x="605" y="233"/>
      <point x="519" y="287"/>
      <point x="333" y="287" type="curve" smooth="yes"/>
      <point x="300" y="287"/>
      <point x="285" y="286"/>
      <point x="268" y="284" type="curve"/>
      <point x="268" y="208" type="line"/>
      <point x="284" y="211"/>
      <point x="298" y="212"/>
      <point x="308" y="212" type="curve" smooth="yes"/>
      <point x="368" y="212"/>
      <point x="394" y="178"/>
      <point x="394" y="131" type="curve" smooth="yes"/>
      <point x="394" y="92"/>
      <point x="370" y="74"/>
      <point x="330" y="74" type="curve" smooth="yes"/>
      <point x="306" y="74"/>
      <point x="276" y="85"/>
      <point x="276" y="149" type="curve" smooth="yes"/>
      <point x="276" y="299" type="line" smooth="yes"/>
      <point x="276" y="357"/>
      <point x="295" y="378"/>
      <point x="370" y="384" type="curve"/>
      <point x="379" y="407"/>
      <point x="381" y="433"/>
      <point x="381" y="461" type="curve"/>
      <point x="348" y="459"/>
      <point x="264" y="458"/>
      <point x="193" y="458" type="curve" smooth="yes"/>
      <point x="124" y="458"/>
      <point x="62" y="460"/>
      <point x="32" y="461" type="curve"/>
      <point x="32" y="428"/>
      <point x="34" y="405"/>
      <point x="43" y="383" type="curve"/>
      <point x="76" y="383"/>
      <point x="86" y="362"/>
      <point x="86" y="296" type="curve" smooth="yes"/>
      <point x="86" y="162" type="line" smooth="yes"/>
      <point x="86" y="96"/>
      <point x="76" y="75"/>
      <point x="43" y="75" type="curve"/>
      <point x="34" y="53"/>
      <point x="32" y="30"/>
    </contour>
  </outline>
</glyph>
<glyph name="ia-cy" format="2">
  <advance width="614"/>
  <unicode hex="044F"/>
  <outline>
    <contour>
      <point x="292" y="-2" type="curve"/>
      <point x="323" y="-1"/>
      <point x="403" y="0"/>
      <point x="450" y="0" type="curve" smooth="yes"/>
      <point x="496" y="0"/>
      <point x="543" y="-1"/>
      <point x="584" y="-2" type="curve"/>
      <point x="584" y="32"/>
      <point x="582" y="53"/>
      <point x="577" y="69" type="curve"/>
      <point x="532" y="72"/>
      <point x="523" y="83"/>
      <point x="523" y="134" type="curve" smooth="yes"/>
      <point x="523" y="304" type="line" smooth="yes"/>
      <point x="523" y="377"/>
      <point x="531" y="381"/>
      <point x="578" y="391" type="curve"/>
      <point x="583" y="408"/>
      <point x="584" y="453"/>
      <point x="584" y="461" type="curve"/>
      <point x="535" y="458"/>
      <point x="491" y="458"/>
      <point x="461" y="458" type="curve" smooth="yes"/>
      <point x="408" y="458"/>
      <point x="352" y="463"/>
      <point x="297" y="463" type="curve" smooth="yes"/>
      <point x="104" y="463"/>
      <point x="48" y="400"/>
      <point x="48" y="322" type="curve" smooth="yes"/>
      <point x="48" y="227"/>
      <point x="131" y="174"/>
      <point x="253" y="175" type="curve"/>
      <point x="335" y="175" type="line"/>
      <point x="335" y="237" type="line"/>
      <point x="325" y="233"/>
      <point x="320" y="233"/>
      <point x="315" y="233" type="curve" smooth="yes"/>
      <point x="262" y="233"/>
      <point x="238" y="259"/>
      <point x="238" y="317" type="curve" smooth="yes"/>
      <point x="238" y="365"/>
      <point x="254" y="388"/>
      <point x="300" y="388" type="curve" smooth="yes"/>
      <point x="313" y="388"/>
      <point x="328" y="386"/>
      <point x="343" y="380" type="curve"/>
      <point x="335" y="426" type="line"/>
      <point x="335" y="134" type="line" smooth="yes"/>
      <point x="335" y="74"/>
      <point x="325" y="70"/>
      <point x="298" y="69" type="curve"/>
      <point x="294" y="59"/>
      <point x="292" y="25"/>
    </contour>
    <contour>
      <point x="209" y="-6" type="curve"/>
      <point x="227" y="12"/>
      <point x="233" y="30"/>
      <point x="242" y="68" type="curve" smooth="yes"/>
      <point x="254" y="116"/>
      <point x="261" y="159"/>
      <point x="335" y="160" type="curve"/>
      <point x="335" y="183" type="line"/>
      <point x="233" y="183" type="line"/>
      <point x="140" y="183"/>
      <point x="117" y="149"/>
      <point x="98" y="120" type="curve" smooth="yes"/>
      <point x="80" y="92"/>
      <point x="68" y="77"/>
      <point x="15" y="72" type="curve"/>
      <point x="15" y="65"/>
      <point x="17" y="18"/>
      <point x="26" y="0" type="curve"/>
      <point x="62" y="0"/>
      <point x="153" y="-1"/>
    </contour>
  </outline>
</glyph>
<glyph name="Yat-cy" format="2">
  <advance width="775"/>
  <unicode hex="0462"/>
  <outline>
    <contour>
      <point x="116" y="-3" type="curve"/>
      <point x="254" y="0"/>
      <point x="374" y="0"/>
      <point x="454" y="0" type="curve" smooth="yes"/>
      <point x="675" y="0"/>
      <point x="745" y="74"/>
      <point x="745" y="178" type="curve" smooth="yes"/>
      <point x="745" y="301"/>
      <point x="648" y="359"/>
      <point x="458" y="359" type="curve" smooth="yes"/>
      <point x="421" y="359"/>
      <point x="402" y="357"/>
      <point x="380" y="354" type="curve"/>
      <point x="380" y="271" type="line"/>
      <point x="400" y="275"/>
      <point x="421" y="276"/>
      <point x="432" y="276" type="curve" smooth="yes"/>
      <point x="498" y="276"/>
      <point x="539" y="241"/>
      <point x="539" y="169" type="curve" smooth="yes"/>
      <point x="539" y="104"/>
      <point x="505" y="76"/>
      <point x="457" y="76" type="curve" smooth="yes"/>
      <point x="422" y="76"/>
      <point x="390" y="92"/>
      <point x="390" y="178" type="curve" smooth="yes"/>
      <point x="390" y="580" type="line" smooth="yes"/>
      <point x="390" y="622"/>
      <point x="405" y="636"/>
      <point x="455" y="639" type="curve"/>
      <point x="463" y="661"/>
      <point x="464" y="692"/>
      <point x="464" y="717" type="curve"/>
      <point x="435" y="715"/>
      <point x="369" y="714"/>
      <point x="311" y="714" type="curve" smooth="yes"/>
      <point x="252" y="714"/>
      <point x="179" y="715"/>
      <point x="116" y="717" type="curve"/>
      <point x="116" y="685"/>
      <point x="120" y="659"/>
      <point x="125" y="639" type="curve"/>
      <point x="181" y="635"/>
      <point x="190" y="629"/>
      <point x="190" y="582" type="curve" smooth="yes"/>
      <point x="190" y="187" type="line" smooth="yes"/>
      <point x="190" y="95"/>
      <point x="178" y="79"/>
      <point x="124" y="75" type="curve"/>
      <point x="119" y="56"/>
      <point x="116" y="26"/>
    </contour>
    <contour>
      <point x="109" y="387" type="curve"/>
      <point x="122" y="464"/>
      <point x="141" y="502"/>
      <point x="186" y="502" type="curve" smooth="yes"/>
      <point x="407" y="502" type="line" smooth="yes"/>
      <point x="462" y="502"/>
      <point x="484" y="471"/>
      <point x="496" y="399" type="curve"/>
      <point x="538" y="394"/>
      <point x="574" y="397"/>
      <point x="602" y="410" type="curve"/>
      <point x="591" y="463"/>
      <point x="584" y="529"/>
      <point x="584" y="579" type="curve"/>
      <point x="506" y="577"/>
      <point x="432" y="577"/>
      <point x="299" y="577" type="curve" smooth="yes"/>
      <point x="159" y="577"/>
      <point x="101" y="577"/>
      <point x="28" y="579" type="curve"/>
      <point x="28" y="525"/>
      <point x="20" y="448"/>
      <point x="10" y="397" type="curve"/>
      <point x="37" y="383"/>
      <point x="73" y="382"/>
    </contour>
  </outline>
</glyph>
<glyph name="semisoftsign-cy" format="2">
  <advance width="638"/>
  <unicode hex="048D"/>
  <outline>
    <contour>
      <point x="32" y="-3" type="curve"/>
      <point x="101" y="0"/>
      <point x="214" y="0"/>
      <point x="323" y="0" type="curve" smooth="yes"/>
      <point x="535" y="0"/>
      <point x="608" y="54"/>
      <point x="608" y="145" type="curve" smooth="yes"/>
      <point x="608" y="245"/>
      <point x="521" y="302"/>
      <point x="328" y="302" type="curve" smooth="yes"/>
      <point x="302" y="302"/>
      <point x="285" y="301"/>
      <point x="268" y="299" type="curve"/>
      <point x="268" y="223" type="line"/>
      <point x="284" y="226"/>
      <point x="298" y="227"/>
      <point x="308" y="227" type="curve" smooth="yes"/>
      <point x="368" y="227"/>
      <point x="394" y="191"/>
      <point x="394" y="142" type="curve" smooth="yes"/>
      <point x="394" y="94"/>
      <point x="368" y="76"/>
      <point x="331" y="76" type="curve" smooth="yes"/>
      <point x="306" y="76"/>
      <point x="276" y="85"/>
      <point x="276" y="149" type="curve" smooth="yes"/>
      <point x="276" y="653" type="line" smooth="yes"/>
      <point x="276" y="688"/>
      <point x="263" y="707"/>
      <point x="241" y="717" type="curve"/>
      <point x="209" y="701"/>
      <point x="124" y="684"/>
      <point x="25" y="684" type="curve"/>
      <point x="14" y="663"/>
      <point x="12" y="634"/>
      <point x="12" y="609" type="curve"/>
      <point x="67" y="603"/>
      <point x="86" y="587"/>
      <point x="86" y="549" type="curve" smooth="yes"/>
      <point x="86" y="162" type="line" smooth="yes"/>
      <point x="86" y="96"/>
      <point x="76" y="75"/>
      <point x="43" y="75" type="curve"/>
      <point x="34" y="53"/>
      <point x="32" y="30"/>
    </contour>
    <contour>
      <point x="-6" y="380" type="curve"/>
      <point x="82" y="384"/>
      <point x="333" y="385"/>
      <point x="418" y="385" type="curve"/>
      <point x="426" y="411"/>
      <point x="428" y="441"/>
      <point x="428" y="458" type="curve"/>
      <point x="3" y="458" type="line"/>
      <point x="-4" y="435"/>
      <point x="-6" y="404"/>
    </contour>
  </outline>
</glyph>
<glyph name="kaverticalstroke-cy" format="2">
  <advance width="764"/>
  <unicode hex="049D"/>
  <outline>
    <contour>
      <point x="32" y="-2" type="curve"/>
      <point x="77" y="-1"/>
      <point x="146" y="0"/>
      <point x="211" y="0" type="curve" smooth="yes"/>
      <point x="277" y="0"/>
      <point x="334" y="-1"/>
      <point x="362" y="-2" type="curve"/>
      <point x="362" y="20"/>
      <point x="359" y="55"/>
      <point x="354" y="71" type="curve"/>
      <point x="304" y="74"/>
      <point x="292" y="85"/>
      <point x="292" y="162" type="curve" smooth="yes"/>
      <point x="292" y="299" type="line" smooth="yes"/>
      <point x="292" y="374"/>
      <point x="302" y="381"/>
      <point x="353" y="387" type="curve"/>
      <point x="362" y="414"/>
      <point x="362" y="437"/>
      <point x="362" y="460" type="curve"/>
      <point x="324" y="459"/>
      <point x="247" y="458"/>
      <point x="202" y="458" type="curve" smooth="yes"/>
      <point x="157" y="458"/>
      <point x="63" y="459"/>
      <point x="32" y="460" type="curve"/>
      <point x="32" y="438"/>
      <point x="36" y="406"/>
      <point x="41" y="387" type="curve"/>
      <point x="93" y="379"/>
      <point x="102" y="374"/>
      <point x="102" y="299" type="curve" smooth="yes"/>
      <point x="102" y="162" type="line" smooth="yes"/>
      <point x="102" y="85"/>
      <point x="92" y="74"/>
      <point x="42" y="71" type="curve"/>
      <point x="37" y="54"/>
      <point x="32" y="18"/>
    </contour>
    <contour>
      <point x="555" y="-6" type="curve"/>
      <point x="610" y="-1"/>
      <point x="702" y="0"/>
      <point x="737" y="0" type="curve"/>
      <point x="747" y="18"/>
      <point x="750" y="49"/>
      <point x="749" y="71" type="curve"/>
      <point x="681" y="77"/>
      <point x="672" y="94"/>
      <point x="612" y="198" type="curve" smooth="yes"/>
      <point x="580" y="252"/>
      <point x="530" y="263"/>
      <point x="479" y="265" type="curve"/>
      <point x="488" y="259" type="line"/>
      <point x="513" y="263"/>
      <point x="529" y="281"/>
      <point x="559" y="318" type="curve" smooth="yes"/>
      <point x="577" y="339"/>
      <point x="589" y="346"/>
      <point x="607" y="346" type="curve" smooth="yes"/>
      <point x="623" y="346"/>
      <point x="630" y="337"/>
      <point x="634" y="313" type="curve"/>
      <point x="682" y="308"/>
      <point x="708" y="314"/>
      <point x="733" y="319" type="curve"/>
      <point x="725" y="350"/>
      <point x="726" y="421"/>
      <point x="730" y="458" type="curve"/>
      <point x="717" y="461"/>
      <point x="693" y="465"/>
      <point x="662" y="465" type="curve" smooth="yes"/>
      <point x="576" y="465"/>
      <point x="569" y="433"/>
      <point x="498" y="343" type="curve" smooth="yes"/>
      <point x="451" y="282"/>
      <point x="433" y="274"/>
      <point x="404" y="274" type="curve" smooth="yes"/>
      <point x="283" y="274" type="line"/>
      <point x="283" y="206" type="line"/>
      <point x="414" y="206" type="line" smooth="yes"/>
      <point x="432" y="206"/>
      <point x="441" y="184"/>
      <point x="470" y="121" type="curve" smooth="yes"/>
      <point x="510" y="35"/>
      <point x="517" y="22"/>
    </contour>
    <contour>
      <point x="419" y="110" type="curve"/>
      <point x="418" y="177"/>
      <point x="417" y="226"/>
      <point x="417" y="237" type="curve" smooth="yes"/>
      <point x="417" y="247"/>
      <point x="418" y="285"/>
      <point x="419" y="352" type="curve"/>
      <point x="402" y="361"/>
      <point x="360" y="368"/>
      <point x="335" y="366" type="curve"/>
      <point x="335" y="119" type="line"/>
      <point x="354" y="108"/>
      <point x="393" y="106"/>
    </contour>
  </outline>
</glyph>
<glyph name="kabashkir-cy" format="2">
  <advance width="763"/>
  <unicode hex="04A1"/>
  <outline>
    <contour>
      <point x="574" y="-9" type="curve"/>
      <point x="621" y="-1"/>
      <point x="708" y="0"/>
      <point x="735" y="0" type="curve"/>
      <point x="744" y="17"/>
      <point x="748" y="48"/>
      <point x="748" y="75" type="curve"/>
      <point x="677" y="83"/>
      <point x="671" y="97"/>
      <point x="604" y="216" type="curve" smooth="yes"/>
      <point x="581" y="257"/>
      <point x="528" y="266"/>
      <point x="487" y="269" type="curve"/>
      <point x="508" y="266" type="line"/>
      <point x="536" y="271"/>
      <point x="544" y="284"/>
      <point x="567" y="319" type="curve" smooth="yes"/>
      <point x="581" y="342"/>
      <point x="588" y="350"/>
      <point x="601" y="350" type="curve" smooth="yes"/>
      <point x="609" y="350"/>
      <point x="615" y="347"/>
      <point x="617" y="311" type="curve"/>
      <point x="657" y="309"/>
      <point x="692" y="313"/>
      <point x="722" y="321" type="curve"/>
      <point x="714" y="353"/>
      <point x="716" y="421"/>
      <point x="721" y="458" type="curve"/>
      <point x="704" y="461"/>
      <point x="683" y="465"/>
      <point x="652" y="465" type="curve" smooth="yes"/>
      <point x="574" y="465"/>
      <point x="572" y="436"/>
      <point x="504" y="343" type="curve" smooth="yes"/>
      <point x="459" y="282"/>
      <point x="445" y="273"/>
      <point x="402" y="273" type="curve"/>
      <point x="402" y="207" type="line"/>
      <point x="457" y="207"/>
      <point x="470" y="35"/>
    </contour>
    <contour>
      <point x="112" y="-3" type="curve"/>
      <point x="160" y="-1"/>
      <point x="250" y="0"/>
      <point x="306" y="0" type="curve" smooth="yes"/>
      <point x="359" y="0"/>
      <point x="417" y="-1"/>
      <point x="444" y="-3" type="curve"/>
      <point x="444" y="30"/>
      <point x="442" y="53"/>
      <point x="433" y="75" type="curve"/>
      <point x="408" y="75"/>
      <point x="402" y="96"/>
      <point x="402" y="162" type="curve" smooth="yes"/>
      <point x="402" y="296" type="line" smooth="yes"/>
      <point x="402" y="362"/>
      <point x="410" y="383"/>
      <point x="440" y="383" type="curve"/>
      <point x="449" y="405"/>
      <point x="451" y="428"/>
      <point x="451" y="461" type="curve"/>
      <point x="414" y="459"/>
      <point x="357" y="458"/>
      <point x="210" y="458" type="curve"/>
      <point x="210" y="159" type="line" smooth="yes"/>
      <point x="210" y="101"/>
      <point x="192" y="74"/>
      <point x="120" y="69" type="curve"/>
      <point x="112" y="48"/>
      <point x="112" y="17"/>
    </contour>
    <contour>
      <point x="110" y="297" type="curve"/>
      <point x="119" y="366"/>
      <point x="130" y="390"/>
      <point x="188" y="390" type="curve" smooth="yes"/>
      <point x="221" y="390" type="line"/>
      <point x="221" y="458" type="line"/>
      <point x="114" y="458"/>
      <point x="75" y="458"/>
      <point x="26" y="460" type="curve"/>
      <point x="26" y="420"/>
      <point x="22" y="356"/>
      <point x="10" y="320" type="curve"/>
      <point x="35" y="306"/>
      <point x="71" y="297"/>
    </contour>
  </outline>
</glyph>
<glyph name="Haabkhasian-cy" format="2">
  <advance width="981"/>
  <unicode hex="04A8"/>
  <outline>
    <contour>
      <point x="433" y="-9" type="curve" smooth="yes"/>
      <point x="679" y="-9"/>
      <point x="910" y="148"/>
      <point x="910" y="392" type="curve" smooth="yes"/>
      <point x="910" y="553"/>
      <point x="809" y="652"/>
      <point x="641" y="652" type="curve" smooth="yes"/>
      <point x="463" y="652"/>
      <point x="353" y="542"/>
      <point x="353" y="366" type="curve" smooth="yes"/>
      <point x="353" y="139"/>
      <point x="535" y="0"/>
      <point x="739" y="0" type="curve" smooth="yes"/>
      <point x="835" y="0"/>
      <point x="911" y="31"/>
      <point x="971" y="85" type="curve"/>
      <point x="959" y="109"/>
      <point x="939" y="132"/>
      <point x="918" y="145" type="curve"/>
      <point x="877" y="109"/>
      <point x="826" y="89"/>
      <point x="758" y="89" type="curve" smooth="yes"/>
      <point x="617" y="89"/>
      <point x="549" y="174"/>
      <point x="549" y="388" type="curve" smooth="yes"/>
      <point x="549" y="518"/>
      <point x="574" y="576"/>
      <point x="626" y="576" type="curve" smooth="yes"/>
      <point x="677" y="576"/>
      <point x="704" y="520"/>
      <point x="704" y="374" type="curve" smooth="yes"/>
      <point x="704" y="159"/>
      <point x="645" y="67"/>
      <point x="493" y="67" type="curve" smooth="yes"/>
      <point x="308" y="67"/>
      <point x="241" y="202"/>
      <point x="241" y="363" type="curve" smooth="yes"/>
      <point x="241" y="513"/>
      <point x="299" y="594"/>
      <point x="388" y="609" type="curve"/>
      <point x="389" y="639"/>
      <point x="385" y="664"/>
      <point x="374" y="684" type="curve"/>
      <point x="169" y="671"/>
      <point x="35" y="536"/>
      <point x="35" y="344" type="curve" smooth="yes"/>
      <point x="35" y="131"/>
      <point x="201" y="-9"/>
    </contour>
  </outline>
</glyph>
<glyph name="haabkhasian-cy" format="2">
  <advance width="863"/>
  <unicode hex="04A9"/>
  <outline>
    <contour>
      <point x="358" y="-9" type="curve" smooth="yes"/>
      <point x="579" y="-9"/>
      <point x="767" y="107"/>
      <point x="767" y="275" type="curve" smooth="yes"/>
      <point x="767" y="385"/>
      <point x="687" y="453"/>
      <point x="543" y="453" type="curve" smooth="yes"/>
      <point x="384" y="453"/>
      <point x="291" y="370"/>
      <point x="291" y="251" type="curve" smooth="yes"/>
      <point x="291" y="94"/>
      <point x="454" y="-3"/>
      <point x="625" y="-3" type="curve" smooth="yes"/>
      <point x="713" y="-3"/>
      <point x="780" y="23"/>
      <point x="833" y="63" type="curve"/>
      <point x="821" y="86"/>
      <point x="802" y="108"/>
      <point x="782" y="120" type="curve"/>
      <point x="744" y="90"/>
      <point x="692" y="72"/>
      <point x="618" y="72" type="curve" smooth="yes"/>
      <point x="522" y="72"/>
      <point x="477" y="103"/>
      <point x="477" y="249" type="curve" smooth="yes"/>
      <point x="477" y="342"/>
      <point x="495" y="379"/>
      <point x="529" y="379" type="curve" smooth="yes"/>
      <point x="567" y="379"/>
      <point x="583" y="334"/>
      <point x="583" y="248" type="curve" smooth="yes"/>
      <point x="583" y="123"/>
      <point x="549" y="73"/>
      <point x="419" y="73" type="curve" smooth="yes"/>
      <point x="250" y="73"/>
      <point x="214" y="158"/>
      <point x="214" y="243" type="curve" smooth="yes"/>
      <point x="214" y="322"/>
      <point x="245" y="380"/>
      <point x="302" y="397" type="curve"/>
      <point x="300" y="423"/>
      <point x="292" y="446"/>
      <point x="279" y="466" type="curve"/>
      <point x="134" y="451"/>
      <point x="30" y="367"/>
      <point x="30" y="233" type="curve" smooth="yes"/>
      <point x="30" y="81"/>
      <point x="164" y="-9"/>
    </contour>
  </outline>
</glyph>
<glyph name="cheverticalstroke-cy" format="2">
  <advance width="715"/>
  <unicode hex="04B9"/>
  <outline>
    <contour>
      <point x="685" y="-3" type="curve"/>
      <point x="685" y="30"/>
      <point x="683" y="53"/>
      <point x="674" y="75" type="curve"/>
      <point x="641" y="75"/>
      <point x="631" y="96"/>
      <point x="631" y="162" type="curve" smooth="yes"/>
      <point x="631" y="296" type="line" smooth="yes"/>
      <point x="631" y="362"/>
      <point x="641" y="383"/>
      <point x="674" y="383" type="curve"/>
      <point x="683" y="405"/>
      <point x="685" y="428"/>
      <point x="685" y="461" type="curve"/>
      <point x="655" y="460"/>
      <point x="593" y="458"/>
      <point x="537" y="458" type="curve" smooth="yes"/>
      <point x="481" y="458"/>
      <point x="421" y="460"/>
      <point x="392" y="461" type="curve"/>
      <point x="392" y="428"/>
      <point x="394" y="405"/>
      <point x="403" y="383" type="curve"/>
      <point x="432" y="383"/>
      <point x="441" y="362"/>
      <point x="441" y="296" type="curve" smooth="yes"/>
      <point x="441" y="147" type="line" smooth="yes"/>
      <point x="441" y="93"/>
      <point x="432" y="75"/>
      <point x="348" y="75" type="curve"/>
      <point x="340" y="48"/>
      <point x="339" y="18"/>
      <point x="339" y="-3" type="curve"/>
      <point x="372" y="-1"/>
      <point x="466" y="0"/>
      <point x="520" y="0" type="curve" smooth="yes"/>
      <point x="574" y="0"/>
      <point x="631" y="-1"/>
    </contour>
    <contour>
      <point x="278" y="180" type="curve" smooth="yes"/>
      <point x="353" y="180"/>
      <point x="404" y="188"/>
      <point x="443" y="201" type="curve"/>
      <point x="443" y="263" type="line"/>
      <point x="428" y="259"/>
      <point x="397" y="256"/>
      <point x="367" y="256" type="curve" smooth="yes"/>
      <point x="285" y="256"/>
      <point x="259" y="279"/>
      <point x="259" y="328" type="curve" smooth="yes"/>
      <point x="259" y="359"/>
      <point x="269" y="383"/>
      <point x="297" y="383" type="curve"/>
      <point x="306" y="405"/>
      <point x="308" y="428"/>
      <point x="308" y="461" type="curve"/>
      <point x="279" y="460"/>
      <point x="219" y="458"/>
      <point x="163" y="458" type="curve" smooth="yes"/>
      <point x="107" y="458"/>
      <point x="45" y="460"/>
      <point x="15" y="461" type="curve"/>
      <point x="15" y="428"/>
      <point x="17" y="405"/>
      <point x="26" y="383" type="curve"/>
      <point x="68" y="383"/>
      <point x="69" y="353"/>
      <point x="70" y="320" type="curve" smooth="yes"/>
      <point x="74" y="218"/>
      <point x="113" y="180"/>
    </contour>
    <contour>
      <point x="402" y="110" type="curve"/>
      <point x="400" y="137"/>
      <point x="399" y="180"/>
      <point x="399" y="217" type="curve" smooth="yes"/>
      <point x="399" y="257"/>
      <point x="400" y="295"/>
      <point x="402" y="330" type="curve"/>
      <point x="384" y="341"/>
      <point x="341" y="347"/>
      <point x="313" y="345" type="curve"/>
      <point x="313" y="121" type="line"/>
      <point x="334" y="109"/>
      <point x="374" y="106"/>
    </contour>
  </outline>
</glyph>
<glyph name="Enhook-cy" format="2">
  <advance width="802"/>
  <unicode hex="04C7"/>
  <outline>
    <contour>
      <point x="459" y="-249" type="curve"/>
      <point x="555" y="-204"/>
      <point x="698" y="-92"/>
      <point x="698" y="83" type="curve" smooth="yes"/>
      <point x="698" y="491" type="line" smooth="yes"/>
      <point x="698" y="581"/>
      <point x="708" y="595"/>
      <point x="763" y="601" type="curve"/>
      <point x="772" y="627"/>
      <point x="772" y="652"/>
      <point x="772" y="679" type="curve"/>
      <point x="732" y="677"/>
      <point x="651" y="676"/>
      <point x="603" y="676" type="curve" smooth="yes"/>
      <point x="555" y="676"/>
      <point x="457" y="677"/>
      <point x="424" y="679" type="curve"/>
      <point x="424" y="653"/>
      <point x="428" y="621"/>
      <point x="433" y="601" type="curve"/>
      <point x="489" y="593"/>
      <point x="498" y="581"/>
      <point x="498" y="491" type="curve" smooth="yes"/>
      <point x="498" y="37" type="line" smooth="yes"/>
      <point x="498" y="-58"/>
      <point x="477" y="-110"/>
      <point x="412" y="-175" type="curve"/>
      <point x="416" y="-207"/>
      <point x="434" y="-236"/>
    </contour>
    <contour>
      <point x="30" y="-3" type="curve"/>
      <point x="77" y="-1"/>
      <point x="150" y="0"/>
      <point x="219" y="0" type="curve" smooth="yes"/>
      <point x="288" y="0"/>
      <point x="348" y="-1"/>
      <point x="378" y="-3" type="curve"/>
      <point x="378" y="23"/>
      <point x="375" y="57"/>
      <point x="370" y="75" type="curve"/>
      <point x="316" y="79"/>
      <point x="304" y="95"/>
      <point x="304" y="187" type="curve" smooth="yes"/>
      <point x="304" y="491" type="line" smooth="yes"/>
      <point x="304" y="581"/>
      <point x="314" y="595"/>
      <point x="369" y="601" type="curve"/>
      <point x="378" y="627"/>
      <point x="378" y="652"/>
      <point x="378" y="679" type="curve"/>
      <point x="338" y="677"/>
      <point x="257" y="676"/>
      <point x="209" y="676" type="curve" smooth="yes"/>
      <point x="161" y="676"/>
      <point x="63" y="677"/>
      <point x="30" y="679" type="curve"/>
      <point x="30" y="653"/>
      <point x="34" y="621"/>
      <point x="39" y="601" type="curve"/>
      <point x="95" y="593"/>
      <point x="104" y="581"/>
      <point x="104" y="491" type="curve" smooth="yes"/>
      <point x="104" y="187" type="line" smooth="yes"/>
      <point x="104" y="95"/>
      <point x="94" y="79"/>
      <point x="40" y="75" type="curve"/>
      <point x="35" y="56"/>
      <point x="30" y="21"/>
    </contour>
    <contour>
      <point x="300" y="304" type="line"/>
      <point x="356" y="313"/>
      <point x="437" y="314"/>
      <point x="504" y="314" type="curve"/>
      <point x="504" y="387" type="line"/>
      <point x="300" y="387" type="line"/>
    </contour>
  </outline>
</glyph>
<glyph name="schwa-cy" format="2">
  <advance width="545"/>
  <unicode hex="04D9"/>
  <anchor x="273" y="458" name="top"/>
  <outline>
    <contour>
      <point x="260" y="-9" type="curve" smooth="yes"/>
      <point x="416" y="-9"/>
      <point x="515" y="80"/>
      <point x="515" y="236" type="curve" smooth="yes"/>
      <point x="515" y="368"/>
      <point x="444" y="467"/>
      <point x="238" y="467" type="curve" smooth="yes"/>
      <point x="173" y="467"/>
      <point x="99" y="457"/>
      <point x="50" y="437" type="curve"/>
      <point x="55" y="392"/>
      <point x="53" y="353"/>
      <point x="45" y="314" type="curve"/>
      <point x="72" y="300"/>
      <point x="115" y="295"/>
      <point x="152" y="299" type="curve"/>
      <point x="158" y="372"/>
      <point x="179" y="396"/>
      <point x="221" y="396" type="curve" smooth="yes"/>
      <point x="293" y="396"/>
      <point x="327" y="328"/>
      <point x="327" y="215" type="curve" smooth="yes"/>
      <point x="327" y="122"/>
      <point x="304" y="65"/>
      <point x="258" y="65" type="curve" smooth="yes"/>
      <point x="211" y="65"/>
      <point x="197" y="122"/>
      <point x="197" y="239" type="curve"/>
      <point x="162" y="199" type="line"/>
      <point x="242" y="199"/>
      <point x="301" y="196"/>
      <point x="340" y="190" type="curve"/>
      <point x="340" y="269" type="line"/>
      <point x="64" y="269" type="line"/>
      <point x="49" y="255"/>
      <point x="37" y="234"/>
      <point x="31" y="210" type="curve"/>
      <point x="31" y="79"/>
      <point x="105" y="-9"/>
    </contour>
  </outline>
</glyph>
<glyph name="dzeabkhasian-cy" format="2">
  <advance width="524"/>
  <unicode hex="04E1"/>
  <outline>
    <contour>
      <point x="227" y="-249" type="curve" smooth="yes"/>
      <point x="396" y="-249"/>
      <point x="494" y="-164"/>
      <point x="494" y="-32" type="curve" smooth="yes"/>
      <point x="494" y="90"/>
      <point x="411" y="169"/>
      <point x="300" y="169" type="curve"/>
      <point x="308" y="140" type="line"/>
      <point x="369" y="215"/>
      <point x="427" y="296"/>
      <point x="476" y="385" type="curve"/>
      <point x="474" y="415"/>
      <point x="468" y="438"/>
      <point x="457" y="460" type="curve"/>
      <point x="400" y="458"/>
      <point x="311" y="458"/>
      <point x="249" y="458" type="curve" smooth="yes"/>
      <point x="197" y="458"/>
      <point x="105" y="458"/>
      <point x="66" y="460" type="curve"/>
      <point x="67" y="392"/>
      <point x="58" y="299"/>
      <point x="45" y="242" type="curve"/>
      <point x="70" y="230"/>
      <point x="104" y="227"/>
      <point x="140" y="229" type="curve"/>
      <point x="156" y="298"/>
      <point x="173" y="316"/>
      <point x="215" y="316" type="curve" smooth="yes"/>
      <point x="358" y="316" type="line"/>
      <point x="346" y="345" type="line"/>
      <point x="296" y="264"/>
      <point x="233" y="181"/>
      <point x="170" y="117" type="curve"/>
      <point x="170" y="95"/>
      <point x="180" y="65"/>
      <point x="190" y="50" type="curve"/>
      <point x="271" y="50"/>
      <point x="313" y="11"/>
      <point x="313" y="-68" type="curve" smooth="yes"/>
      <point x="313" y="-135"/>
      <point x="283" y="-175"/>
      <point x="228" y="-175" type="curve" smooth="yes"/>
      <point x="171" y="-175"/>
      <point x="148" y="-131"/>
      <point x="139" y="-36" type="curve"/>
      <point x="110" y="-34"/>
      <point x="72" y="-38"/>
      <point x="51" y="-48" type="curve"/>
      <point x="53" y="-98"/>
      <point x="52" y="-148"/>
      <point x="40" y="-198" type="curve"/>
      <point x="93" y="-233"/>
      <point x="154" y="-249"/>
    </contour>
  </outline>
</glyph>
<glyph name="elhook-cy" format="2">
  <advance width="637"/>
  <unicode hex="0513"/>
  <outline>
    <contour>
      <point x="324" y="-249" type="curve"/>
      <point x="416" y="-204"/>
      <point x="553" y="-92"/>
      <point x="553" y="83" type="curve" smooth="yes"/>
      <point x="553" y="296" type="line" smooth="yes"/>
      <point x="553" y="362"/>
      <point x="563" y="383"/>
      <point x="596" y="383" type="curve"/>
      <point x="605" y="405"/>
      <point x="607" y="428"/>
      <point x="607" y="461" type="curve"/>
      <point x="575" y="459"/>
      <point x="506" y="458"/>
      <point x="340" y="458" type="curve" smooth="yes"/>
      <point x="232" y="458"/>
      <point x="158" y="458"/>
      <point x="112" y="461" type="curve"/>
      <point x="112" y="430"/>
      <point x="115" y="410"/>
      <point x="123" y="383" type="curve"/>
      <point x="186" y="378"/>
      <point x="204" y="372"/>
      <point x="194" y="301" type="curve" smooth="yes"/>
      <point x="177" y="182"/>
      <point x="162" y="130"/>
      <point x="92" y="130" type="curve" smooth="yes"/>
      <point x="65" y="130"/>
      <point x="41" y="135"/>
      <point x="28" y="139" type="curve"/>
      <point x="13" y="105"/>
      <point x="7" y="53"/>
      <point x="12" y="19" type="curve"/>
      <point x="25" y="5"/>
      <point x="52" y="-6"/>
      <point x="87" y="-6" type="curve" smooth="yes"/>
      <point x="208" y="-6"/>
      <point x="245" y="145"/>
      <point x="262" y="295" type="curve" smooth="yes"/>
      <point x="270" y="364"/>
      <point x="272" y="371"/>
      <point x="286" y="378" type="curve" smooth="yes"/>
      <point x="292" y="381"/>
      <point x="305" y="383"/>
      <point x="315" y="383" type="curve" smooth="yes"/>
      <point x="324" y="383"/>
      <point x="334" y="381"/>
      <point x="342" y="377" type="curve" smooth="yes"/>
      <point x="362" y="367"/>
      <point x="363" y="351"/>
      <point x="363" y="296" type="curve" smooth="yes"/>
      <point x="363" y="37" type="line" smooth="yes"/>
      <point x="363" y="-58"/>
      <point x="342" y="-110"/>
      <point x="277" y="-175" type="curve"/>
      <point x="281" y="-207"/>
      <point x="299" y="-236"/>
    </contour>
  </outline>
</glyph>
<glyph name="Germandbls" format="2">
  <advance width="775"/>
  <unicode hex="1E9E"/>
  <outline>
    <contour>
      <point x="516" y="626" type="line"/>
      <point x="476" y="545"/>
      <point x="427" y="467"/>
      <point x="380" y="413" type="curve"/>
      <point x="380" y="391"/>
      <point x="391" y="347"/>
      <point x="403" y="328" type="curve"/>
      <point x="512" y="318"/>
      <point x="574" y="277"/>
      <point x="574" y="171" type="curve" smooth="yes"/>
      <point x="574" y="91"/>
      <point x="538" y="75"/>
      <point x="509" y="75" type="curve" smooth="yes"/>
      <point x="481" y="75"/>
      <point x="462" y="90"/>
      <point x="460" y="192" type="curve"/>
      <point x="416" y="192"/>
      <point x="382" y="188"/>
      <point x="350" y="177" type="curve"/>
      <point x="350" y="142"/>
      <point x="347" y="77"/>
      <point x="337" y="32" type="curve"/>
      <point x="368" y="9"/>
      <point x="412" y="-9"/>
      <point x="496" y="-9" type="curve" smooth="yes"/>
      <point x="664" y="-9"/>
      <point x="755" y="63"/>
      <point x="755" y="196" type="curve" smooth="yes"/>
      <point x="755" y="343"/>
      <point x="643" y="400"/>
      <point x="493" y="410" type="curve"/>
      <point x="575" y="372" type="line"/>
      <point x="630" y="440"/>
      <point x="680" y="520"/>
      <point x="716" y="595" type="curve"/>
    </contour>
    <contour>
      <point x="294" y="-3" type="curve"/>
      <point x="294" y="423" type="line" smooth="yes"/>
      <point x="294" y="577"/>
      <point x="321" y="602"/>
      <point x="393" y="602" type="curve" smooth="yes"/>
      <point x="453" y="602"/>
      <point x="526" y="590"/>
      <point x="716" y="595" type="curve"/>
      <point x="716" y="621"/>
      <point x="705" y="664"/>
      <point x="694" y="682" type="curve"/>
      <point x="632" y="677"/>
      <point x="599" y="676"/>
      <point x="548" y="676" type="curve" smooth="yes"/>
      <point x="472" y="676"/>
      <point x="447" y="682"/>
      <point x="392" y="682" type="curve" smooth="yes"/>
      <point x="223" y="682"/>
      <point x="94" y="626"/>
      <point x="94" y="413" type="curve" smooth="yes"/>
      <point x="94" y="188" type="line" smooth="yes"/>
      <point x="94" y="95"/>
      <point x="84" y="79"/>
      <point x="30" y="75" type="curve"/>
      <point x="25" y="56"/>
      <point x="20" y="21"/>
      <point x="20" y="-3" type="curve"/>
      <point x="74" y="-1"/>
      <point x="135" y="0"/>
      <point x="185" y="0" type="curve" smooth="yes"/>
      <point x="234" y="0"/>
      <point x="273" y="-1"/>
    </contour>
  </outline>
</glyph>
<glyph name="emdash" format="2">
  <advance width="1024"/>
  <unicode hex="2014"/>
  <outline>
    <contour>
      <point x="964" y="303" type="curve"/>
      <point x="75" y="303" type="line"/>
      <point x="67" y="284"/>
      <point x="60" y="248"/>
      <point x="60" y="213" type="curve"/>
      <point x="388" y="218"/>
      <point x="667" y="218"/>
      <point x="949" y="218" type="curve"/>
      <point x="958" y="241"/>
      <point x="964" y="271"/>
    </contour>
  </outline>
</glyph>
<glyph name="quoteleft" format="2">
  <advance width="316"/>
  <unicode hex="2018"/>
  <outline>
    <contour>
      <point x="75" y="421"/>
      <point x="114" y="410" type="curve"/>
      <point x="144" y="430"/>
      <point x="187" y="440"/>
      <point x="240" y="442" type="curve"/>
      <point x="254" y="487"/>
      <point x="256" y="512"/>
      <point x="256" y="557" type="curve"/>
      <point x="208" y="562"/>
      <point x="185" y="575"/>
      <point x="185" y="603" type="curve" smooth="yes"/>
      <point x="185" y="638"/>
      <point x="197" y="667"/>
      <point x="240" y="710" type="curve"/>
      <point x="218" y="724"/>
      <point x="196" y="730"/>
      <point x="164" y="730" type="curve"/>
      <point x="98" y="671"/>
      <point x="60" y="587"/>
      <point x="60" y="511" type="curve" smooth="yes"/>
      <point x="60" y="443"/>
    </contour>
  </outline>
</glyph>
<glyph name="dagger" format="2">
  <advance width="494"/>
  <unicode hex="2020"/>
  <outline>
    <contour>
      <point x="452" y="458" type="curve"/>
      <point x="55" y="458" type="line"/>
      <point x="44" y="426"/>
      <point x="41" y="392"/>
      <point x="41" y="344" type="curve"/>
      <point x="108" y="358"/>
      <point x="160" y="366"/>
      <point x="245" y="370" type="curve"/>
      <point x="326" y="363"/>
      <point x="371" y="355"/>
      <point x="427" y="343" type="curve"/>
      <point x="446" y="376"/>
      <point x="451" y="417"/>
    </contour>
    <contour>
      <point x="288" y="339"/>
      <point x="315" y="614" type="curve" smooth="yes"/>
      <point x="319" y="654"/>
      <point x="316" y="664"/>
      <point x="288" y="673" type="curve"/>
      <point x="250" y="653"/>
      <point x="223" y="643"/>
      <point x="173" y="633" type="curve"/>
      <point x="201" y="342"/>
      <point x="194" y="49"/>
      <point x="190" y="-237" type="curve"/>
      <point x="215" y="-245"/>
      <point x="250" y="-249"/>
      <point x="279" y="-249" type="curve"/>
      <point x="279" y="48"/>
    </contour>
  </outline>
</glyph>
<glyph name="triangularbullet" format="2">
  <advance width="421"/>
  <unicode hex="2023"/>
  <outline>
    <contour>
      <point x="153" y="101" type="curve"/>
      <point x="218" y="142"/>
      <point x="285" y="182"/>
      <point x="354" y="221" type="curve"/>
      <point x="370" y="243"/>
      <point x="374" y="267"/>
      <point x="368" y="291" type="curve"/>
      <point x="300" y="328"/>
      <point x="233" y="367"/>
      <point x="167" y="410" type="curve"/>
      <point x="144" y="413"/>
      <point x="121" y="410"/>
      <point x="100" y="399" type="curve"/>
      <point x="103" y="314"/>
      <point x="103" y="228"/>
      <point x="100" y="143" type="curve"/>
      <point x="111" y="123"/>
      <point x="128" y="109"/>
    </contour>
  </outline>
</glyph>
<glyph name="perthousand" format="2">
  <advance width="1229"/>
  <unicode hex="2030"/>
  <outline>
    <contour>
      <point x="1094" y="311"/>
      <point x="993" y="311" type="curve" smooth="yes"/>
      <point x="879" y="311"/>
      <point x="823" y="232"/>
      <point x="823" y="145" type="curve" smooth="yes"/>
      <point x="823" y="68"/>
      <point x="874" y="-9"/>
      <point x="982" y="-9" type="curve" smooth="yes"/>
      <point x="1087" y="-9"/>
      <point x="1145" y="68"/>
      <point x="1145" y="159" type="curve" smooth="yes"/>
      <point x="1145" y="232"/>
    </contour>
    <contour>
      <point x="954" y="235"/>
      <point x="979" y="235" type="curve" smooth="yes"/>
      <point x="1010" y="235"/>
      <point x="1032" y="198"/>
      <point x="1032" y="147" type="curve" smooth="yes"/>
      <point x="1032" y="93"/>
      <point x="1007" y="67"/>
      <point x="987" y="67" type="curve" smooth="yes"/>
      <point x="954" y="67"/>
      <point x="933" y="105"/>
      <point x="933" y="156" type="curve" smooth="yes"/>
      <point x="933" y="201"/>
    </contour>
    <contour>
      <point x="200" y="-7" type="curve"/>
      <point x="750" y="657" type="line"/>
      <point x="738" y="671"/>
      <point x="701" y="686"/>
      <point x="669" y="686" type="curve"/>
      <point x="125" y="30" type="line"/>
      <point x="140" y="10"/>
      <point x="169" y="-7"/>
    </contour>
    <contour>
      <point x="727" y="311"/>
      <point x="626" y="311" type="curve" smooth="yes"/>
      <point x="512" y="311"/>
      <point x="453" y="232"/>
      <point x="453" y="145" type="curve" smooth="yes"/>
      <point x="453" y="68"/>
      <point x="507" y="-9"/>
      <point x="615" y="-9" type="curve" smooth="yes"/>
      <point x="720" y="-9"/>
      <point x="779" y="68"/>
      <point x="779" y="159" type="curve" smooth="yes"/>
      <point x="779" y="232"/>
    </contour>
    <contour>
      <point x="590" y="235"/>
      <point x="614" y="235" type="curve" smooth="yes"/>
      <point x="642" y="235"/>
      <point x="662" y="198"/>
      <point x="662" y="147" type="curve" smooth="yes"/>
      <point x="662" y="93"/>
      <point x="639" y="67"/>
      <point x="621" y="67" type="curve" smooth="yes"/>
      <point x="589" y="67"/>
      <point x="571" y="105"/>
      <point x="571" y="156" type="curve" smooth="yes"/>
      <point x="571" y="201"/>
    </contour>
    <contour>
      <point x="356" y="677"/>
      <point x="256" y="677" type="curve" smooth="yes"/>
      <point x="142" y="677"/>
      <point x="84" y="598"/>
      <point x="84" y="512" type="curve" smooth="yes"/>
      <point x="84" y="436"/>
      <point x="138" y="359"/>
      <point x="245" y="359" type="curve" smooth="yes"/>
      <point x="350" y="359"/>
      <point x="408" y="436"/>
      <point x="408" y="526" type="curve" smooth="yes"/>
      <point x="408" y="598"/>
    </contour>
    <contour>
      <point x="221" y="602"/>
      <point x="245" y="602" type="curve" smooth="yes"/>
      <point x="272" y="602"/>
      <point x="292" y="565"/>
      <point x="292" y="514" type="curve" smooth="yes"/>
      <point x="292" y="461"/>
      <point x="269" y="434"/>
      <point x="251" y="434" type="curve" smooth="yes"/>
      <point x="221" y="434"/>
      <point x="202" y="471"/>
      <point x="202" y="523" type="curve" smooth="yes"/>
      <point x="202" y="568"/>
    </contour>
  </outline>
</glyph>
<glyph name="minute" format="2">
  <advance width="325.38"/>
  <unicode hex="2032"/>
  <outline>
    <contour>
      <point x="269" y="711"/>
      <point x="246" y="717" type="curve"/>
      <point x="219" y="704"/>
      <point x="177" y="691"/>
      <point x="132" y="687" type="curve"/>
      <point x="118" y="611"/>
      <point x="91" y="515"/>
      <point x="60" y="426" type="curve"/>
      <point x="81" y="416"/>
      <point x="104" y="411"/>
      <point x="131" y="411" type="curve"/>
      <point x="177" y="507"/>
      <point x="223" y="581"/>
      <point x="257" y="655" type="curve" smooth="yes"/>
      <point x="270" y="683"/>
    </contour>
  </outline>
</glyph>
<glyph name="primeReversed" format="2">
  <advance width="317"/>
  <unicode hex="2035"/>
  <outline>
    <contour>
      <point x="197" y="680" type="curve" smooth="yes"/>
      <point x="190" y="702"/>
      <point x="174" y="713"/>
      <point x="154" y="716" type="curve"/>
      <point x="134" y="701"/>
      <point x="100" y="690"/>
      <point x="60" y="681" type="curve"/>
      <point x="105" y="604"/>
      <point x="147" y="510"/>
      <point x="180" y="419" type="curve"/>
      <point x="203" y="412"/>
      <point x="233" y="411"/>
      <point x="257" y="416" type="curve"/>
      <point x="207" y="585"/>
      <point x="207" y="651"/>
    </contour>
  </outline>
</glyph>
<glyph name="interrobang" format="2">
  <advance width="627"/>
  <unicode hex="203D"/>
  <outline>
    <contour>
      <point x="284" y="223" type="curve"/>
      <point x="323" y="223"/>
      <point x="356" y="224"/>
      <point x="389" y="236" type="curve"/>
      <point x="418" y="396"/>
      <point x="592" y="403"/>
      <point x="592" y="561" type="curve" smooth="yes"/>
      <point x="592" y="670"/>
      <point x="509" y="717"/>
      <point x="342" y="717" type="curve" smooth="yes"/>
      <point x="225" y="717"/>
      <point x="155" y="694"/>
      <point x="108" y="672" type="curve"/>
      <point x="113" y="630"/>
      <point x="112" y="577"/>
      <point x="108" y="529" type="curve"/>
      <point x="136" y="513"/>
      <point x="163" y="506"/>
      <point x="205" y="506" type="curve"/>
      <point x="219" y="625"/>
      <point x="265" y="640"/>
      <point x="320" y="640" type="curve" smooth="yes"/>
      <point x="406" y="640"/>
      <point x="432" y="604"/>
      <point x="432" y="533" type="curve" smooth="yes"/>
      <point x="432" y="426"/>
      <point x="372" y="408"/>
      <point x="350" y="284" type="curve"/>
      <point x="345" y="284" type="line"/>
      <point x="359" y="407"/>
      <point x="388" y="443"/>
      <point x="388" y="530" type="curve" smooth="yes"/>
      <point x="388" y="572"/>
      <point x="381" y="594"/>
      <point x="358" y="601" type="curve"/>
      <point x="326" y="580"/>
      <point x="289" y="567"/>
      <point x="247" y="563" type="curve"/>
      <point x="261" y="476"/>
      <point x="276" y="370"/>
    </contour>
    <contour>
      <point x="331" y="-8" type="curve" smooth="yes"/>
      <point x="400" y="-8"/>
      <point x="437" y="42"/>
      <point x="437" y="95" type="curve" smooth="yes"/>
      <point x="437" y="148"/>
      <point x="400" y="192"/>
      <point x="336" y="192" type="curve" smooth="yes"/>
      <point x="277" y="192"/>
      <point x="230" y="155"/>
      <point x="230" y="91" type="curve" smooth="yes"/>
      <point x="230" y="33"/>
      <point x="269" y="-8"/>
    </contour>
  </outline>
</glyph>
<glyph name="undertie" format="2">
  <advance width="724"/>
  <unicode hex="203F"/>
  <outline>
    <contour>
      <point x="362" y="-193" type="curve" smooth="yes"/>
      <point x="489" y="-193"/>
      <point x="602" y="-156"/>
      <point x="664" y="-84" type="curve"/>
      <point x="665" y="-61"/>
      <point x="647" y="-33"/>
      <point x="626" y="-18" type="curve"/>
      <point x="565" y="-59"/>
      <point x="505" y="-91"/>
      <point x="362" y="-91" type="curve" smooth="yes"/>
      <point x="219" y="-91"/>
      <point x="159" y="-59"/>
      <point x="98" y="-18" type="curve"/>
      <point x="77" y="-33"/>
      <point x="59" y="-61"/>
      <point x="60" y="-84" type="curve"/>
      <point x="122" y="-156"/>
      <point x="235" y="-193"/>
    </contour>
  </outline>
</glyph>
<glyph name="fraction" format="2">
  <advance width="238"/>
  <unicode hex="2044"/>
  <outline>
    <contour>
      <point x="-94" y="-9" type="curve"/>
      <point x="418" y="688" type="line"/>
      <point x="400" y="704"/>
      <point x="364" y="717"/>
      <point x="334" y="717" type="curve"/>
      <point x="-180" y="18" type="line"/>
      <point x="-168" y="2"/>
      <point x="-125" y="-9"/>
    </contour>
  </outline>
</glyph>
<glyph name="dong" format="2">
  <advance width="650"/>
  <unicode hex="20AB"/>
  <outline>
    <contour>
      <point x="229" y="111" type="curve" smooth="yes"/>
      <point x="325" y="111"/>
      <point x="393" y="146"/>
      <point x="420" y="217" type="curve"/>
      <point x="422" y="217" type="line"/>
      <point x="418" y="200"/>
      <point x="415" y="182"/>
      <point x="415" y="167" type="curve" smooth="yes"/>
      <point x="415" y="141"/>
      <point x="424" y="122"/>
      <point x="453" y="111" type="curve"/>
      <point x="506" y="133"/>
      <point x="565" y="144"/>
      <point x="624" y="145" type="curve"/>
      <point x="637" y="168"/>
      <point x="640" y="195"/>
      <point x="635" y="224" type="curve"/>
      <point x="587" y="226"/>
      <point x="579" y="237"/>
      <point x="579" y="316" type="curve" smooth="yes"/>
      <point x="579" y="653" type="line" smooth="yes"/>
      <point x="579" y="688"/>
      <point x="566" y="707"/>
      <point x="544" y="717" type="curve"/>
      <point x="512" y="701"/>
      <point x="427" y="684"/>
      <point x="328" y="684" type="curve"/>
      <point x="317" y="663"/>
      <point x="315" y="634"/>
      <point x="315" y="609" type="curve"/>
      <point x="375" y="605"/>
      <point x="389" y="595"/>
      <point x="389" y="568" type="curve" smooth="yes"/>
      <point x="389" y="306" type="line" smooth="yes"/>
      <point x="389" y="245"/>
      <point x="351" y="205"/>
      <point x="297" y="205" type="curve" smooth="yes"/>
      <point x="251" y="205"/>
      <point x="221" y="235"/>
      <point x="221" y="283" type="curve" smooth="yes"/>
      <point x="221" y="338"/>
      <point x="260" y="374"/>
      <point x="316" y="374" type="curve" smooth="yes"/>
      <point x="347" y="374"/>
      <point x="377" y="363"/>
      <point x="397" y="347" type="curve"/>
      <point x="397" y="432" type="line"/>
      <point x="375" y="437"/>
      <point x="345" y="441"/>
      <point x="308" y="441" type="curve" smooth="yes"/>
      <point x="149" y="441"/>
      <point x="30" y="367"/>
      <point x="30" y="257" type="curve" smooth="yes"/>
      <point x="30" y="167"/>
      <point x="109" y="111"/>
    </contour>
    <contour>
      <point x="31" y="-1" type="curve"/>
      <point x="622" y="-1" type="line"/>
      <point x="629" y="19"/>
      <point x="631" y="51"/>
      <point x="631" y="72" type="curve"/>
      <point x="414" y="65"/>
      <point x="205" y="65"/>
      <point x="40" y="65" type="curve"/>
      <point x="33" y="42"/>
      <point x="31" y="14"/>
    </contour>
    <contour>
      <point x="217" y="485" type="curve"/>
      <point x="326" y="491"/>
      <point x="395" y="491"/>
      <point x="632" y="491" type="curve"/>
      <point x="639" y="516"/>
      <point x="641" y="544"/>
      <point x="641" y="561" type="curve"/>
      <point x="226" y="561" type="line"/>
      <point x="219" y="539"/>
      <point x="217" y="508"/>
    </contour>
  </outline>
</glyph>
<glyph name="rupeeIndian" format="2">
  <advance width="574"/>
  <unicode hex="20B9"/>
  <outline>
    <contour>
      <point x="291" y="-9" type="curve"/>
      <point x="333" y="-3"/>
      <point x="436" y="0"/>
      <point x="553" y="0" type="curve"/>
      <point x="560" y="24"/>
      <point x="564" y="50"/>
      <point x="564" y="79" type="curve"/>
      <point x="499" y="83"/>
      <point x="484" y="93"/>
      <point x="446" y="141" type="curve" smooth="yes"/>
      <point x="387" y="217"/>
      <point x="376" y="258"/>
      <point x="296" y="277" type="curve"/>
      <point x="247" y="263" type="line"/>
      <point x="361" y="273"/>
      <point x="446" y="337"/>
      <point x="446" y="459" type="curve" smooth="yes"/>
      <point x="446" y="531"/>
      <point x="417" y="598"/>
      <point x="354" y="603" type="curve"/>
      <point x="357" y="588" type="line"/>
      <point x="419" y="589"/>
      <point x="475" y="589"/>
      <point x="544" y="589" type="curve"/>
      <point x="554" y="609"/>
      <point x="560" y="643"/>
      <point x="560" y="676" type="curve"/>
      <point x="47" y="676" type="line"/>
      <point x="37" y="656"/>
      <point x="30" y="618"/>
      <point x="30" y="588" type="curve"/>
      <point x="106" y="588" type="line" smooth="yes"/>
      <point x="199" y="588"/>
      <point x="240" y="540"/>
      <point x="240" y="466" type="curve" smooth="yes"/>
      <point x="240" y="372"/>
      <point x="173" y="332"/>
      <point x="102" y="332" type="curve" smooth="yes"/>
      <point x="47" y="332" type="line"/>
      <point x="37" y="311"/>
      <point x="30" y="271"/>
      <point x="30" y="239" type="curve"/>
      <point x="160" y="241" type="line"/>
      <point x="121" y="253" type="line"/>
      <point x="173" y="232"/>
      <point x="193" y="207"/>
      <point x="227" y="136" type="curve" smooth="yes"/>
      <point x="251" y="85"/>
      <point x="271" y="36"/>
    </contour>
    <contour>
      <point x="30" y="412" type="curve"/>
      <point x="267" y="418"/>
      <point x="376" y="418"/>
      <point x="544" y="418" type="curve"/>
      <point x="554" y="438"/>
      <point x="560" y="471"/>
      <point x="560" y="504" type="curve"/>
      <point x="47" y="504" type="line"/>
      <point x="37" y="483"/>
      <point x="30" y="444"/>
    </contour>
  </outline>
</glyph>
<glyph name="NdoubleStruck" format="2">
  <advance width="769"/>
  <unicode hex="2115"/>
  <outline>
    <contour>
      <point x="535" y="-9" type="line"/>
      <point x="589" y="-9"/>
      <point x="629" y="-8"/>
      <point x="669" y="0" type="curve"/>
      <point x="669" y="458" type="line" smooth="yes"/>
      <point x="669" y="575"/>
      <point x="680" y="594"/>
      <point x="732" y="601" type="curve"/>
      <point x="739" y="627"/>
      <point x="739" y="652"/>
      <point x="739" y="679" type="curve"/>
      <point x="715" y="677"/>
      <point x="667" y="676"/>
      <point x="633" y="676" type="curve" smooth="yes"/>
      <point x="599" y="676"/>
      <point x="530" y="677"/>
      <point x="502" y="679" type="curve"/>
      <point x="502" y="656"/>
      <point x="503" y="624"/>
      <point x="509" y="601" type="curve"/>
      <point x="581" y="593"/>
      <point x="594" y="572"/>
      <point x="594" y="458" type="curve" smooth="yes"/>
      <point x="594" y="230" type="line"/>
      <point x="623" y="277" type="line"/>
      <point x="331" y="679" type="line"/>
      <point x="297" y="676"/>
      <point x="230" y="676"/>
      <point x="188" y="676" type="curve" smooth="yes"/>
      <point x="149" y="676"/>
      <point x="61" y="677"/>
      <point x="30" y="679" type="curve"/>
      <point x="30" y="649"/>
      <point x="32" y="623"/>
      <point x="38" y="601" type="curve"/>
      <point x="81" y="597"/>
      <point x="94" y="591"/>
      <point x="105" y="573" type="curve" smooth="yes"/>
    </contour>
    <contour>
      <point x="30" y="-3" type="curve"/>
      <point x="54" y="-1"/>
      <point x="125" y="0"/>
      <point x="159" y="0" type="curve" smooth="yes"/>
      <point x="193" y="0"/>
      <point x="252" y="-1"/>
      <point x="280" y="-3" type="curve"/>
      <point x="280" y="24"/>
      <point x="279" y="53"/>
      <point x="273" y="75" type="curve"/>
      <point x="208" y="82"/>
      <point x="194" y="104"/>
      <point x="194" y="218" type="curve" smooth="yes"/>
      <point x="194" y="507" type="line"/>
      <point x="119" y="585" type="line"/>
      <point x="119" y="218" type="line" smooth="yes"/>
      <point x="119" y="104"/>
      <point x="100" y="82"/>
      <point x="38" y="75" type="curve"/>
      <point x="31" y="53"/>
      <point x="30" y="29"/>
    </contour>
    <contour>
      <point x="594" y="69" type="line"/>
      <point x="182" y="601" type="line"/>
      <point x="272" y="601" type="line"/>
      <point x="594" y="183" type="line"/>
    </contour>
  </outline>
</glyph>
